<svg id="レイヤー_1" data-name="レイヤー 1" xmlns="http://www.w3.org/2000/svg" viewBox="0 0 521.17 271.79">
<defs>
<style>.cls-1,.cls-2,.cls-4{fill:none;}.cls-1,.cls-4{stroke:white;}.cls-1,.cls-2{stroke-width:5px;}.cls-2{stroke:white;}.cls-3{fill:white;}.cls-4{stroke-linejoin:round;stroke-width:2px;}
</style>
</defs>

<path class="cls-1" d="M160.66,169.5c-.8,21.89,30.46,41.23,70.5,44.07,2,1.6,4.18,3.16,6.39,4.68a81.35,81.35,0,0,0,6.88,4.43,88.93,88.93,0,0,0,17.3,7.4c16.45,4.61,42.36-.6,43.64-9.52.66-4.63-5.74-7.68-4.38-11.21,2.28-5.92,18.67-1.6,23.43-7.77,1.6-2.08,2-5.5-.33-11.28a11.85,11.85,0,0,0,1.51-5.39c.26-7-5.6-13-13.07-13.37-.61-.8-1.24-1.63-1.9-2.47A17.81,17.81,0,0,0,308,157.25c-4.78-7.39-13.37-8.67-14.55-8.82-.39-7.64-8.47-14-18.6-14.5a23.18,23.18,0,0,0-10.9,2c-1-.25-2.05-.49-3.09-.72-2.26-6-9.33-10.58-17.85-11-7.83-.36-14.68,2.91-17.83,7.9a11.18,11.18,0,0,0-.95,1.81,17.88,17.88,0,0,0-1.58-1.69,22.29,22.29,0,0,0-14.09-5.54c-9.19-.42-17.06,4.17-19.14,10.69a23,23,0,0,0-4.72-.72c-9.37-.43-17.18,4.82-17.43,11.71a9.56,9.56,0,0,0,.89,4.38C163.54,157.8,160.88,163.44,160.66,169.5Z" transform="translate(-119.09 -102.21)"/>
<path class="cls-1" d="M206.38,134.24a17.92,17.92,0,0,1,1.8,1.9,14.24,14.24,0,0,1,1-2.2C208.22,134,207.29,134.13,206.38,134.24Z" transform="translate(-119.09 -102.21)"/>
<path class="cls-1" d="M279.32,168.86" transform="translate(-119.09 -102.21)"/>
<path class="cls-1" d="M274.94,150.28" transform="translate(-119.09 -102.21)"/>
<path class="cls-2" d="M20,47.53" transform="translate(-119.09 -102.21)"/>
<path class="cls-1" d="M504.86,175.45" transform="translate(-119.09 -102.21)"/>
<path class="cls-1" d="M234.74,161.33c10.14,6.09,20.36,9.63,29.84,8.4,11.36-1.47,14.91-8.92,24.89-9,8.2-.06,16,4.89,23,12" transform="translate(-119.09 -102.21)"/>
<path class="cls-1" d="M249,152.24" transform="translate(-119.09 -102.21)"/>
<path class="cls-1" d="M254.06,152.08" transform="translate(-119.09 -102.21)"/>
<path class="cls-1" d="M249,152.24c-.13,1.46-.26,6,4.08,10.72a26.51,26.51,0,0,0,11.47,6.77" transform="translate(-119.09 -102.21)"/>
<path class="cls-1" d="M350.24,323.49" transform="translate(-119.09 -102.21)"/>
<path class="cls-1" d="M169.16,171.93c11.19,7.38,16.84,7.25,19.94,5.37,3.69-2.24,3.47-6.76,7.18-8.57,4.71-2.31,11.51,1.87,16.94,6.25" transform="translate(-119.09 -102.21)"/>
<path class="cls-1" d="M160.65,154" transform="translate(-119.09 -102.21)"/>
<path class="cls-1" d="M164.63,153.91" transform="translate(-119.09 -102.21)"/>
<path class="cls-1" d="M177.76,163.16a14.58,14.58,0,0,0,3.42,9,16.61,16.61,0,0,0,7.92,5.13" transform="translate(-119.09 -102.21)"/>
<path class="cls-1" d="M194.19,174.71" transform="translate(-119.09 -102.21)"/>
<path class="cls-1" d="M223.71,172.1a28.62,28.62,0,0,0-3.1,22.12c2.63,10.55,9.87,17.77,12.63,20.31" transform="translate(-119.09 -102.21)"/>
<path class="cls-1" d="M233.65,201.83c9.2-5.94,18.22-9.53,26.14-8.7,9.5,1,11.78,7.75,20.24,7.5,7-.21,14.05-5,20.7-11.78" transform="translate(-119.09 -102.21)"/>
<path class="cls-1" d="M110,180.06" transform="translate(-119.09 -102.21)"/>
<path class="cls-1" d="M105.52,179.21" transform="translate(-119.09 -102.21)"/>
<path class="cls-1" d="M265,193.65c-.3-.82-1-3.41,2.68-6.8,3.36-3.11,8.43-5.07,10.32-5.75" transform="translate(-119.09 -102.21)"/>
<path class="cls-1" d="M308.9,160.43" transform="translate(-119.09 -102.21)"/>
<path class="cls-1" d="M418.2,173.62" transform="translate(-119.09 -102.21)"/>
<path class="cls-1" d="M342.09,371.08" transform="translate(-119.09 -102.21)"/>
<path class="cls-3" d="M387.73,275.09l2.07,1.11L386,276v-2.22h9.43l12.47,17.09v7H404ZM386,295.67l4-.56h1.18l5,.56v2.18H386Zm3.14-21.94,2.59,2.22v21.9H389.1Zm11.81,0H411v2.18l-3.78.55h-1.14l-5.18-.55Zm4.36,0h2.59v24.12l-2.59-2.59Z" transform="translate(-119.09 -102.21)"/>
<path class="cls-3" d="M428.77,287.34a8.05,8.05,0,0,1-.19,2h-14.8v-2.11H420c1.77,0,2.25-.59,2.25-2.47,0-2.56-.92-3.48-1.88-3.48-1.22,0-2.11,1.55-2.11,6.92,0,4.44,2.18,6.29,4.59,6.29a5.8,5.8,0,0,0,4.21-1.74l1.45,1.4c-1.59,3-4.37,4.33-8,4.33-5.55,0-9.62-3.55-9.62-9.65,0-6.37,5.1-9.55,9.95-9.55C426.1,279.24,428.77,282.86,428.77,287.34Z" transform="translate(-119.09 -102.21)"/>
<path class="cls-3" d="M439,292c0,1.92.67,2.51,1.63,2.51,1.3,0,3-1.7,3.85-3.14h1.67V294h-2.63l1.15-1.26c-1.63,3.48-4.07,5.7-7.37,5.7s-5.47-1.77-5.4-6.66l.15-10,1.33,1.36-3.26-.74v-1.66l8.4-1.3.67.41-.19,5.26Zm4.22,6.33-.22-4.37.15-12.21,1.33,1.4-3.11-.74V280.9l8.18-1.48.67.41-.11,5.26v12.76L447,295l4.78,1v1.89Z" transform="translate(-119.09 -102.21)"/>
<path class="cls-3" d="M454.92,290.08v-2.33c0-2,0-2.63-.11-4.11l-2-.33v-1.52l8.18-2.55.67.41.29,4.51v5.92c0,2.29,0,6.11.11,7.77h-7.25C454.89,296.19,454.92,292.37,454.92,290.08ZM453.11,296l3.33-.74h5.11l3.33.74v1.89H453.11Zm5.62-10.73h3l-.33,1.3c.44-5,3.14-7.29,5.36-7.29,1.81,0,3.18,1,3.44,3.29-.11,2-1.33,3.15-2.81,3.15-1.22,0-2.15-.63-3.11-2L463.21,282l1.37.89a9.74,9.74,0,0,0-2.63,4.85l-3.22-.37Z" transform="translate(-119.09 -102.21)"/>
<path class="cls-3" d="M477.6,287.31c1.52-.41,4.26-1.12,6-1.56v1.63a33.16,33.16,0,0,0-4.77,1.48,4,4,0,0,0-2.41,3.66c0,1.82.85,2.7,1.93,2.7a3,3,0,0,0,1.74-.77l1.77-1.34.33.45-1.73,1.92c-1.63,1.78-2.74,3-5.59,3a4.42,4.42,0,0,1-4.81-4.77C470,290.82,471.61,288.9,477.6,287.31Zm2.26,7.66v-9.59c0-3.14-.48-4.14-2.81-4.14a15.67,15.67,0,0,0-3.52.48l3-1.56v2.33c0,3-1.44,4.15-3,4.15a2.65,2.65,0,0,1-2.81-2c0-3.18,3.07-5.4,9-5.4,5.1,0,7,2.11,7,7.18v8.47a.58.58,0,0,0,.63.63c.29,0,.55-.15,1-.81l1.07.59c-.89,2.26-2.33,3.14-5,3.14S480.3,297.19,479.86,295Z" transform="translate(-119.09 -102.21)"/>
<path class="cls-3" d="M498.36,271.17l.63.41-.15,5.14v13.36q0,3.89.11,7.77H491.7q.1-3.89.11-7.77V274.87l-2-.37v-1.66ZM500.58,296v1.89H490.07V296l3.29-.74H497Z" transform="translate(-119.09 -102.21)"/>
<path class="cls-3" d="M529.26,294.37v1.85l-2.56.56,1.37-5.92h3l-.15,5.81a16.08,16.08,0,0,1-7.88,1.92c-7,0-13-3.74-13-12.8,0-9.29,6.51-12.81,13.36-12.81a14.39,14.39,0,0,1,7.29,1.86l.14,5.88h-3l-1.41-6,2.56.6v2c-1.63-1.45-2.89-2.11-4.52-2.11-3.55,0-6.81,3-6.81,10.66s3.22,10.54,6.66,10.54A8.34,8.34,0,0,0,529.26,294.37Z" transform="translate(-119.09 -102.21)"/>
<path class="cls-3" d="M532.73,288.71c0-5.51,4.07-9.47,9.77-9.47s9.77,3.85,9.77,9.47-3.44,9.73-9.77,9.73S532.73,294.23,532.73,288.71Zm12.14.11c0-5.36-.74-7.55-2.37-7.55s-2.37,2.19-2.37,7.55.74,7.59,2.37,7.59S544.87,294.23,544.87,288.82Z" transform="translate(-119.09 -102.21)"/>
<path class="cls-3" d="M555.56,297.85c.08-1.66.11-5.48.11-7.77v-2.29c0-2,0-2.67-.11-4.15l-2-.33v-1.52l8.18-2.55.67.41.29,4v6.4c0,2.29,0,6.11.11,7.77Zm8.59-1.89v1.89H553.93V296l3.19-.74h3.62Zm9.65-10.54v4.66c0,2.37,0,6.11.12,7.77h-7.26c.08-1.66.11-5.4.11-7.77V285.9c0-2-.48-2.7-1.66-2.7s-3,1.07-4.22,2.77h-1.44v-2.66h2.74l-1.34,1.18c2.93-4.29,4.7-5.25,7.37-5.25C571.44,279.24,573.8,281.39,573.8,285.42Zm-2,9.8,3.59.74v1.89H565.15V296l3.07-.74Z" transform="translate(-119.09 -102.21)"/>
<path class="cls-3" d="M587.23,295a3,3,0,0,0,1.82-.74l.92.85c-1,2.14-2.81,3.36-5.84,3.36-3.67,0-5.78-1.55-5.78-5.51,0-1.44,0-2.52,0-4v-6.36h-2.11v-2.45l4.29-.55-2.36,1.59,2.81-6.62h4.4v17.94C585.42,294.19,586.2,295,587.23,295Zm1.6-15.14v2.78h-6.89v-2.78Z" transform="translate(-119.09 -102.21)"/>
<path class="cls-3" d="M592.19,290.08v-2.33c0-2,0-2.63-.11-4.11l-2-.33v-1.52l8.18-2.55.67.41.29,4.51v5.92c0,2.29,0,6.11.11,7.77h-7.25C592.15,296.19,592.19,292.37,592.19,290.08ZM590.38,296l3.33-.74h5.11l3.33.74v1.89H590.38ZM596,285.23h3l-.34,1.3c.45-5,3.15-7.29,5.37-7.29,1.81,0,3.18,1,3.44,3.29-.11,2-1.33,3.15-2.81,3.15-1.22,0-2.15-.63-3.11-2L600.48,282l1.37.89a9.74,9.74,0,0,0-2.63,4.85l-3.22-.37Z" transform="translate(-119.09 -102.21)"/>
<path class="cls-3" d="M607.55,288.71c0-5.51,4.07-9.47,9.77-9.47s9.76,3.85,9.76,9.47-3.44,9.73-9.76,9.73S607.55,294.23,607.55,288.71Zm12.13.11c0-5.36-.74-7.55-2.36-7.55s-2.37,2.19-2.37,7.55.74,7.59,2.37,7.59S619.68,294.23,619.68,288.82Z" transform="translate(-119.09 -102.21)"/>
<path class="cls-3" d="M637.18,271.17l.63.41-.14,5.14v13.36c0,2.59,0,5.18.11,7.77h-7.26c.08-2.59.11-5.18.11-7.77V274.87l-2-.37v-1.66ZM639.4,296v1.89H628.9V296l3.29-.74h3.59Z" transform="translate(-119.09 -102.21)"/>
<path class="cls-3" d="M225.31,320.31v-2.19h6.25v2.74h-.66Zm6.25,19.2v2.74h-6.25v-2.18l5.59-.56Zm-3.66-9.91c0-3.82,0-7.66-.11-11.48h7.55c-.12,3.74-.12,7.59-.12,11.48v1.14c0,3.85,0,7.7.12,11.51h-7.55c.11-3.74.11-7.59.11-11.47Zm12.21-11.48,3.07,2.19H231.56v-2.19H244.4l.26,6.3h-3.48Zm-.48,12.81h-8.07v-2.37h8.07Zm5.77,5-.26,6.29H231.56V340.1h12.36l-3.07,2.15,1.07-6.29Zm-6.88-6.66.55-3.4h2.33v7.66h-2.33l-.55-3.59Z" transform="translate(-119.09 -102.21)"/>
<path class="cls-3" d="M248.62,342.25c.07-1.66.11-5.48.11-7.77v-2.29c0-2,0-2.67-.11-4.15l-2-.33v-1.52l8.18-2.55.66.41.3,4v6.4c0,2.29,0,6.11.11,7.77Zm8.58-1.89v1.89H247v-1.89l3.18-.74h3.63Zm9.66-10.54v4.66c0,2.37,0,6.11.11,7.77h-7.25c.07-1.66.11-5.4.11-7.77V330.3c0-2-.48-2.7-1.67-2.7s-3,1.07-4.21,2.77H252.5v-2.66h2.74l-1.33,1.18c2.92-4.29,4.7-5.25,7.36-5.25C264.49,323.64,266.86,325.78,266.86,329.82Zm-2,9.8,3.59.74v1.89H258.2v-1.89l3.07-.74Z" transform="translate(-119.09 -102.21)"/>
<path class="cls-3" d="M283.51,345.62c0-.85-.59-1.82-2.33-1.82h-3.7a11.45,11.45,0,0,1-4.78-.73v-.3a3.39,3.39,0,0,1-2.59-3.26c0-2.18,1.56-4,3.78-5.66l1,.63a3.38,3.38,0,0,0-.51,1.92c0,.82.63,1.3,2.14,1.3h4.11c6.29,0,8.29,2.37,8.29,5.66,0,4-4,7.11-11.58,7.11-6.44,0-8-2.15-8-4.26,0-1.81,1.4-3.29,3.85-4l.66.37a4.34,4.34,0,0,0-.7,2.48c0,2.11,1.44,3,5,3S283.51,347,283.51,345.62Zm-5.22-22c5.85,0,8.18,2.66,8.18,6,0,3.1-2.33,5.84-8.18,5.84s-8.18-2.7-8.18-5.84S272.45,323.64,278.29,323.64Zm-2,5.88c0,2.59.52,4.07,2,4.07s2.07-1.48,2.07-4.07-.7-4-2.07-4S276.29,326.93,276.29,329.52Zm12.47-6,.6.37V327H284.1v-1.3Z" transform="translate(-119.09 -102.21)"/>
<path class="cls-3" d="M292.17,342.25c.07-1.66.11-5.48.11-7.77V332.7c0-2,0-3.18-.11-4.66l-2-.33v-1.52l8.58-2.55.67.41-.11,5.51v4.92c0,2.29,0,6.11.11,7.77Zm8.73-1.89v1.89H290.58v-1.89l3.18-.74h3.59Zm-8.59-22.09a3.41,3.41,0,1,1,3.41,3.18A3.24,3.24,0,0,1,292.31,318.27Z" transform="translate(-119.09 -102.21)"/>
<path class="cls-3" d="M304,342.25c.07-1.66.11-5.48.11-7.77v-2.29c0-2,0-2.67-.11-4.15l-2-.33v-1.52l8.18-2.55.66.41.3,4v6.4c0,2.29,0,6.11.11,7.77Zm8.58-1.89v1.89H302.38v-1.89l3.18-.74h3.63Zm9.66-10.54v4.66c0,2.37,0,6.11.11,7.77h-7.25c.07-1.66.11-5.4.11-7.77V330.3c0-2-.48-2.7-1.67-2.7s-3,1.07-4.22,2.77h-1.44v-2.66h2.74l-1.33,1.18c2.92-4.29,4.7-5.25,7.36-5.25C319.88,323.64,322.25,325.78,322.25,329.82Zm-2,9.8,3.59.74v1.89H313.59v-1.89l3.07-.74Z" transform="translate(-119.09 -102.21)"/>
<path class="cls-3" d="M343.19,331.74a8.05,8.05,0,0,1-.19,2H328.2v-2.11h6.22c1.78,0,2.26-.59,2.26-2.48,0-2.55-.93-3.47-1.89-3.47-1.22,0-2.11,1.55-2.11,6.92,0,4.44,2.18,6.29,4.59,6.29a5.84,5.84,0,0,0,4.22-1.74l1.44,1.4c-1.59,3-4.37,4.33-8,4.33-5.55,0-9.62-3.55-9.62-9.65,0-6.37,5.11-9.55,10-9.55C340.53,323.64,343.19,327.26,343.19,331.74Z" transform="translate(-119.09 -102.21)"/>
<path class="cls-3" d="M362.65,331.74a8.6,8.6,0,0,1-.18,2h-14.8v-2.11h6.21c1.78,0,2.26-.59,2.26-2.48,0-2.55-.93-3.47-1.89-3.47-1.22,0-2.11,1.55-2.11,6.92,0,4.44,2.19,6.29,4.59,6.29a5.84,5.84,0,0,0,4.22-1.74l1.44,1.4c-1.59,3-4.36,4.33-8,4.33-5.55,0-9.62-3.55-9.62-9.65,0-6.37,5.11-9.55,10-9.55C360,323.64,362.65,327.26,362.65,331.74Z" transform="translate(-119.09 -102.21)"/>
<path class="cls-3" d="M366,334.48v-2.33c0-2,0-2.63-.11-4.11l-2-.33v-1.52l8.18-2.55.66.41.3,4.51v5.92c0,2.29,0,6.11.11,7.77h-7.25C365.94,340.59,366,336.77,366,334.48Zm-1.81,5.88,3.33-.74h5.1l3.33.74v1.89H364.17Zm5.62-10.73h3l-.34,1.3c.45-5,3.15-7.29,5.37-7.29,1.81,0,3.18,1,3.44,3.29-.11,2-1.33,3.15-2.81,3.15-1.22,0-2.15-.63-3.11-2l-1.11-1.63,1.37.89a9.67,9.67,0,0,0-2.63,4.85l-3.22-.37Z" transform="translate(-119.09 -102.21)"/>
<path class="cls-3" d="M383.89,342.25c.07-1.66.11-5.48.11-7.77V332.7c0-2,0-3.18-.11-4.66l-2-.33v-1.52l8.58-2.55.67.41-.11,5.51v4.92c0,2.29,0,6.11.11,7.77Zm8.73-1.89v1.89H382.3v-1.89l3.18-.74h3.59ZM384,318.27a3.41,3.41,0,1,1,3.4,3.18A3.23,3.23,0,0,1,384,318.27Z" transform="translate(-119.09 -102.21)"/>
<path class="cls-3" d="M395.73,342.25c.07-1.66.11-5.48.11-7.77v-2.29c0-2,0-2.67-.11-4.15l-2-.33v-1.52l8.18-2.55.66.41.3,4v6.4c0,2.29,0,6.11.11,7.77Zm8.58-1.89v1.89H394.1v-1.89l3.18-.74h3.63ZM414,329.82v4.66c0,2.37,0,6.11.11,7.77h-7.25c.07-1.66.11-5.4.11-7.77V330.3c0-2-.48-2.7-1.67-2.7s-3,1.07-4.21,2.77h-1.45v-2.66h2.74L401,328.89c2.92-4.29,4.7-5.25,7.36-5.25C411.6,323.64,414,325.78,414,329.82Zm-2,9.8,3.59.74v1.89H405.31v-1.89l3.07-.74Z" transform="translate(-119.09 -102.21)"/>
<path class="cls-3" d="M430.62,345.62c0-.85-.59-1.82-2.33-1.82h-3.7a11.45,11.45,0,0,1-4.78-.73v-.3a3.39,3.39,0,0,1-2.59-3.26c0-2.18,1.56-4,3.78-5.66l1,.63a3.38,3.38,0,0,0-.51,1.92c0,.82.63,1.3,2.14,1.3h4.11c6.29,0,8.29,2.37,8.29,5.66,0,4-4,7.11-11.58,7.11-6.44,0-8-2.15-8-4.26,0-1.81,1.4-3.29,3.85-4l.66.37a4.34,4.34,0,0,0-.7,2.48c0,2.11,1.44,3,5,3S430.62,347,430.62,345.62Zm-5.22-22c5.85,0,8.18,2.66,8.18,6,0,3.1-2.33,5.84-8.18,5.84s-8.18-2.7-8.18-5.84S419.56,323.64,425.4,323.64Zm-2,5.88c0,2.59.52,4.07,2,4.07s2.07-1.48,2.07-4.07-.7-4-2.07-4S423.4,326.93,423.4,329.52Zm12.47-6,.6.37V327h-5.26v-1.3Z" transform="translate(-119.09 -102.21)"/>
<path class="cls-3" d="M445.31,320.31v-2.19h12.91v2.19l-5.73.55h-1.6Zm6.25,19.2v2.74h-6.25v-2.18l5.58-.56Zm-3.77-21.39h7.54c-.11,3.74-.11,7.59-.11,11.48v1.7c0,3.29,0,7.14.11,10.95h-7.54c.11-3.74.11-7.59.11-10.4V329.6C447.9,325.78,447.9,321.94,447.79,318.12Zm17.35,16.77-.37,7.36H451.56V340h12l-3.11,2.22,1.44-7.36Z" transform="translate(-119.09 -102.21)"/>
<path class="cls-3" d="M474,331.7l6-1.55v1.63a33.75,33.75,0,0,0-4.78,1.48,4,4,0,0,0-2.4,3.66c0,1.81.85,2.7,1.92,2.7a3,3,0,0,0,1.74-.77l1.78-1.34.33.45-1.74,1.92c-1.63,1.78-2.74,3-5.59,3a4.42,4.42,0,0,1-4.81-4.77C466.43,335.22,468,333.3,474,331.7Zm2.26,7.66v-9.58c0-3.14-.49-4.14-2.82-4.14a15.6,15.6,0,0,0-3.51.48l3-1.56v2.33c0,3-1.45,4.15-3,4.15a2.65,2.65,0,0,1-2.81-2c0-3.18,3.07-5.4,9-5.4,5.11,0,7,2.11,7,7.18v8.47a.59.59,0,0,0,.63.63c.3,0,.56-.15,1-.81l1.08.59c-.89,2.25-2.34,3.14-5,3.14S476.72,341.58,476.28,339.36Z" transform="translate(-119.09 -102.21)"/>
<path class="cls-3" d="M486.52,340.4l3.26-.74-1.67,2.63c.08-1.67.12-5.48.12-7.77V319.16l-2-.26v-1.66l8.43-1.67.63.41-.15,5.14v5.07l.12.48v13l-1.15,3.18-7.59-.55Zm13.73-7.29c0-4.22-1.29-5.81-3.25-5.81-2.19,0-3.78,2.59-4.41,3.29l-.33-.59c2.11-4.25,4.59-6.36,8.14-6.36,4.07,0,7.33,3.14,7.33,9.47,0,6.07-3.93,9.73-8,9.73-3.74,0-5.55-2.22-7.07-6l.33-.74c1.37,1.89,2.18,3.22,4,3.22S500.25,337.33,500.25,333.11Z" transform="translate(-119.09 -102.21)"/>
<path class="cls-3" d="M509.72,333.11c0-5.51,4.07-9.47,9.77-9.47s9.77,3.85,9.77,9.47-3.44,9.73-9.77,9.73S509.72,338.62,509.72,333.11Zm12.14.11c0-5.36-.74-7.55-2.37-7.55s-2.37,2.19-2.37,7.55.74,7.59,2.37,7.59S521.86,338.62,521.86,333.22Z" transform="translate(-119.09 -102.21)"/>
<path class="cls-3" d="M532.66,334.48v-2.33c0-2,0-2.63-.11-4.11l-2-.33v-1.52l8.18-2.55.67.41.29,4.51v5.92c0,2.29,0,6.11.11,7.77h-7.25C532.63,340.59,532.66,336.77,532.66,334.48Zm-1.81,5.88,3.33-.74h5.11l3.33.74v1.89H530.85Zm5.62-10.73h3l-.34,1.3c.45-5,3.15-7.29,5.37-7.29,1.81,0,3.18,1,3.44,3.29-.11,2-1.33,3.15-2.81,3.15-1.22,0-2.15-.63-3.11-2L541,326.41l1.37.89a9.74,9.74,0,0,0-2.63,4.85l-3.22-.37Z" transform="translate(-119.09 -102.21)"/>
<path class="cls-3" d="M555.34,331.7l6-1.55v1.63a33.16,33.16,0,0,0-4.77,1.48,4,4,0,0,0-2.41,3.66c0,1.81.85,2.7,1.93,2.7a3,3,0,0,0,1.74-.77l1.77-1.34.33.45-1.73,1.92c-1.63,1.78-2.74,3-5.59,3s-4.81-1.74-4.81-4.77C547.76,335.22,549.35,333.3,555.34,331.7Zm2.26,7.66v-9.58c0-3.14-.48-4.14-2.81-4.14a15.6,15.6,0,0,0-3.52.48l3-1.56v2.33c0,3-1.44,4.15-3,4.15a2.64,2.64,0,0,1-2.81-2c0-3.18,3.07-5.4,9-5.4,5.1,0,7,2.11,7,7.18v8.47a.58.58,0,0,0,.63.63c.29,0,.55-.15,1-.81l1.07.59c-.89,2.25-2.33,3.14-5,3.14S558,341.58,557.6,339.36Z" transform="translate(-119.09 -102.21)"/>
<path class="cls-3" d="M578.21,339.36a2.88,2.88,0,0,0,1.81-.74l.93.86c-1,2.14-2.82,3.36-5.85,3.36-3.66,0-5.77-1.55-5.77-5.51,0-1.44,0-2.52,0-4V327h-2.1v-2.45l4.29-.55-2.37,1.59L572,319h4.41v17.94C576.4,338.59,577.17,339.36,578.21,339.36Zm1.59-15.13V327h-6.88v-2.78Z" transform="translate(-119.09 -102.21)"/>
<path class="cls-3" d="M581.21,333.11c0-5.51,4.07-9.47,9.76-9.47s9.77,3.85,9.77,9.47-3.44,9.73-9.77,9.73S581.21,338.62,581.21,333.11Zm12.13.11c0-5.36-.74-7.55-2.37-7.55s-2.36,2.19-2.36,7.55.74,7.59,2.36,7.59S593.34,338.62,593.34,333.22Z" transform="translate(-119.09 -102.21)"/>
<path class="cls-3" d="M604.14,334.48v-2.33c0-2,0-2.63-.11-4.11l-2-.33v-1.52l8.17-2.55.67.41.3,4.51v5.92c0,2.29,0,6.11.11,7.77H604C604.11,340.59,604.14,336.77,604.14,334.48Zm-1.81,5.88,3.33-.74h5.11l3.33.74v1.89H602.33ZM608,329.63h3l-.33,1.3c.44-5,3.14-7.29,5.36-7.29a3.28,3.28,0,0,1,3.44,3.29c-.11,2-1.33,3.15-2.81,3.15-1.22,0-2.14-.63-3.11-2l-1.11-1.63,1.37.89a9.66,9.66,0,0,0-2.62,4.85l-3.22-.37Z" transform="translate(-119.09 -102.21)"/>
<path class="cls-3" d="M623.24,326.56,620,326v-1.74h11.21v1.7l-2.89.63Zm-3,21.35a3.12,3.12,0,0,1,3.29-2.7,3.65,3.65,0,0,1,3.37,1.85L628,349l-1.37.55-1.18-.55a10.54,10.54,0,0,0,3.84-5.26l2.26-6.51,4.52-12.95h2.59l-7.81,20.2c-1.56,4-3.07,6.41-6.66,6.41C622.16,350.84,620.39,349.54,620.2,347.91Zm9.44-3.18-8.92-20.5h7.51l4.63,12.95ZM636,326.52l-2.77-.55v-1.74h6.88V326l-3.4.55Z" transform="translate(-119.09 -102.21)"/>
<path class="cls-1" d="M325.73,142.87c-7.92-8.37-22-21.45-40-29.12a120.4,120.4,0,0,0-14-4.88,118.46,118.46,0,0,0-27.31-4.09,122.32,122.32,0,0,0-23.8,1.47c-11.4,1.93-42.15,7.11-63.16,33.89A76.92,76.92,0,0,0,146,159.48c-3,7.49-9.17,22.27-7,38.48.73,5.46,2.27,10.1-.16,14.81-1.66,3.23-3.84,3.89-7.77,9.9-.88,1.33-.7,1.2-3.7,6.47-5.38,9.5-5.88,9.8-5.71,10.85.89,5.46,15,4,17.54,9.91,2,4.85-5.89,10-3.66,14.53s11.88,3.13,12.31,6c.36,2.44-6.4,4.23-6.36,7.61,0,2.15,3,2.07,5.3,5.31,2.92,4.16,2.07,10.26,1.35,15.48-1.2,8.61-3.81,10.24-3,12.2,3.14,7.79,43.3-18.51,61.21-5.26,7.57,5.61,13.83,18.66,8.63,53.11H640.26" transform="translate(-119.09 -102.21)"/>
<path class="cls-2" d="M120.17-202" transform="translate(-119.09 -102.21)"/><text x="-119.09" y="-102.21"/>
<path class="cls-4" d="M292.64,262.85c8.21-.38,34.06-.19,50.72-.47,1.21-9.22,10.39-21.44,15.7-25.29,7.49-19.84,5.32-96.37,5.32-112.54,0,12.88.24,90.44,2.9,114.42,2.17,20.21,4.1,8.18,7,6.77,13.77-6.59,15.22-7.62,17.63-11.47" transform="translate(-119.09 -102.21)"/>
<path class="cls-4" d="M391.91,235.21c5.27-19.31,3.58-94.38,3.58-110.66,0,13,.22,91.07,2.53,115.21,1.9,20.35,3.58,8.23,6.11,6.81,12-6.63,13.06-8.61,15.17-12.49" transform="translate(-119.09 -102.21)"/>
<path class="cls-4" d="M419.3,235.21c5.4-19.31,3.67-94.38,3.67-110.66,0,13,.22,91.07,2.59,115.21,1.95,20.35,3.67,8.23,6.26,6.81,12.31-6.63,13.39-8.61,15.55-12.49" transform="translate(-119.09 -102.21)"/>
<path class="cls-4" d="M446.69,235.21c5.39-19.31,3.67-94.38,3.67-110.66,0,13,.21,91.07,2.59,115.21,1.94,20.35,3.67,8.23,6.26,6.81,12.31-6.63,13.39-8.61,15.55-12.49" transform="translate(-119.09 -102.21)"/>
<path class="cls-4" d="M474.07,235.21c5.4-19.31,3.67-94.38,3.67-110.66,0,13,.22,91.07,2.59,115.21,1.95,20.35,3.68,8.23,6.27,6.81,12.3-6.63,13.38-8.61,15.54-12.49" transform="translate(-119.09 -102.21)"/>
<path class="cls-4" d="M501.46,235.21c5.4-19.31,3.67-94.38,3.67-110.66,0,13,.22,91.07,2.59,115.21,1.94,20.35,3.67,8.23,6.26,6.81,12.31-6.63,13.39-8.61,15.55-12.49" transform="translate(-119.09 -102.21)"/>
<path class="cls-4" d="M528.84,235.21c5.4-19.31,3.68-94.38,3.68-110.66,0,13,.21,91.07,2.59,115.21,1.94,20.35,3.67,8.23,6.26,6.81,12.31-6.63,13.39-8.61,15.55-12.49" transform="translate(-119.09 -102.21)"/>
<path class="cls-4" d="M611.69,235.21c5.26-19.31,3.58-94.38,3.58-110.66,0,13,.21,91.07,2.53,115.21,1.89,20.35,3.58,8.23,6.11,6.81,12-6.63,13.06-8.61,15.16-12.49" transform="translate(-119.09 -102.21)"/>
<path class="cls-4" d="M556.23,235.21c5.4-19.31,3.67-94.38,3.67-110.66,0,13,.22,91.07,2.59,115.21,2,20.35,3.67,8.23,6.26,6.81,12.31-6.63,13.39-8.61,15.55-12.49" transform="translate(-119.09 -102.21)"/>
<path class="cls-4" d="M583.62,235.21c5.4-19.31,3.67-94.38,3.67-110.66,0,13,.21,91.07,2.59,115.21,1.94,20.35,3.67,8.23,6.26,6.81,12.31-6.63,13.39-8.61,15.55-12.49" transform="translate(-119.09 -102.21)"/></svg>