<?xml version="1.0" encoding="utf-8"?>
<!-- Generator: Adobe Illustrator 24.2.1, SVG Export Plug-In . SVG Version: 6.00 Build 0)  -->
<svg version="1.1" id="レイヤー_1" xmlns="http://www.w3.org/2000/svg" xmlns:xlink="http://www.w3.org/1999/xlink" x="0px"
	 y="0px" viewBox="0 0 383.4 135.5" style="enable-background:new 0 0 383.4 135.5;" xml:space="preserve">
<style type="text/css">
	.st0{fill:none;stroke:#0072BD;stroke-width:0.6667;stroke-linejoin:round;stroke-miterlimit:10;}
</style>
<path class="st0" d="M0,134.6L0,134.6l0.2,0.2l0.1-0.2l0,0.1l0-0.1l0,0.2l0.2,0l0-0.1l0.1,0l0.1-0.2l0.1,0.1l0,0l0.2-0.2l0.1,0.2
	l0-0.1h0l0,0l0.2,0.3l0-0.1l0,0l0-0.1l0.1,0.3h0.1l0-0.1l0,0l0.2-0.4l0,0h0l0,0.2l0.2-0.3l0.1,0.2l0,0l0.2-0.3l0,0.1l0.1-0.1
	l0.1,0.2l0-0.1l0,0.1l0.1-0.2l0,0.3l0.1-0.1l0,0l0.1-0.1l0.2,0.3l0-0.1h0l0,0l0.2,0.2l0.1,0l0-0.1l0.1,0.2l0-0.2l0.1,0l0-0.1l0,0.2
	l0.2-0.4l0.1,0.1h0l0,0.1l0.2-0.3l0,0.1l0,0l0-0.1l0.1,0.2l0.1-0.2l0,0.1l0-0.2l0.2,0.3l0,0l0-0.1l0,0l0.2-0.2l0,0.1l0,0l0.1-0.1
	l0.1,0.2H5l0-0.1l0.1,0.2l0-0.2l0.2,0.2l0,0l0.1,0.1l0.1-0.2l0.1,0l0,0l0,0.2l0.2-0.2l0,0.1l0,0l0-0.1l0.1,0.3l0.1-0.1l0,0l0,0.1
	l0.2-0.2l0,0.1l0.1,0l0.2,0.3l0-0.1l0,0l0.1-0.1l0.2,0.3h0l0,0l0.2-0.1l0.1,0.2h0l0,0l0.2-0.2l0.1,0.3l0,0l0,0l0.1,0.2l0.1-0.2l0,0
	l0,0.1l0-0.1l0.1,0.3l0.1-0.1l0-0.1l0,0.1l0.2-0.4l0,0l0.2,0.2l0.1-0.1l0,0l0,0l0.1-0.2l0.1,0.1l0,0.1l0.1-0.1l0.1,0.2l0-0.1l0-0.1
	l0,0l0,0.2l0.2-0.1l0-0.1l0,0l0.1-0.3l0.1,0.1h0l0,0l0.2-0.2h0l0.1,0.2l0.1-0.2l0,0l0,0.1l0,0l0.1-0.3l0.2,0.3l0,0l0-0.1l0.2,0.3
	l0-0.1l0,0l0,0.1l0.1-0.2l0.1,0.1l0,0l0.1,0.1l0.2-0.2l0,0h0l0.2-15.3l0-0.4l0.2-11.1l0-0.3l0.2-6.4h0l0.2-4.3l0-0.2l0.2-3.2l0-0.1
	l0.2-3.8l0-0.1L12.3,7l0.1,108.5l0-0.3l0-0.2l0.2-4.9l0-0.1l0.2-3.5l0-0.2l0,0l0.2-2.4l0,0l0.2-2l0-0.1l0.2-1.7h0l0-0.1l0.2-1.3
	l0-0.2l0.2-1.2l0,0.1l0.2-1.5l0,0l0,0l0.2-1.5l0,0.1l0.2-0.7h0l0.2-1.2l0-0.1l0.2-0.9l0,0.1h0l0.2-0.7l0,0l0-0.1l0,0.1l0.2-0.8
	l0,0.1l0,0l0.2-0.7l0.1,0.1l0-0.2l0,0.2l0.2-0.5l0,0.1l0.2-1.3l0,0l0,0l0.1-0.8l0.1,0.5h0l0-0.2l0.2,1.1l0,0h0l0-0.2l0.1,0.6
	l0.1-0.2l0-0.1l0,0.1l0.2-0.6l0.1,0.4l0-0.1l0.1-0.4l0.1,0.5l0-0.1l0,0.1l0.2-0.5l0,0.1l0,0.2l0.1,0.1l0.2-0.7l0,0l0,0.1l0-0.2
	l0.2,1l0,0.1l0.2,1.5L19,90l0,0.1l0.2,0.6l0.1,0l0,0.1l0.1-0.4l0.2,0l0,0.1l0.2-0.5l0,0l0.2-1.2l0,0.3l0-0.1l0.1-0.3l0.2,0.8l0,0
	l0.1,0.4l0.2-0.1l0,0.1l0,0.1l0.2-0.3l0.1,0.2l0,0l0.2,0.7l0-0.1l0,0.1l0-0.1l0.2,0.5l0-0.1l0,0l0.1,0.3l0.1,0l0,0.1l0-0.2l0.2,0.6
	l0-0.3l0-0.1l0,0l0.2-0.8l0,0l0-0.1l0,0.1l0.2-0.9h0l0,0.2l0,0.1l0.2-0.7l0,0h0l0-0.1l0.2,0.6h0l0,0.1l0.2-0.5l0.1,0.2l0,0l0.1,0.1
	l0.1-0.4l0.1,0l0,0l0.1-0.4l0.1,0.4l0,0l0-0.1l0.1-0.1l0.2,0.7l0-0.1l0-0.2l0.1,0.3l0.1-0.2l0,0l0.1-0.1l0.2,0.7l0,0h0l0,0l0.2,0.7
	l0-0.1l0,0.1l0.1,0.2l0.1-0.4l0,0.1l0.1-0.3l0.2,0.4l0-0.1l0-0.1l0,0.1l0.2-0.8l0-0.1l0,0l0.2-0.5l0,0h0l0.2,0.1l0.1-0.4h0l0.2-1.6
	l0,0.1l0-0.1l0.1,0l0.2-0.7l0,0l0-0.1l0.2,0.5l0-0.1l0,0.1l0.1,0.3l0.1-0.3l0.1,0.2l0,0.1l0,0l0.2-1.1l0,0l0,0.1l0.2,0.7l0,0.1
	l0.2,0.8l0,0l0.2,1.2h0h0l0.2,0.7l0-0.1l0,0l0.2-0.7l0,0.1l0-0.1l0,0l0.2-0.4l0,0l0,0l0.1-0.2l0.1,0.6h0h0l0.1,0.4l0.1-0.3l0-0.1
	l0.2-0.9l0,0.1l0.1,0l0.2-0.7l0,0l0.2-1.4l0,0l0.2-1.6L30,85l0,0.1l0,0l0.2,1.6l0,0.1l0.2,0.8l0,0l0,0l0,0l0.2,1.7l0,0.1l0,0
	l0.2,0.7l0-0.1l0,0l0.2-0.7l0.1,0h0l0,0.2l0.1-0.3l0.1,0.1l0,0l0,0l0.2,0.7l0,0l0,0l0.1-0.2l0.1,0.2l0.1-0.1l0,0l0.2-0.3l0,0.1
	l0-0.1l0.1-0.1l0.1,0.2h0.1h0l0.1,0.1l0.1-0.3l0.1,0.1l0-0.1l0.1,0.2l0-0.3l0.1,0.1l0,0l0.2-0.5l0.1,0.3l0,0.1l0.2-0.4l0.1,0.2
	l0,0.1l0.2-1.1l0,0l0-0.1l0.1-0.1l0.1,0.7l0,0l0,0l0.1-0.4l0.2,0.6h0l0,0.1l0.1,0l0.1-0.7l0,0l0-0.1l0.2-1.2l0.1,0l0,0l0,0l0.2-0.7
	h0l0-0.2l0.2,0.4l0.1-0.3l0-0.1l0.1,0.2l0-0.4l0.1,0.2l0,0.2l0-0.2l0.2,1.2l0-0.1l0,0l0.1,0.3l0.1-0.5l0,0.3l0-0.1l0.1,0.2l0.2-0.7
	l0,0l0,0.1l0.2-0.4l0.1,0.2l0,0l0,0l0.2,1.2l0,0.1l0,0l0.2,0.9h0l0,0l0.2,0.9l0,0l0-0.1l0.2,0.6l0-0.1l0,0l0,0l0.1-0.3l0.1,0h0
	l0.2-1.5l0,0l0.2-1.6l0,0.1l0,0l0-0.1l0.2,0.8l0,0l0,0.4l0.2-0.4l0,0.1l0.1,0.1l0-0.3l0.1,0.2h0l0.1-0.2l0.2,0.5l0-0.2l0,0l0,0.1
	l0.2-0.2l0,0l0,0l0,0l0.2-1.1h0l0,0l0.1-0.2l0.2,0.6l0,0h0l0,0.1l0.1-0.3l0.1,0.2l0,0l0,0l0.2,0.4l0.1-0.2l0,0l0.2,0.9l0-0.1
	l0.1-0.2l0.2,0.6l0-0.1l0,0.1l0.1-0.3l0.1,0.4l0.1-0.2l0,0l0.1-0.1l0.2,0.7l0,0l0,0l0.2,1l0-0.2l0,0l0.2,1l0,0.1l0.2,0l0-0.2l0,0.2
	l0-0.2l0.1,0.2l0.1-0.5l0,0.1l0-0.1l0,0.1l0.2-0.8l0,0l0,0l0.2,0.1l0.1-0.3l0,0.1l0,0l0,0.2l0.2-1l0,0.1l0.2-1h0l0-0.1l0.1,0.1
	l0.1-0.4l0,0l0,0l0.2-0.7l0,0l0,0l0.2-1.4h0l0,0.1l0.2-1.3l0-0.1l0,0.1l0.2-2.6l0-0.8l0-75.4L45,114.8l0-0.2l0-0.1l0.2-5.1l0-0.1
	l0.2-3.5l0-0.1l0.2-2.4h0l0,0L46,101h0l0-0.1l0.2-1.4l0-0.1l0.2-1.4l0,0l0,0l0.2-1h0l0,0.1l0.2-1.3l0-0.1l0,0.1l0.2-1.1l0,0l0,0
	l0.2-1.1l0,0l0,0l0,0l0.2-1.1h0l0,0l0.2-0.9l0,0.1l0.2-1.4l0-0.1l0.2-1.9l0,0l0.2-3l0-0.1l0.2-81l0,16.7l0,12.6l0.1,81.2l0.1-1.8
	l0-0.2l0.2-4.9l0-0.1l0.2-3.1l0,0l0.2-2.4h0l0.2-1.6l0,0l0.2-1.3h0l0-0.1l0,0l0.2-1.4l0,0l0-0.1l0.2-1.1l0,0l0,0.1l0.2-1.4l0,0
	l0,0.1l0.2-1l0,0l0,0l0,0.2l0.2-0.7l0,0l0,0.1l0.2-1l0,0.1l0.2-1.1l0,0l0.2-1.3l0,0l0-0.2l0.2-0.8l0.1,0.1l0-0.1l0.1,0.2l0.1-0.3
	l0.1,0.1l0,0l0.1-0.2l0.1,0.3l0-0.2l0,0l0.2-0.7l0,0.1l0.2-0.4l0.1,0.2h0l0.1,0.2l0.1-0.4l0,0l0,0l0.2-0.8l0,0l0,0.1l0,0l0.2-0.4
	l0,0.1l0-0.2l0.2-1.5l0,0.1l0,0l0,0l0.2-1.8l0-0.1l0,0.1l0.1-0.8l0.1,0.1l0,0.1l0-0.2l0.2,0.9h0l0,0.1l0.2,2.6l0,0l0.2,1.5h0l0,0
	l0.1,0.2l0.2-0.2l0,0l0.1-0.7l0.1,0.1l0,0l0.1-0.7l0.1,0.1h0l0,0l0.2-0.9h0l0-0.1l0.2-1.4l0,0l0,0.1l0.2-1.5l0,0.1l0,0l0,0l0.2,0.6
	h0l0.2,1.9l0,0l0,0.1l0,0l0.2,1.4l0,0l0.2,0.7l0.1-0.2l0,0l0.1,0.2l0.1-0.4l0,0l0.2-1.4l0,0.1l0,0l0.1,0.1l0.2-1l0,0.1l0-0.1
	l0.2-0.6l0,0.1l0-0.1l0,0l0.1-0.4l0.1,0.4l0,0l0.2,1l0,0l0,0l0.2,1.6l0-0.2l0,0.1l0.2-1.1l0,0l0,0l0,0l0.2-0.7l0,0.2h0l0.1-0.2
	l0.1,0.3l0.1-0.1l0,0l0.1-0.2l0.2,0.5l0,0l0,0.1l0-0.2l0.2,0.4h0l0.2-0.6l0,0.1l0-0.1l0.1-0.4l0.1,0.5l0-0.1l0,0l0.2-0.6l0.1,0.4
	l0,0.1l0-0.1l0.2,0.7h0l0.1,0.1l0.1-0.3h0l0-0.1l0,0.2l0.2-0.5l0,0.3h0l0.2,0.5l0-0.2l0,0l0.2,0.8h0l0.2,0.4l0-0.1h0l0.1,0.1
	l0.2-0.4h0l0.2-0.6h0h0l0,0.1l0.2-1l0-0.1l0.2-1.5l0-0.1l0.2-0.8L65,84l0,0l0.2,1.8l0-0.1l0,0.1l0.1,0.6l0.1-0.2l0,0.1l0-0.1
	l0.2,0.7h0l0.1-0.1l0.2,0.5h0l0.1-0.1l0.2,0.8l0-0.1l0,0l0.2,0.4l0.1-0.2l0,0.1l0.2-0.5l0,0.1l0-0.1l0.1,0.3l0.2-0.3l0,0.2l0-0.1
	l0,0.1l0.2-0.7l0,0.1l0.1-0.6l0.1,0.5l0-0.1l0.1,0.2l0.2-0.6l0,0l0,0l0,0.1l0.2-1l0,0l0,0.1l0.2-1.1h0l0.2-0.9l0,0h0l0,0.2l0.1-0.2
	l0.1,0.2l0-0.1l0-0.2l0.2,1.1h0h0l0,0l0.2,1.4h0h0l0.1,0.4l0.1-0.1h0l0.2-0.6l0,0.1l0,0l0,0.1l0.2-1.3l0,0.1l0,0.2l0.2-0.8l0-0.1
	l0.2-0.7l0,0.1h0l0,0l0.2,1.4l0-0.1l0,0l0.2,0.8h0l0,0l0.1,0.3l0.2-0.5l0-0.1l0,0l0.1-0.5l0.1,0.2l0,0.1l0.1-0.2l0.1,0.4l0,0
	l0.2,0.6l0-0.1l0,0l0.1,0.3l0.1-0.4l0,0l0,0.1l0-0.1l0.2,0.5l0.1,0l0-0.1l0-0.2l0.1,0.4l0.1-0.2l0,0.1l0.1,0.2l0.1-0.5l0.1,0.2l0,0
	l0,0l0.2,0.8l0,0l0,0l0.2,0.6l0,0l0,0l0-0.2l0,0.4l0.2-0.2l0-0.1l0,0.1l0.1-0.7L74,87l0,0.1l0,0.2l0.2-0.3h0l0,0l0.2-0.9l0,0l0-0.1
	l0.2,0.4l0,0l0-0.1l0.1-0.2l0.1,0.4l0.1-0.3l0-0.1l0.2-0.6l0,0.1h0l0,0l0.2-1.5l0,0h0l0,0l0.2-1.3h0l0.2-1.9l0,0l0-0.2l0.1-73.7
	l0.1,103.2l0,0.9l0.1,2.2l0.2-3.7l0-0.1l0.2-3.8l0-0.1l0.2-2.5h0l0.2-2l0-0.1l0,0l0.2-1.8l0,0l0,0.1l0.2-1.4h0l0-0.1l0,0l0.2-1.3h0
	l0,0l0.2-1l0,0l0,0l0.2-1.2l0,0l0,0.1l0.2-1.1l0,0.1l0-0.1l0,0l0.2-0.8l0,0.1l0,0l0.2-0.7l0,0l0,0.1l0.2-1l0,0l0,0l0.2-1.2h0
	l0.2-0.9l0,0l0,0l0,0.2l0.2-0.7l0,0l0-0.1l0.2-1.3l0,0l0.2-1.8l0-0.1L80.9,5L81,86.9l0,6.1l0.1,20.7l0.1-2.6l0-0.1l0.2-4.4l0-0.1
	l0.2-2.5l0-0.1l0.2-2.1l0-0.1l0.2-1.7l0-0.2l0,0l0.2-1.3h0h0l0.2-1.6l0,0.1l0.2-1.6h0l0.2-1.1l0,0l0-0.1l0,0.1l0.2-1h0l0-0.2l0,0.1
	l0.2-1.1h0l0-0.2l0.2-1.5l0,0l0-0.1l0.2-1.1l0,0h0l0.2-1.9l0-0.1l0.2-1.7l0,0.1l0,0l0.2-1.3l0-0.2l0.2-4.2l0-0.7l0-74l0.2,108.2
	l0-0.4l0-0.1l0.2-4.9l0-0.1L86,105l0-0.1l0.2-2.3l0,0l0-0.1l0.2-1.9l0-0.1l0.2-1.3l0,0l0-0.1l0.2-1.3l0,0l0.2-1.2l0,0.1l0-0.1
	l0.2-0.8h0l0.2-0.9l0,0l0-0.1l0,0.1l0.2-0.5l0-0.1l0,0.1l0.2-0.4l0,0l0,0l0,0l0.2-1l0-0.1l0.2-1.1l0,0l0,0.1l0.2-0.9l0,0l0,0
	l0.1,0.1l0.1-0.7h0h0l0,0.1l0.2-1.2l0,0l0-0.2l0,0.2l0.2-1l0,0.1h0L90,88l0,0l0-0.1l0.2-2.2h0l0.2-3.2l0-0.2l0.1-77.2l0.2,108.2
	l0,0.1l0.2-4.8l0-0.1l0.2-3.1h0l0-0.1l0.2-2.2h0l0-0.1l0.2-1.6l0-0.1l0.2-1.6l0,0.1l0-0.1l0,0l0.2-1.2l0,0.1l0-0.1l0.2-1.5l0,0.1
	l0.2-1.1l0,0l0.2-1.3l0,0.1l0-0.1l0.2-1.2h0l0,0.1l0.2-0.9l0,0.1l0-0.2l0,0.1l0.2-0.7l0,0l0,0l0.2-0.6h0l0,0l0,0l0.2-1l0,0l0,0l0,0
	l0.2-1.5l0,0l0.2-1.2l0,0.1l0,0l0,0l0.2-1.1h0l0,0l0.2-2l0-0.1L95.4,4l0.1,89.1l0,4.7l0.1,15l0.2-3l0-0.1l0.2-4.1l0,0l0.2-2.2l0-0.1
	l0.2-1.8h0l0,0l0.2-1.5h0l0-0.1l0,0.1l0.2-1.2l0,0l0.2-1.2l0,0.1l0-0.1l0.2-1.2l0,0l0-0.1l0,0l0.2-0.9l0,0l0.2-1.3l0,0l0,0l0.2-0.7
	l0,0l0,0l0.2-0.8h0h0l0,0.1l0.2-0.4l0,0l0,0.1l0.2-1.1h0l0,0l0.2-1.4l0,0l0.2-1.1l0-0.1l0,0.1l0.2-1.5h0l0-0.1l0.2-1.5h0l0-0.2
	l0.2-4.2l0-0.5l0.1-76.6l0.2,108.1l0-0.2l0-0.1l0.2-4.4l0-0.2l0.2-3l0,0l0.2-2h0l0.2-1.8l0,0l0.2-1.5l0,0l0,0L102,98h0l0,0l0.2-1.2
	l0,0l0,0l0.2-1.1l0,0.1l0-0.1l0,0l0.2-1.3l0,0.1l0.2-1.1h0l0.2-0.7l0,0l0.2-0.8l0.1,0l0,0l0.1,0.1l0.2-0.9l0,0.1l0-0.1l0.2-1.4h0
	l0-0.1l0.2-1.7l0-0.1l0.2-2.8l0,0.1l0.2-80.9l0.1,86.4l0,5.2l0.1,16.6l0.1-2.6l0-0.1l0.2-3.9l0-0.1l0.2-2.7h0l0-0.1l0.2-1.9l0,0
	l0.2-1.6l0,0l0,0l0,0l0.2-1.1l0,0l0.2-1.2h0l0-0.1l0.2-1.3l0,0h0l0.2-1.1l0,0l0-0.1l0.2-0.7l0,0l0,0.1l0.2-0.8l0,0.1l0-0.1l0.2-0.8
	h0h0l0.2-0.8l0-0.1l0.2-1.4l0,0l0-0.1l0,0l0.2-1l0-0.2l0,0l0.2-1.7l0,0l0.2-2.5h0l0.2-2.4l0-0.2l0.1-78.1l0.2,107.6l0,0l0.2-4.1
	l0-0.1l0.2-2.9l0,0.1l0-0.1l0.2-2.1h0l0.2-1.8l0-0.1l0,0.1l0.2-1.3l0,0.1l0.2-1.2l0-0.1l0.2-1.7l0,0l0.2-1.3h0l0,0l0.2-0.9l0,0.1
	l0-0.1l0.2-1.1l0-0.1l0.2-1.3l0,0l0.2-1.5h0l0-0.1l0.2-2.5l0-0.1l0.1,0l0.2-1l0,0.1l0-0.1l0,0l0.2-0.9l0,0l0,0l0,0.1l0.2-0.4h0
	l0.2-2.1l0-0.1l0.2-79l0.1,91.1l0,3.9l0.1,12.1l0.1-1.9l0-0.1l0.2-4.2l0-0.2l0.2-2.6l0-0.1l0.2-2l0,0l0.2-1.4l0,0l0.2-1h0l0,0
	l0.2-1.1l0,0.1l0.2-1.1l0,0l0,0.1l0.2-0.9l0-0.1l0.2-0.9l0,0.1l0.2-1h0l0-0.1l0,0.2l0.2-1.1l0,0l0,0.2l0.2-0.3l0,0l0-0.1l0,0
	l0.2-1.2l0-0.1l0.2-1.9l0,0l0.2-2.9l0-0.1l0.2-82.2l0,14.1l0,11.2l0.1,83l0.1-1.1l0-0.1l0.2-3.6l0-0.1l0.2-2.7h0l0-0.2l0.2-2.2l0,0
	l0.2-1.3l0,0l0.2-1.6h0l0,0l0.2-1l0,0l0.2-1.4h0l0-0.1l0.2-1.1l0,0l0.2-1h0l0-0.1l0,0l0.2-1l0-0.1l0.2-1h0l0-0.1l0,0.1l0.2-0.7h0
	l0,0l0,0.1l0.2-0.4l0,0.1l0,0l0,0l0.2-0.2h0.1l0,0.1l0.1-0.3h0.2l0,0.1l0.1,0.3l0.1-0.6l0-0.1l0,0.1l0.2-0.5l0,0.1l0-0.1l0,0.1
	l0.2-1.3h0h0l0.2-2.2l0,0l0.2-1.5h0l0.2-5l0-2.5l0-74.5l0.2,108.9l0-0.2l0,0l0.2-4.2l0-0.2l0.2-2.9l0-0.1l0.2-1.9l0,0l0-0.1l0.2-1.7
	l0,0l0.2-1.3h0l0-0.1l0.2-1.7l0,0l0,0l0.2-1.3l0,0l0.2-1.2l0,0l0.2-0.5l0,0l0,0l0.2-0.6l0,0l0,0l0.2-0.7l0,0.1l0,0l0,0.1l0.2-0.6
	l0,0.1l0-0.1l0,0.1l0.2-0.9h0l0.2-1.2l0,0l0.2-1.4l0,0l0,0.1l0.2-1.4h0l0,0l0.2-1.3h0l0.2-3.5l0-0.1l0.1-80.9l0.2,108.4l0,0.1l0,0.2
	l0.2-3.6l0-0.2l0.2-3.3l0-0.1l0.2-2.3l0,0l0.2-2h0l0.2-1.4l0-0.1l0,0l0.2-1.1l0,0.1l0.2-1.3l0-0.1l0.2-1.3l0-0.1l0.2-1.4l0,0
	l0.2-1.3l0,0l0.2-1.1l0-0.1l0.2-1.3h0h0l0.2-0.3l0.1,0.1l0,0l0,0.1l0.2-0.7h0l0,0l0.1,0.1l0.1-0.3l0,0.1l0-0.1l0,0.1l0.1-0.4l0.1,0
	l0,0l0.1,0.1l0.1-0.4l0,0l0,0l0.1-0.5l0.1,0.2l0-0.1l0.2,0.5l0-0.1h0l0.1,0.1l0.2-1h0l0,0.1l0-0.2l0.2,0.7l0-0.2l0,0.1l0,0.1
	l0.2-0.7l0,0l0,0l0.1-0.4l0.1,0.6l0,0l0-0.1l0.2,0.4l0-0.2h0l0,0.1l0.2-0.7l0,0l0-0.1l0,0l0.2-1.2l0,0.1l0-0.1l0.2-1.4l0-0.1l0.2-4
	l0-0.3l0.1-74.9l0.2,107.1l0,0l0.2-3.9l0-0.2l0.2-2.9l0,0l0.2-2.4l0,0l0.2-1.5l0,0.1l0-0.1l0.2-1.5l0,0l0.2-1.3l0,0l0.2-1.2l0,0
	l0-0.1l0,0.1l0.2-0.9l0,0l0,0l0.2-0.9l0,0l0.2-1.2l0-0.1l0.2-0.7l0.1,0.1l0-0.1l0,0.1l0.2-0.4l0,0l0,0l0,0l0.2-0.5h0.1l0-0.1l0,0.1
	l0.2-0.9l0,0l0-0.1l0,0.1l0.2-0.9l0,0l0.2-1.8l0,0.1l0-0.1l0.2-1.2l0-0.2l0,0l0.2-3.2l0-0.2l0.1-80.9l0.1,108.3l0,0.5l0,0.7l0.2-3.4
	l0-0.1l0.2-3.3l0-0.1l0.2-2.3l0,0l0-0.1l0.2-1.6l0,0l0,0l0.2-1.4l0,0l0.2-1.3l0,0.1l0-0.1l0.2-1.4l0,0l0,0l0.2-1l0,0h0l0.2-0.8
	l0.1,0l0,0l0.2-0.9h0l0,0l0,0l0.2-0.6l0,0l0,0l0.2-1.1l0,0l0.2-0.8h0l0-0.1l0.2-0.9l0.1,0.1l0-0.1l0.2-1.1l0,0.1l0.2-1.2l0,0
	l0.2-1.6l0,0.1l0,0l0.2-1.8l0,0l0-0.1l0.2-1.3l0-0.1l0.2-81.2l0,20.1l0,11.3l0.2,77.4l0.1-1.4l0-0.1l0.2-3.7l0-0.2l0.2-2.8l0-0.1
	l0,0l0.2-2.4l0,0l0,0l0.2-1.6l0,0l0.2-1.6l0,0l0,0l0.2-1.4l0,0.1l0-0.1l0.2-1.1l0,0l0,0l0.2-0.9l0,0l0-0.1l0,0l0.2-0.6l0,0.1l0,0.1
	l0.2-1.3l0,0.1l0,0l0.2-0.7l0,0l0,0.1l0.1-0.4L149,93l0-0.2l0,0.1l0.2-0.9h0l0,0l0.2-0.5l0,0l0,0l0.2-0.6l0,0l0,0.2l0.2-0.6l0,0.1
	l0.2-0.9l0,0l0,0.1l0.2-1.1l0-0.1l0,0l0.2-0.6l0,0l0,0.1l0.2-1.9l0-0.1l0.2-1.8h0l0-0.1l0.1-80l0.1,98.4l0,2.3l0.1,7.4l0.2-2.2
	l0-0.1l0.2-3.5l0,0l0-0.2l0.2-2.4l0,0l0.2-1.8l0-0.1l0.2-1.3l0-0.1l0.2-1.1l0,0.1l0-0.1l0.2-0.9l0,0l0.2-1l0,0l0,0l0.2-1l0,0l0-0.1
	l0,0l0.2-0.8l0,0l0,0l0.2-0.7h0l0-0.1l0.2-1.2l0,0l0.2-1.2l0,0l0,0.1l0.2-0.7h0l0,0l0.2-0.5l0,0l0,0l0,0l0.2-1.1l0,0.1l0,0l0.2-0.9
	l0,0l0-0.1l0.2-1.3l0-0.1l0.2-2.1l0,0.1l0.2-3.3l0-0.1l0.1-78.9l0.1,107.3l0,0.4l0,0.5l0.2-3.4l0-0.1l0.2-3.3l0-0.1l0.2-2.3l0,0
	l0-0.2l0.2-1.7l0,0.1l0-0.1l0,0l0.2-1.2l0,0l0,0l0.2-1.7l0,0l0,0l0.2-1.3l0,0l0,0l0.2-1.3l0,0.1l0,0l0.2-0.9l0-0.1l0.2-0.6l0-0.1
	l0,0.1l0.2-0.8h0l0,0l0.2-1.3h0l0,0l0,0l0.2-0.8l0,0l0,0l0.2-0.7l0-0.1l0.1,0.2l0.1-0.5l0,0.1h0l0.1,0l0.2-0.6l0,0l0.2-0.8l0,0.1
	l0,0l0.2-0.6l0.1,0l0,0l0.2-0.6l0,0.1l0,0l0,0.2l0.2-0.3l0,0.2l0,0l0,0.1l0.2-0.9l0,0l0-0.2l0,0.1l0.2-1.1l0,0.1l0.2-2.4l0,0
	l0.2-79.4l0.1,74.8l0,7l0.1,25.8l0.1-2.3l0-0.1l0.2-3.1l0-0.2l0.2-2.1h0l0.2-1.8l0,0l0.2-1.2l0,0l0.2-1.2l0,0l0.2-1.1l0,0.1l0-0.2
	l0.2-0.9l0,0.1l0.2-1h0l0,0l0,0l0.2-1l0,0.1l0.2-1.1l0-0.1l0.2-0.8l0,0l0.2-1l0,0.1l0-0.1l0,0l0.2-1l0,0l0-0.1l0,0l0.2-0.9l0,0
	l0,0.1l0.2-1l0-0.1l0.2-0.8l0,0h0l0.2-1.2l0,0l0-0.1l0.2-1.1l0,0l0-0.1l0,0l0.2-2.5l0-0.1l0.1-80.5l0.1,102.7l0,1.5l0.1,4.1l0.2-2.8
	l0-0.2l0.2-3.4l0-0.1l0.2-2.2l0,0.1l0.2-1.9h0l0,0l0.2-1.3l0-0.2l0.2-1.2l0,0l0-0.1l0,0.1l0.2-1.4l0-0.1l0.2-0.8h0l0-0.1l0,0.1
	l0.2-0.9l0,0.1l0-0.2l0,0.1l0.2-0.7l0,0.1l0,0.1l0.2-0.8l0,0l0-0.2l0,0.1l0.2-0.8l0,0l0,0.1l0.2-1.3h0l0.2-0.9l0,0l0-0.1l0,0
	l0.2-1.5l0,0.1l0,0l0.2-1.1l0,0l0.2-1.3l0,0l0.2-0.9l0-0.2l0,0.1l0.2-1.5h0L173,3.9l0,2.9l0.2,105.1l0.1-0.7l0-0.1l0.2-3.9h0l0.2-3
	l0-0.1l0.2-2.1l0,0l0.2-1.8h0l0-0.1l0.2-1.3l0,0l0-0.1l0,0.1l0.2-0.9h0l0,0l0.2-1l0,0l0.2-1.3h0l0,0l0.2-1.2l0,0l0.2-0.9l0,0.1l0,0
	l0.2-0.6l0,0l0,0.1l0.2-0.9l0,0.1l0,0l0.2-0.9h0l0-0.2l0,0l0.2-1.1l0,0l0,0l0.2-1.3l0,0.1l0.2-0.8l0,0l0,0l0.2-1h0l0-0.2l0,0
	l0.2-2.2l0,0L178,3.4l0,11.7l0,10.1l0.2,86.4l0.1-1.1l0-0.1l0.2-3.4l0,0l0-0.1l0.2-2.5l0,0l0-0.1l0.2-2.2l0,0l0.2-1.1h0l0-0.1l0,0
	l0.2-1.4l0,0l0,0l0.2-1.3l0,0l0.2-0.9h0h0l0.2-1.1l0,0l0,0l0.2-0.8l0,0.1l0,0l0,0l0.2-0.7l0-0.1l0,0l0.2-1.1l0-0.1l0.2-0.6h0l0,0
	l0.2-1l0,0l0.2-0.4h0l0-0.1l0-0.1l0.2,0.3l0-0.2l0-0.1l0,0l0.2-0.6l0,0.1h0l0,0.1l0.2-0.6l0,0l0,0l0,0l0.2-1l0,0l0,0l0.2-1.5l0-0.1
	l0,0l0.2-2.1h0l0.2-32.3l0-24.7l0-24.5l0.2,107.6l0-0.4l0-0.1l0.2-3.6l0-0.2l0.2-3.1l0-0.1l0,0.1l0.2-2l0,0.1l0,0l0.2-1.5l0,0.1
	l0-0.1l0,0l0.2-1.2l0,0l0.2-1.4l0,0l0,0l0.2-1h0l0,0l0.2-1.2l0,0l0.2-1h0l0-0.1l0,0.1l0.1-0.5l0.1,0.2l0,0l0,0l0.2-0.8l0-0.1l0,0.1
	l0.2-0.8l0,0.1l0-0.2l0,0l0.2-1.1l0,0l0,0l0.2-0.4l0,0l0,0.1l0.2-1.1h0l0.2-0.5l0.1,0.2h0l0.1,0.2l0.1-0.1l0-0.1l0,0.1l0.2-0.7
	l0,0.1l0-0.1l0,0.2l0.2-0.4l0,0.1l0,0l0.2-1.1l0,0.1l0-0.1l0,0.1l0.2-1l0,0l0.2-1.1h0l0.2-2.2l0-0.2l0.2-80.5l0,49.9l0,10.6
	l0.1,47.7l0.1-1.4l0-0.2l0.2-3.3l0-0.1l0.2-2.8l0,0l0,0l0.2-1.5l0-0.1l0.2-1.2l0-0.2l0,0l0.2-1.4l0,0l0,0l0.2-1.2h0l0.2-1.2l0,0
	l0.2-1.3l0-0.1l0,0.2l0.2-1h0l0,0l0.2-1.4l0,0l0,0.1l0.2-1.5l0,0.1l0-0.1l0.2-1.4l0,0l0.2-1l0,0.1l0-0.1l0.2-1.1l0,0l0,0.1l0.2-0.8
	l0-0.1l0.2-1.4h0l0.2-2.4l0-0.2l0.1-80l0.1,103l0,1.2l0.1,3.6l0.2-2.7l0-0.1l0.2-3.2l0-0.2l0.2-2.4l0,0l0.2-2l0,0l0.2-2.1l0,0
	l0.2-1.3l0,0l0,0l0.2-1.2l0-0.1l0,0l0.2-0.7l0,0l0.2-1.2l0,0l0.2-0.5h0l0,0.1l0.2-0.7l0,0l0.2-0.4l0.1,0h0l0.2-0.6l0,0l0,0.1
	l0.2-0.7l0.1,0.2l0,0l0,0l0.2-0.4h0l0,0l0.1,0.3l0.1-0.1l0,0l0,0l0.2-0.7l0,0.1h0l0.1,0.1l0.1-0.3l0,0l0-0.1l0.2-0.6l0,0.1l0.2-0.7
	l0.1,0l0,0l0.2-0.9l0,0l0.2-1.1l0,0h0l0.2-2.3l0,0.1L200.5,8l0-4.3l0.2,107.9l0.1-0.2l0-0.3l0.2-3.8l0-0.2l0.2-2.6l0-0.1l0,0
	l0.2-2.1l0,0l0.2-1.6h0l0,0l0.2-1.3h0l0-0.1l0,0.1l0.2-1.1l0,0.1l0.2-1.3h0h0l0.2-1.1h0l0.2-1.2h0l0,0.1l0.2-1l0,0l0.2-0.8l0,0l0,0
	l0.1,0l0.2-0.5l0,0L204,91l0,0l0.2-1.3l0,0l0,0.2l0.2-0.7l0,0l0,0l0.2-2.2l0-0.1l0.2-64.6l0-14l0-5.2l0.2,109.2l0-0.4l0-0.1l0.2-3.8
	l0-0.1l0.2-3l0,0l0,0.1l0.2-2.3l0-0.1l0.2-1.4l0,0l0.2-1.2l0-0.1l0.2-1.1h0l0-0.1l0.2-0.8l0,0l0,0l0.2-1.2l0,0l0-0.1l0.2-0.9l0,0
	l0,0l0.2-1.2h0l0,0l0.2-1l0,0l0,0l0.2-1l0,0.1l0,0l0.2-1l0,0h0l0.2-1.2l0,0l0,0l0.2-0.7l0,0h0l0.1,0.3l0.1-0.4l0.1,0l0,0l0.2-0.5
	l0,0.1l0.2-0.9l0-0.1l0,0l0.2-0.7l0,0l0.2-1.3l0,0l0.2-3l0-0.2l0.1-79.4l0.1,106.1l0,0.6l0.1,1.2l0.2-2.5l0-0.1l0.2-3.2h0l0.2-2.3
	l0,0.1l0-0.1l0.2-1.8l0,0l0,0l0.2-1.2l0,0l0.2-1.5l0-0.1l0,0.1l0.2-1.3l0,0l0.2-1l0,0l0.2-1l0,0l0-0.1l0.2-1.1l0,0.1l0,0l0,0.1
	l0.2-0.6l0-0.1l0,0.1l0.2-0.7l0,0l0.2-1.2l0,0.2l0.2-0.8l0,0.1l0,0l0.2-1.6l0,0l0,0l0.2-1.4l0,0l0.2-1.6l0-0.1l0,0l0.2-1.5l0,0.3
	l0-0.1l0.1,0.1l0.2-1.6l0-0.1l0.2-80.6l0,9.3l0,9.3l0.2,89.3l0.1-0.8l0-0.2l0.2-3.5l0-0.1l0.2-2.9h0l0.2-2.2h0l0,0l0.2-1.7l0,0
	l0.2-1.1l0,0l0-0.2l0.2-1.1l0,0l0-0.1l0,0.1l0.2-0.6l0,0l0.2-0.8l0,0.1l0.2-1.1l0,0l0.2-1.1l0-0.1l0,0l0.2-1h0l0,0l0.2-1.3l0,0.1
	l0,0l0.2-1l0,0l0-0.1l0,0.1l0.2-0.8l0.1,0l0,0l0.2-1.9h0l0.2-2.4l0-0.1l0.2-82.4l0,0.1l0,5.4l0.2,101.9l0.1-0.6l0,0l0.2-3.4l0,0
	l0.2-2.3l0,0l0.2-1.8l0,0l0.2-1.9l0-0.1l0.2-1.3l0-0.1l0,0.1l0.2-0.7l0,0.1l0,0l0.2-1h0l0,0l0.2-0.8l0-0.1l0,0.1l0.2-1.1l0,0l0,0
	l0.2-0.8l0,0l0,0.1l0.2-0.7l0-0.1l0,0.1l0.2-0.5h0l0,0l0.2-0.9l0,0l0,0l0.2-0.8l0,0.2l0-0.1l0,0l0.2-1.2h0l0.2-1.2l0,0.1l0,0
	l0.2-1.7l0-0.1l0.2-2.1h0l0.2-3.1l0-0.2l0.1-79.7l0.2,107.8l0,0.1l0,0.2l0.2-2.7l0-0.2l0.2-3l0,0l0.2-2.2l0-0.1l0.2-1.9h0l0,0
	l0.2-1.3l0,0l0,0l0.2-1.2l0,0.1l0.2-1.3h0l0.2-1.1h0l0,0l0,0.1l0.2-0.6l0,0l0,0.1l0.2-0.8l0-0.1l0,0l0.2-0.7l0,0l0,0.1l0.2-0.9l0,0
	l0.2-0.8h0l0,0.1l0.2-1.1h0h0l0.2-1l0,0.1l0,0l0.2-0.8l0,0.1l0-0.1l0.2-1.5l0-0.1l0.2-2.9l0-0.2l0.2-82.4l0.1,84.3l0,5.1l0.1,18.8
	l0.1-1.5l0,0l0.2-3.3l0-0.1l0.2-2.5l0,0l0,0l0.2-1.7h0l0-0.1l0.2-1.3h0l0,0l0.2-1.2l0,0l0-0.1l0.2-1.3l0,0l0-0.2l0,0.1l0.2-0.9l0,0
	l0.2-1.1l0-0.1l0.2-0.8l0,0.1l0.2-1h0l0.1,0.1l0.2-0.8h0l0.2-1.3h0l0,0l0.2-1.4l0,0l0-0.2l0.2-1.2h0l0,0l0.1,0.1l0.2-0.7h0l0.2-1.5
	l0,0l0.2-1.6l0,0l0.2-2.5l0,0l0-0.1l0.1-79.3l0.1,103.4l0,1.1l0.1,3.3l0.2-2.5l0-0.1l0.2-2.8l0,0l0.2-2.2l0,0l0-0.1l0.2-1.8l0,0
	l0-0.1l0.2-1h0l0-0.1l0.2-1.1h0l0,0.1l0.2-1l0,0.1l0.2-1h0l0,0l0.2-1l0,0l0-0.2l0,0.1l0.2-1.1l0,0l0,0l0,0L238,95l0,0.1l0,0l0,0
	l0.2-0.5l0,0l0-0.1l0,0.1l0.2-0.8l0,0l0,0l0.1,0.1l0.1-0.4l0.1,0.1l0,0l0,0.1l0.2-0.8h0l0,0.1l0.1-0.3l0.2,0.1l0,0l0,0l0.2-0.6
	l0,0.1h0l0,0.1l0.2-0.3l0,0l0,0.1l0.2-0.7l0.1,0.1l0,0l0,0l0.2-0.8l0-0.1l0,0l0.2-1.2h0l0-0.1l0.2-1.5l0,0l0.2-1.8h0l0,0l0.2-1.9h0
	l0-0.1l0.2-80.1l0.1,78.6l0,6.1l0.1,22.5l0.1-2l0-0.1l0.2-3.8l0-0.1l0.2-2.2h0h0l0.2-1.7l0-0.1l0,0l0.2-1.1l0,0h0l0.2-1.3l0,0l0,0
	l0.2-0.9l0,0l0.2-0.9h0l0,0l0.2-0.5l0,0.1l0-0.2l0,0l0.2-0.6l0-0.1l0,0l0.2-0.4h0l0.2-0.6h0.1l0-0.1l0,0.1l0.2-1.2l0-0.1l0.2-1.3
	l0,0l0.2-1.3h0.1l0,0l0,0l0.2-0.9l0-0.1l0,0l0.2-2.1h0h0l0.2-1.8l0-0.1l0.2-82.8l0,32.8l0,11.3l0.1,64.1l0.1-1.4l0-0.1l0.2-3.8h0
	l0.2-2.7l0-0.1l0.2-1.7l0,0l0.2-1.5l0-0.1l0,0.1l0.2-1.6h0l0-0.1l0,0l0.2-1.3l0,0.1l0-0.1l0.2-1.2l0,0.1l0,0l0,0.1l0.2-0.5l0,0.1
	l0,0.1l0.2-0.9h0l0,0.1l0.2-0.6l0,0.1l0,0l0,0.2l0.1-0.7h0.1l0,0.1l0,0l0.2-0.5l0,0l0,0l0,0l0.2-0.7l0,0l0,0l0.2-0.6h0l0-0.1l0,0.1
	l0.2-0.8l0,0.1l0,0l0.2-1l0,0l0,0.1l0.2-0.8h0l0,0L251,89l0-0.1l0,0l0.2-1.2h0l0,0.1l0.2-0.5l0,0h0l0,0l0.2-1.4l0,0l0,0l0,0l0.2-1.8
	l0,0.1l0,0l0.2-2.4l0,0l0.1-76.7l0.1,104.1l0,0.6l0.1,2l0.2-3h0l0.2-3.3l0-0.2l0.2-2.2l0,0l0.2-1.8l0,0l0,0l0.2-1.1l0,0l0.2-1.2l0,0
	l0-0.1l0,0l0.2-1l0-0.1l0.2-0.7l0,0l0-0.1l0.2-1.1l0-0.1l0,0l0.2-1.2l0,0.1l0.2-1.4l0,0.1l0.2-1.2l0,0l0.2-0.8l0,0.1l0-0.1l0,0
	l0.2-1.2h0l0.2-1.2l0,0.1l0,0l0,0.1l0.2-0.8l0,0l0.2-0.9l0,0l0.2-0.9l0.1,0.2h0l0.2-0.8l0,0l0,0l0.1-0.6h0.1l0,0l0.1,0l0.1,0.3
	l0.1-0.2l0-0.1l0,0.2l0.2-2.4h0l0-0.2l0.2-78.2l0.1,80.4l0,5.5l0.1,20.7l0.1-1.5l0-0.2l0.2-3.6l0-0.2l0,0l0.2-2.3l0,0l0-0.1l0,0.1
	l0.2-1.7l0-0.1l0,0.1l0.2-1.5h0l0,0l0.2-1.6l0,0l0.2-1.1l0,0l0-0.1l0,0.1l0.2-0.9h0l0,0l0,0l0.2-1h0l0.2-0.9l0,0.1l0-0.2l0.2-0.9
	l0,0l0.2-1.2l0,0.1l0.2-0.7l0,0l0.2-1.5l0,0l0.2-1.5l0,0l0,0l0,0.1l0.2-1l0-0.1l0.2-0.5l0-0.1l0.2-1.7l0-0.2l0.2-4.1l0-0.5l0.1-77.3
	l0.2,107.2l0,0.2l0.2-3.5l0-0.1l0.2-2.7l0,0l0-0.1l0.2-2l0,0l0.2-1.8h0l0,0l0.2-1.1h0l0,0l0.2-1.2l0-0.1l0,0l0.2-1l0,0l0,0.1
	l0.2-0.9l0,0h0l0.2-0.8l0-0.1l0.2-0.9l0,0.1l0,0l0,0l0.2-1.1l0,0l0.2-1.1l0,0l0,0l0.2-1.3l0-0.1l0.2-1.3l0,0.1l0,0l0.1,0.1l0.2-0.6
	l0,0.1l0-0.1l0,0l0.2-0.7l0,0l0,0l0.2-1.3l0,0.1l0.2-1.6l0.1,0.1l0,0l0.2-2.7l0-0.1l0.1-79.9l0.1,102.4l0,1.3l0.1,3.8l0.2-2.1l0,0
	l0.2-2.9l0-0.1l0.2-2.3h0l0,0l0.2-1.8h0l0-0.1l0.2-1.4l0-0.1l0.2-1.3l0,0.1l0.2-1.1l0,0l0-0.1l0.2-0.7l0,0l0,0l0.2-0.6l0,0.1l0,0
	l0.2-0.6h0l0,0l0.2-0.7l0.1,0l0,0l0,0.1l0.2-0.5l0,0l0-0.2l0,0l0.2-0.8l0,0l0.1,0.1l0.1-0.5h0l0,0l0.2-0.6l0.1,0l0,0.1l0.2-1h0l0,0
	l0,0l0.2-0.8l0,0.1h0l0.2-1.2l0-0.1l0,0.1l0.2-0.8l0,0l0,0l0,0l0.2-0.9l0,0l0-0.1l0,0.1l0.2-1.2l0,0.1l0,0l0.2-1.5l0,0L274,82l0-0.3
	l0.1-77.4l0.2,107.1l0,0.1l0,0.2l0.2-3.3l0-0.1l0.2-3l0-0.1l0.2-2.3l0-0.1l0,0l0.2-1.7l0,0l0-0.1l0,0l0.2-1.3l0,0l0,0l0.2-1.4l0,0
	l0,0l0.2-1l0,0l0-0.1l0.2-1l0,0l0,0l0.2-0.6l0,0.1l0,0l0.2-0.7l0-0.1l0.2-0.7l0-0.1l0.2-0.7h0l0.2-0.6l0,0.1l0.2-0.6l0-0.1l0,0
	l0.2-0.6h0.1l0,0.1l0.1-0.4l0.1,0.3l0,0l0,0.1l0.2-0.9l0,0l0.2-0.7l0,0l0.2-1.1l0,0l0-0.1l0,0.1l0.2-0.7l0,0.1l0,0l0,0l0.2-0.9
	l0-0.1l0,0.1l0.2-1.1l0,0.1l0.2-2l0,0l0.1-81.1l0.1,99l0,2.2l0.1,6.6l0.2-1.7l0-0.1l0.2-3l0,0l0,0l0.2-2.4h0l0.2-1.5l0-0.1l0,0
	l0.2-1.6h0l0.2-1l0,0l0.2-1.6l0,0.1l0.2-1.4l0,0.1l0.2-1.2l0,0l0-0.1l0.2-1.2h0L283,94l0,0.1l0-0.1l0,0.1l0.2-0.4h0h0l0.2-0.5l0,0.1
	l0-0.1l0,0.1l0.2-1.2l0,0.1L284,91l0,0l0,0l0.2-0.9l0,0h0l0.2-0.9l0,0l0.2-1.2l0-0.1l0.2-1.4l0,0l0.2-1.9l0-0.1l0.2-81.3l0.1,68.5
	l0,7.9l0.1,32.2l0.1-1.6l0-0.2l0.2-3.4l0-0.1l0.2-2.5l0-0.1l0.2-2.3l0,0l0.2-1.3l0-0.1l0,0.1l0.2-1.5h0l0-0.1l0.2-1.3l0,0l0-0.1
	l0.2-1.3h0l0-0.1l0.2-1l0,0.1l0.2-0.9l0,0.1l0,0l0.2-1l0,0h0l0.2-0.7l0.1,0l0,0l0,0l0.2-0.7l0-0.2l0.2-0.4l0,0h0l0.1,0.1l0.1-0.3h0
	l0-0.1l0,0l0.2-0.4h0l0,0l0.2-1.1l0,0L290,88l0,0.1l0.2-1.5l0,0l0-0.1l0,0l0.2-2.4l0,0l0.1-80.8l0.1,105.3l0,0.8l0.1,2.1l0.2-2.4
	l0-0.1l0.2-2.7l0-0.1l0.2-2.6l0-0.1l0,0l0.2-1.9h0l0-0.1l0.2-1.2h0l0-0.1l0.2-1.4l0,0l0.2-0.9l0,0.1l0.2-1.1l0,0l0,0l0.2-0.8l0-0.1
	l0,0l0.2-0.9l0,0l0,0l0,0l0.2-1.3l0,0l0,0l0.2-0.9h0l0-0.1l0.2-1.2l0,0l0,0.1l0.2-1l0,0l0-0.1l0,0l0.2-0.6l0,0.1l0-0.1l0,0l0.2-0.7
	l0.1,0l0,0l0.1-0.4l0.2,0.3l0,0l0.2-0.7h0l0,0l0.2-0.6l0,0l0,0l0,0l0.2-1.6l0-0.1l0,0l0.2-1.9l0-0.3l0.2-80.1l0.1,63.8l0,8.3l0.1,35
	l0.1-1.2l0-0.1l0.2-3.6l0-0.1l0.2-2.6l0-0.1l0.2-2l0,0.1l0.2-1.5l0,0.1l0-0.2l0.2-1l0,0l0-0.1l0.2-1.2l0,0l0.2-0.9l0,0l0.2-1.3
	l0,0.1l0.2-0.9l0,0.1L299,94h0l0,0.1l0.2-0.8l0,0l0.2-0.9l0,0.1l0-0.1l0,0.1l0.2-1.1l0,0l0,0.1l0.2-0.9l0,0l0,0l0.2-0.6l0,0.1
	l0.2-0.8l0,0.1l0-0.1l0.2-1.4l0,0l0.2-1.3l0,0l0,0.1l0.1,0.1l0.2-0.7l0,0.1l0-0.1l0,0l0.2-2.8l0-0.3l0.1-79l0.1,105.4l0,0.4l0.1,0.8
	l0.2-2.4l0-0.1l0.2-2.8l0-0.1l0.2-2.3l0,0l0.2-1.8h0l0.2-1.1l0,0l0-0.1l0.2-1.4l0,0l0,0l0.2-1.5l0-0.1l0.2-1.1l0,0l0,0.1l0.2-1l0,0
	l0.2-1.2l0,0l0.2-1h0l0,0l0.2-0.7l0,0.1l0,0l0,0.1l0.2-0.5l0.1,0l0,0.1l0,0.1l0.2-0.8l0,0l0.2-1l0,0l0,0l0.2-1.1l0,0l0-0.1L306,88
	l0,0.1l0-0.2l0,0l0.2-1.6l0,0l0-0.1l0.2-1.6l0,0l0,0l0.2-2.7l0-0.1l0.1-77.7L307,108l0,0.9l0.1,2.3l0.2-2.3l0-0.1l0.2-2.9l0,0l0.2-2
	l0,0.1l0-0.2l0.2-1.2l0-0.1l0,0.1l0.2-1.6l0-0.1l0,0l0.2-1.3l0-0.1l0,0.1l0.2-0.9h0l0,0l0.2-1.1l0-0.1l0.2-0.8l0,0l0.2-1.2l0,0.1
	l0-0.1l0,0l0.2-1.1l0,0.1l0,0l0.2-1.1l0,0.1l0-0.1l0,0.1l0.2-0.6l0,0l0,0l0,0.1l0.2-0.7h0l0,0l0.2-0.7h0l0-0.1l0,0.1l0.2-1.2l0,0
	l0,0l0.2-1.4l0,0.1l0,0l0.2-2.1h0l0-0.1l0.2-5l0-1l0-78.2l0.2,107.7l0,0l0,0l0.2-3.4l0-0.1l0.2-2.6l0-0.1l0.2-2.4l0,0l0.2-1.6l0,0
	l0.2-1.6h0l0,0.1l0.2-1.3l0,0l0,0.1l0.2-1.2l0-0.1l0,0l0.2-1.4h0l0-0.1l0,0l0.2-1.4l0-0.1l0,0l0.2-1.3l0-0.1l0,0.1l0.2-1.1l0-0.1
	l0.2-0.8h0l0,0l0.2-1.3l0,0.1l0,0l0.2-1.3l0-0.1l0.2-1.3l0-0.1l0,0l0.2-1.1l0,0.1l0,0l0.2-3.3l0-0.4l0.1-77.5l0.1,104.8l0,0.3
	l0.1,1.5l0.2-2.8l0-0.1l0.2-2.8l0,0l0.2-2.3l0,0l0.2-1.6l0,0l0-0.1l0,0l0.2-1.3h0l0,0.1l0.2-1.3l0,0l0,0l0.2-1.2l0,0.1l0-0.1l0,0
	l0.2-1.3h0l0-0.1l0.2-0.9l0-0.1l0.2-1.4l0,0h0l0.2-1.3l0,0.1l0-0.1l0,0l0.2-1l0,0.1l0.2-1.3l0,0.1h0l0,0l0.2-1.3l0,0.1l0-0.1
	l0.2-0.7l0.1,0l0,0l0.2-1.9l0-0.1l0.2-4.6l0-0.5l0.1-77.3l0.2,106.7l0,0l0,0.1l0.2-2.9l0,0l0.2-3.1l0,0l0.2-1.8l0,0l0.2-1.9l0,0l0,0
	l0,0.1l0.2-1l0,0.1l0-0.1l0.2-1l0,0l0-0.1l0.2-1.2l0-0.1l0,0l0.2-0.9l0,0l0.2-0.7l0-0.1l0.2-0.9h0l0,0.1l0.2-0.4l0,0l0,0l0,0.1
	l0.2-0.5l0,0l0,0l0,0l0.2-0.4l0.1,0.1l0,0l0,0l0.2-0.7l0-0.1l0,0.1l0.2-0.9l0,0l0-0.2l0.2-0.9l0-0.1l0,0.1l0.2-1l0,0l0.2-1.3h0
	l0.2-1.6l0,0l0,0l0.2-2.2l0-0.1l0.2-81.3l0,1.9l0,5.8l0.2,99.6l0.1-0.4l0-0.2l0.2-3.2l0-0.1l0.2-2.7l0-0.1l0.2-1.8l0-0.1l0.2-1.5
	l0,0l0.2-1.4l0,0.1l0-0.1l0.2-1.2h0l0,0l0.2-0.9l0,0.1l0-0.1l0,0l0.2-1.1l0,0l0-0.1l0.2-1h0l0,0l0.2-0.7l0,0.1l0-0.1l0,0l0.2-0.6h0
	l0,0l0,0l0.2-0.4l0,0h0l0,0.1l0.2-0.6l0.1,0h0l0,0l0.2-0.7l0,0h0l0.2-1l0,0.1l0-0.1l0,0l0.2-1.4l0,0l0,0l0.2-0.8l0,0l0-0.1l0,0
	l0.2-1l0,0l0,0l0.2-1l0.1,0l0,0l0.1,0.1l0.2-0.5l0,0l0-0.1l0.2-1.3l0,0.1l0-0.1l0-0.3l0.1,0.7l0.1-0.5l0,0.1l0.2-0.8l0,0.1l0,0.1
	l0.1,0.5l0.1-0.4l0-0.2l0.1,0l0.1-0.3h0l0,0l0.1,0.2l0.1-0.5l0,0l0.1-0.2l0.2,0.8l0-0.1l0,0.1l0.2,0.5l0-0.1l0.1,0.2l0.1-0.9l0,0
	l0.1-0.1l0.2,0.7l0,0l0.1,0.4l0.2-0.5l0,0.1l0,0l0.2,0.4l0.1-0.1l0,0l0,0l0.1,0.9l0.1-0.1l0-0.1l0-0.1l0.2,1.4h0l0.1,0l0.1,0.4
	l0.1-0.1l0,0l0-0.1l0.2,0.3l0.1-0.1l0,0l0.2,0.7l0,0l0,0.1l0,0l0.2,0.5l0,0l0,0l0.1,0.1l0.2-0.3l0,0l0,0l0,0.2l0.2-0.7l0,0l0,0
	l0.2-1.2l0,0.1l0-0.1l0,0l0.2-0.4l0,0.1l0,0l0.2-1.5l0-0.1l0.2-1.3l0,0l0,0l0.2-3l0-0.1l0.1-75.1l0.2,103.7l0,0.3l0,0.9l0.2-2.3
	l0-0.2l0.2-2.9l0-0.1l0.2-1.9l0,0l0-0.1l0.2-1.7l0-0.1l0.2-1.4l0,0l0.2-1.1l0,0l0,0l0.2-0.8h0l0.2-0.9l0,0l0.2-1.5l0,0l0,0l0.2-0.6
	l0,0h0l0,0.1l0.2-1.1l0,0.1l0-0.1l0,0.1l0.2-0.9l0,0.1l0,0l0,0.1l0.2-0.8l0,0l0,0.1l0.2-1.2l0,0l0,0.1l0.2-1.3l0,0.1l0,0l0.2-1.6h0
	h0l0.2-1.2l0,0.1l0,0l0,0l0.2-1.2l0-0.2l0.2-3.3l0-0.2l0.1-78.8l0.2,106.3l0,0.2l0,0.2l0.2-2.8l0-0.1l0,0l0.2-2.4l0-0.1l0.2-2l0-0.1
	l0.2-1.5l0,0l0.2-1.8h0l0,0l0.2-1.3l0,0l0.2-1.3h0l0,0.1l0,0.1l0.2-0.9l0,0.1l0-0.1l0,0l0.2-0.4l0.1,0.1l0-0.1l0,0.1l0.2-0.7h0l0,0
	l0.2-1l0,0l0,0l0.2-0.9h0l0,0l0.2-0.5h0l0,0l0,0.1l0.2-0.7l0,0.2l0,0l0.2-0.8l0,0l0.2-0.5h0l0,0l0.2-0.4l0,0.2l0-0.1l0,0l0.2-0.8
	l0,0l0,0l0.2-0.4l0,0l0,0l0.2-0.5l0.1,0.3l0,0l0,0l0.1,0.5l0.1-0.2l0,0l0.2-0.9h0l0,0.1l0.2-1.3l0,0.1l0-0.1L349,87l0,0l0.2-0.8
	l0-0.1l0,0.1l0.2-1.8l0,0l0-0.3l0.2-79.6l0,19.3l0,9.7l0.2,77l0.1-0.6l0-0.2l0.2-3.2h0l0.2-2.8l0-0.2l0.2-2.1l0,0l0.2-1.6l0-0.1l0,0
	l0.2-1h0l0-0.2l0,0.1l0.2-1.4l0,0l0-0.1l0.2-1.2h0l0-0.1l0.2-1l0,0l0.2-1.3l0,0l0.2-1.2h0l0-0.1l0,0.1l0.2-1.4l0,0h0l0.2-1.1l0,0
	l0-0.2l0.2-1.3l0,0l0,0.1l0.2-1.4h0l0.2-1.7h0l0.2-8.8l0-12.7l0-60.4l0.2,106.8l0,0l0,0l0.2-2.7h0l0-0.2l0.2-3l0,0l0.2-2l0-0.1
	l0.2-1.4l0,0l0,0l0.2-1.2l0,0l0,0l0.2-1.4l0,0l0,0l0.2-0.9h0l0-0.1l0,0l0.2-1.3l0,0.1l0.2-0.7l0,0l0,0l0.2-1.3h0h0l0.2-1.2l0,0
	l0.2-0.9h0l0,0l0.2-0.7l0,0l0,0l0.2-1.2l0,0l0,0l0.2-1.5l0,0l0.2-1.3l0,0.1l0.2-1.8l0,0.1l0.1-0.6l0.1,0l0,0l0,0.1l0.2-2l0-0.1
	l0.2-2.5l0-0.3l0.1-76.8l0.2,106.1l0,0.1l0,0.2l0.2-3.1l0,0l0.2-2.8l0-0.1l0.2-1.8l0-0.1l0.2-1.4l0,0.1l0,0l0.2-1h0l0.2-1.2l0,0
	l0.2-1.3h0l0,0l0,0.1l0.2-0.8l0,0l0-0.1l0,0.1l0.2-1.1l0,0.1l0,0l0.2-1.2l0,0l0,0l0.2-1.1l0,0l0.2-0.9l0.1,0.1l0,0l0,0l0.2-0.7
	l0.1,0.1l0-0.1l0.2-0.7l0,0.1l0-0.1l0.2-0.6l0,0.1l0-0.1l0.2-1l0,0.1h0l0.2-1.3l0,0l0,0L364,88l0,0l0-0.1l0.2-1.8l0,0l0,0l0.2-2.1
	l0,0l0.2-79.5l0,21.5l0,9.8l0.2,74.7l0.1-0.7l0-0.2l0.2-3.2l0,0l0-0.2l0.2-2.3l0-0.1l0.2-1.5h0.1l0-0.1l0.2-1.5l0,0l0.2-1.3l0,0
	l0.2-1.1h0l0.2-1l0,0l0.2-1l0,0.1l0-0.1l0,0l0.2-1.2l0,0l0.2-1.3l0,0l0,0.1l0.2-1.1l0,0l0-0.1l0,0.1l0.2-0.5l0.1,0.1l0-0.1l0.1,0.1
	l0.2-0.8h0l0,0.2l0.2-1.1h0l0,0l0.2-1l0,0h0l0.2-1.5l0-0.1l0.2-0.5l0,0l0,0l0,0l0.2-0.6l0,0.1h0l0.2-0.5l0,0l0,0l0.2-0.5l0,0.1
	l0,0.1l0,0.2l0.2-0.6l0,0l0,0l0.2-1.8l0-0.1l0,0.1l0.2-2.7l0-0.1l0.1-76.8l0.1,102.2l0,0.9l0.1,2.4l0.2-2.3l0-0.1l0.2-2.6l0-0.2
	l0.2-2.3h0l0-0.1l0.2-2l0-0.1l0.2-1.5h0l0.2-1h0l0.2,19.2l0,0.3l0.2,7.2l0,0.2l0.2,3.9h0l0.2,2h0l0,0.2l0-0.1l0.2,1.2l0-0.1l0,0.1
	l0.2,0.6h0l0,0.1l0-0.1l0.2,0.7l0,0l0,0l0.2,0.4l0.1-0.1l0,0.1l0.1,0.1l0.2-0.2l0,0.1l0,0l0.1,0l0.1,0.2l0.1-0.1l0,0.1l0-0.1
	l0.2,0.3l0-0.1l0,0l0-0.2l0.2,0.3l0,0l0,0l0.2,0.3l0-0.1l0-0.1l0.1,0.1l0.1-0.3l0.1,0.1h0l0.1,0.2l0.2-0.1h0l0-0.1l0.1,0.3l0.1-0.1
	h0l0.1,0l0.1,0.2l0.1-0.1l0,0l0,0.2l0.1-0.3l0.1,0l0,0.2l0.1-0.1l0.1,0.2l0.1-0.1l0,0l0,0l0.1-0.2l0.1,0.1l0-0.1l0,0.1l0.2-0.2
	l0,0.1l0-0.1l0,0.1l0.2-0.3l0.1,0.2h0l0-0.1l0.1,0.3l0.1-0.1l0,0l0.1,0.1l0.1-0.2l0.1,0l0,0.2l0.1,0.1l0.1-0.2l0,0.1l0,0l0.1-0.2
	l0.1,0l0,0.1l0.2-0.3l0.1,0.1l0-0.1l0.1-0.1l0.1,0.2l0.1-0.1l0,0l0,0.2l0.2-0.4l0,0.1l0,0l0.1-0.2l0.1,0.2l0-0.1l0-0.1l0.1,0.2
	l0.2-0.4l0,0l0,0l0.2,0.2l0.1,0l0,0l0.1-0.1l0.2,0.3l0-0.2l0,0.1l0.1-0.1l0.1,0.3l0.1-0.1l0,0l0.2-0.3l0.1,0.1h0l0.1,0.1l0.1-0.2
	l0,0.2l0,0l0.2-0.3l0.1,0.2l0,0l0.1-0.1l0.1,0.2l0.1-0.1h0l0-0.1l0,0.2l0.2-0.1l0-0.1l0.1,0l0.1,0.2l0.1,0h0l0.1-0.2l0,0.3l0.1,0h0
	l0.1-0.1l0.1,0.2l0.1-0.1l0,0l0.1,0.2l0.1-0.3l0.1,0l0,0.1l0,0l0,0.1l0.1-0.1"/>
</svg>
