<?xml version="1.0" encoding="utf-8"?>
<!-- Generator: Adobe Illustrator 24.2.1, SVG Export Plug-In . SVG Version: 6.00 Build 0)  -->
<svg version="1.1" id="レイヤー_1" xmlns="http://www.w3.org/2000/svg" xmlns:xlink="http://www.w3.org/1999/xlink" x="0px"
	 y="0px" viewBox="0 0 139.5 115.8" style="enable-background:new 0 0 139.5 115.8;" xml:space="preserve">
<style type="text/css">
	.st0{fill:none;stroke:#0072BD;stroke-width:0.6667;stroke-linejoin:round;stroke-miterlimit:10;}
</style>
<path class="st0" d="M0.7,95.5L6.1,95v0.1l0,0l0,0l0.2-0.5l0,0v-0.1v0.1l0.2-0.8l0,0l0,0l0.1,0.1l0.1-0.4l0.1,0.1l0,0v0.1L7,92.9
	l0,0V93l0.1-0.3l0.2,0.1l0,0l0,0l0.2-0.6v0.1l0,0v0.1l0.2-0.3l0,0v0.1l0.2-0.7L8,91.6l0,0l0,0l0.2-0.8v-0.1l0,0l0.2-1.2l0,0v-0.1
	l0.2-1.5l0,0l0.2-1.8l0,0l0,0L9,84.2l0,0v-0.1L9.2,4l0.1,78.6v6.1l0.1,22.5l0.1-2v-0.1l0.2-3.8v-0.1l0.2-2.2l0,0l0,0l0.2-1.7v-0.1
	l0,0l0.2-1.1l0,0l0,0l0.2-1.3l0,0l0,0l0.2-0.9l0,0l0.2-0.9l0,0l0,0l0.2-0.5v0.1v-0.2l0,0l0.2-0.6v-0.1l0,0l0.2-0.4l0,0l0.2-0.6h0.1
	v-0.1v0.1l0.2-1.2v-0.1l0.2-1.3l0,0l0.2-1.3h0.1l0,0l0,0l0.2-0.9v-0.1l0,0l0.2-2.1l0,0l0,0l0.2-1.8v-0.1L13.3,3v32.8v11.3l0.1,64.1
	l0.1-1.4v-0.1l0.2-3.8l0,0l0.2-2.7v-0.1l0.2-1.7l0,0l0.2-1.5v-0.1v0.1l0.2-1.6l0,0v-0.1l0,0l0.2-1.3V97v-0.1l0.2-1.2v0.1l0,0v0.1
	l0.2-0.5v0.1v0.1l0.2-0.9l0,0v0.1l0.2-0.6v0.1l0,0v0.2l0.1-0.7h0.1v0.1l0,0l0.2-0.5l0,0l0,0l0,0l0.2-0.7l0,0l0,0l0.2-0.6l0,0V92v0.1
	l0.2-0.8v0.1l0,0l0.2-1l0,0v0.1l0.2-0.8l0,0l0,0l2.2-0.7v-0.1l0,0l0.2-1.2l0,0v0.1l0.2-0.5l0,0l0,0l0,0l0.2-1.4l0,0l0,0l0,0l0.2-1.8
	v0.1l0,0l0.2-2.4l0,0l0.1-76.7l0.1,104.1v0.6l0.1,2l0.2-3l0,0l0.2-3.3v-0.2l0.2-2.2l0,0l0.2-1.8l0,0l0,0l0.2-1.1l0,0l0.2-1.2l0,0
	v-0.1l0,0l0.2-1v-0.1l0.2-0.7l0,0V97l0.2-1.1v-0.1l0,0l0.2-1.2v0.1l0.2-1.4v0.1l0.2-1.2l0,0l0.2-0.8v0.1v-0.1l0,0l0.2-1.2l0,0
	l0.2-1.2v0.1l0,0v0.1l0.2-0.8l0,0l0.2-0.9l0,0l0.2-0.9l0.1,0.2l0,0l0.2-0.8l0,0l0,0l0.1-0.6h0.1l0,0h0.1l0.1,0.3l0.1-0.2v-0.1v0.2
	l0.2-2.4l0,0V83l0.2-78.2l0.1,80.4v5.5l0.1,20.7l0.1-1.5v-0.2l0.2-3.6v-0.2l0,0l0.2-2.3l0,0v-0.1v0.1l0.2-1.7v-0.1v0.1l0.2-1.5l0,0
	l0,0l0.2-1.6l0,0l0.2-1.1l0,0v-0.1v0.1l0.2-0.9l0,0l0,0l0,0l0.2-1l0,0l0.2-0.9V95v-0.2l0.2-0.9l0,0l0.2-1.2v0.1l0.2-0.7l0,0l0.2-1.5
	l0,0l0.2-1.5l0,0l0,0v0.1l0.2-1v-0.1l0.2-0.5v-0.1l0.2-1.7v-0.2l0.2-4.1V81l0.1-77.3l0.2,107.2v0.2l0.2-3.5v-0.1l0.2-2.7l0,0v-0.1
	l0.2-2l0,0l0.2-1.8l0,0l0,0l0.2-1.1l0,0l0,0l0.2-1.2v-0.1l0,0l0.2-1l0,0v0.1l0.2-0.9l0,0l0,0l0.2-0.8v-0.1l0.2-0.9V95l0,0l0,0
	l0.2-1.1l0,0l0.2-1.1l0,0l0,0l0.2-1.3v-0.1l0.2-1.3v0.1l0,0l0.1,0.1l0.2-0.6v0.1v-0.1l0,0l0.2-0.7l0,0l0,0l0.2-1.3v0.1l0.2-1.6
	l0.1,0.1l0,0l0.2-2.7v-0.1l0.1-79.9L33.6,106v1.3l0.1,3.8l0.2-2.1l0,0l0.2-2.9V106l0.2-2.3l0,0l0,0l0.2-1.8l0,0v-0.1l0.2-1.4v-0.1
	l0.2-1.3v0.1l0.2-1.1l0,0v-0.1l0.2-0.7l0,0l0,0l0.2-0.6v0.1l0,0l0.2-0.6l0,0l0,0l0.2-0.7H36l0,0v0.1l0.2-0.5l0,0v-0.2l0,0l0.2-0.8
	l0,0l0.1,0.1l0.1-0.5l0,0l0,0l0.2-0.6h0.1v0.1l0.2-1l0,0l0,0l0,0l0.2-0.8v0.1l0,0l0.2-1.2v-0.1v0.1l0.2-0.8l0,0l0,0l0,0l0.2-0.9l0,0
	v-0.1v0.1l0.2-1.2v0.1l0,0l0.2-1.5l0,0l3.8-3.9v-0.3l0.1-77.4l0.2,107.1v0.1v0.2l0.2-3.3v-0.1l0.2-3v-0.1l0.2-2.3v-0.1l0,0l0.2-1.7
	l0,0V101l0,0l0.2-1.3l0,0l0,0l0.2-1.4l0,0l0,0l0.2-1l0,0v-0.1l0.2-1l0,0l0,0l0.2-0.6v0.1l0,0l0.2-0.7v-0.1l0.2-0.7v-0.1l0.2-0.7l0,0
	l0.2-0.6v0.1l0.2-0.6v-0.1l0,0l0.2-0.6h0.1v0.1l0.1-0.4l0.1,0.3l0,0v0.1l0.2-0.9l0,0l0.2-0.7l0,0l0.2-1.1l0,0v-0.1V89l0.2-0.7v0.1
	l0,0l0,0l0.2-0.9v-0.1v0.1l0.2-1.1v0.1l0.2-2l0,0l0.1-81.1l0.1,99v2.2l0.1,6.6l0.2-1.7v-0.1l0.2-3l0,0l0,0L48,104l0,0l0.2-1.5v-0.1
	l0,0l0.2-1.6l0,0l0.2-1l0,0l0.2-1.6v0.1l0.2-1.4V97l0.2-1.2l0,0v-0.1l0.2-1.2l0,0l1.7-0.5v0.1V94v0.1l0.2-0.4l0,0l0,0l0.2-0.5v0.1
	v-0.1v0.1l0.2-1.2v0.1l0.4-1.2l0,0l0,0l0.2-0.9l0,0l0,0l0.2-0.9l0,0l0.2-1.2v-0.1l0.2-1.4l0,0l0.2-1.9v-0.1l0.2-81.3l0.1,68.5v7.9
	l0.1,32.2l0.1-1.6V110l0.2-3.4v-0.1L54,104v-0.1l0.2-2.3l0,0l0.2-1.3v-0.1v0.1l0.2-1.5l0,0v-0.1l0.2-1.3l0,0v-0.1L55,96l0,0v-0.1
	l0.2-1V95l0.2-0.9v0.1l0,0l0.2-1l0,0l0,0l0.2-0.7h0.1l0,0l0,0l0.2-0.7v-0.2l0.2-0.4l0,0l0,0l0.1,0.1l0.1-0.3l0,0v-0.1l0,0l0.2-0.4
	l0,0l0,0l0.2-1.1l0,0l1.2-1.4v0.1l0.2-1.5l0,0v-0.1l0,0l0.2-2.4l0,0l0.1-80.8l0.1,105.3v0.8l0.1,2.1l0.2-2.4V109l0.2-2.7v-0.1
	l0.2-2.6v-0.1l0,0l0.2-1.9l0,0v-0.1l0.2-1.2l0,0v-0.1l0.2-1.4l0,0l0.2-0.9V98l0.2-1.1l0,0l0,0l0.2-0.8V96l0,0l0.2-0.9l0,0l0,0l0,0
	l0.2-1.3l0,0l0,0l0.2-0.9l0,0v-0.1l0.2-1.2l0,0v0.1l0.2-1l0,0v-0.1l0,0l0.2-0.6v0.1V90l0,0l0.2-0.7h0.1l0,0l0.1-0.4l0.2,0.3l0,0
	l0.2-0.7l0,0l0,0l0.2-0.6l0,0l0,0l0,0l0.2-1.6v-0.1l0,0l0.2-1.9V84l0.2-80.1l0.1,63.8V76l0.1,35l0.1-1.2v-0.1l0.2-3.6V106l0.2-2.6
	v-0.1l0.2-2v0.1l0.2-1.5v0.1v-0.2l0.2-1l0,0v-0.1l0.2-1.2l0,0l0.2-0.9l0,0l0.2-1.3v0.1l0.2-0.9v0.1l1.6-0.6l0,0v0.1l0.2-0.8l0,0
	l0.2-0.9v0.1v-0.1v0.1l0.2-1.1l0,0v0.1l0.2-0.9l0,0l0,0l0.2-0.6v0.1l0.2-0.8v0.1v-0.1l0.2-1.4l0,0l0.2-1.3l0,0v0.1l0.1,0.1l0.2-0.7
	v0.1v-0.1l0,0l0.2-2.8V83l0.1-79l0.1,105.4v0.4l0.1,0.8l0.2-2.4v-0.1l0.2-2.8v-0.1l0.2-2.3l0,0l0.2-1.8l0,0l0.2-1.1l0,0v-0.1
	l0.2-1.4l0,0l0,0l0.2-1.5v-0.1l0.2-1.1l0,0v0.1l0.2-1l0,0l0.2-1.2l0,0l0.2-1l0,0l0,0l0.2-0.7v0.1l0,0v0.1l0.2-0.5h0.1v0.1v0.1
	l0.2-0.8l0,0l0.2-1l0,0l0,0l0.2-1.1l0,0v-0.1l1.3-0.9v0.1v-0.2l0,0l0.2-1.6l0,0v-0.1l0.2-1.6l0,0l0,0l0.2-2.7v-0.1l0.1-77.7
	L75.1,108v0.9l0.1,2.3l0.2-2.3v-0.1l0.2-2.9l0,0l0.2-2v0.1v-0.2l0.2-1.2v-0.1v0.1l0.2-1.6v-0.1l0,0l0.2-1.3v-0.1v0.1l0.2-0.9l0,0
	l0,0l0.2-1.1v-0.1l0.2-0.8l0,0l0.2-1.2v0.1v-0.1l0,0l0.2-1.1v0.1l0,0l0.2-1.1v0.1v-0.1v0.1l0.2-0.6l0,0l0,0V93l0.2-0.7l0,0l0,0
	l0.2-0.7l0,0v-0.1v0.1l0.2-1.2l0,0l0,0l0.2-1.4v0.1l0,0l0.2-2.1l0,0v-0.1l0.2-5v-1V2.7l0.2,107.7l0,0l0,0l0.2-3.4v-0.1l0.2-2.6v-0.1
	l0.2-2.4l0,0l0.2-1.6l0,0l0.2-1.6l0,0v0.1l0.2-1.3l0,0v0.1l0.2-1.2v-0.1l0,0l0.2-1.4l0,0v-0.1l0,0l0.2-1.4v-0.1l0,0l0.2-1.3v-0.1
	v0.1l0.2-1.1v-0.1l0.2-0.8l0,0l0,0l0.2-1.3v0.1l0,0l0.2-1.3v-0.1l0.2-1.3v-0.1l0,0l0.2-1.1v0.1l0,0l0.2-3.3v-0.4l0.1-77.5l0.1,104.8
	v0.3l0.1,1.5l0.2-2.8v-0.1l0.2-2.8l0,0l0.2-2.3l0,0l0.2-1.6l0,0v-0.1l0,0l0.2-1.3l0,0v0.1l0.2-1.3l0,0l0,0l0.2-1.2V97v-0.1l0,0
	l0.2-1.3l0,0v-0.1l0.2-0.9v-0.1l0.2-1.4l0,0l0,0l0.2-1.3v0.1v-0.1l0,0l0.2-1v0.1l0.2-1.3v0.1l0,0l0,0l0.2-1.3v0.1v-0.1l0.2-0.7H86
	l0,0l0.2-1.9v-0.1l0.2-4.6v-0.5l0.1-77.3L86.7,110l0,0v0.1l0.2-2.9l0,0l0.2-3.1l0,0l0.2-1.8l0,0l0.2-1.9l0,0l0,0v0.1l0.2-1v0.1v-0.1
	l0.2-1l0,0v-0.1l0.2-1.2v-0.1l0,0l0.2-0.9l0,0l0.2-0.7v-0.1l0.2-0.9l0,0v0.1l0.2-0.4l0,0l0,0v0.1l0.2-0.5l0,0l0,0l0,0l0.2-0.4
	l0.1,0.1l0,0l0,0l0.2-0.7v-0.1v0.1l0.2-0.9l0,0v-0.2l0.2-0.9v-0.1v0.1l0.2-1l0,0l0.2-1.3l0,0l0.2-1.6l0,0l0,0l0.2-2.2v-0.1L91,3.3
	v1.9V11l0.2,99.6l0.1-0.4V110l0.2-3.2v-0.1l0.2-2.7v-0.1l0.2-1.8V102l0.2-1.5l0,0l0.2-1.4v0.1v-0.1l0.2-1.2l0,0l0,0l0.2-0.9v0.1V97
	l0,0l0.2-1.1l0,0v-0.1l0.2-1l0,0l0,0l0.2-0.7v0.1v-0.1l0,0l0.2-0.6l0,0l0,0l0,0l0.2-0.4l0,0l0,0v0.1l0.2-0.6H94l0,0l0,0l0.2-0.7l0,0
	l0,0l0.2-1V91v-0.1l0,0l0.2-1.4l0,0l0,0l0.2-0.8l0,0v-0.1l0,0l0.2-1l0,0l0,0l0.2-1h0.1l0,0l0.1,0.1l0.2-0.5l0,0v-0.1l0.2-1.3v0.1
	v-0.1v-0.3l0.1,0.7l0.1-0.5v0.1l0.2-0.8v0.1v0.1l0.1,0.5l0.1-0.4v-0.2h0.1l0.1-0.3l0,0l0,0l0.1,0.2l0.1-0.5l0,0l0.1-0.2l0.2,0.8V84
	v0.1l0.2,0.5v-0.1l0.1,0.2l0.1-0.9l0,0l0.1-0.1l0.2,0.7l0,0l0.1,0.4l0.2-0.5v0.1l0,0l0.2,0.4l0.1-0.1l0,0l0,0l0.1,0.9l0.1-0.1v-0.1
	v-0.1l0.2,1.4l0,0h0.1l0.1,0.4l0.1-0.1l0,0v-0.1l0.2,0.3l0.1-0.1l0,0l0.2,0.7l0,0v0.1l0,0l0.2,0.5l0,0l0,0l0.1,0.1l0.2-0.3l0,0l0,0
	v0.2l0.2-0.7l0,0l0,0l0.2-1.2v0.1v-0.1l0,0l0.2-0.4v0.1l0,0l0.2-1.5v-0.1l0.2-1.3l0,0l0,0l0.2-3v-0.1l0.1-75.1l0.2,103.7v0.3v0.9
	l0.2-2.3v-0.2l0.2-2.9v-0.1l0.2-1.9l0,0v-0.1l0.2-1.7v-0.1l0.2-1.4l0,0l0.2-1.1l0,0l0,0l0.2-0.8l0,0l0.2-0.9l0,0l0.2-1.5l0,0l0,0
	l0.2-0.6l0,0l0,0v0.1l0.2-1.1v0.1v-0.1v0.1l0.2-0.9v0.1l0,0v0.1l0.2-0.8l0,0v0.1l0.2-1.2l0,0V91l0.2-1.3v0.1l0,0l0.2-1.6l0,0l0,0
	L105,87v0.1l0,0l0,0l0.2-1.2v-0.2l0.2-3.3v-0.2l0.1-78.8l0.2,106.3v0.2v0.2l0.2-2.8v-0.1l0,0l0.2-2.4v-0.1l0.2-2v-0.1l0.2-1.5l0,0
	l0.2-1.8l0,0l0,0l0.2-1.3l0,0l0.2-1.3l0,0v0.1v0.1l0.2-0.9v0.1V96l0,0l0.2-0.4l0.1,0.1v-0.1v0.1l0.2-0.7l0,0l0,0l0.2-1l0,0l0,0
	l0.2-0.9l0,0l0,0l0.2-0.5l0,0l0,0v0.1l0.2-0.7v0.2l0,0l0.2-0.8l0,0l0.2-0.5l0,0l0,0l0.2-0.4v0.2v-0.1l0,0l0.2-0.8l0,0l0,0l0.2-0.4
	l0,0l0,0l0.2-0.5l0.1,0.3l0,0l0,0l0.1,0.5l0.1-0.2l0,0l0.2-0.9l0,0v0.1l0.2-1.3v0.1v-0.1l6.6-0.4l0,0l0.2-0.8v-0.1v0.1l0.2-1.8l0,0
	v-0.3l0.2-79.6v19.3v9.7l0.2,77l0.1-0.6v-0.2l0.2-3.2l0,0l0.2-2.8v-0.2l0.2-2.1l0,0l0.2-1.6v-0.1l0,0l0.2-1l0,0v-0.2v0.1l0.2-1.4
	l0,0v-0.1l0.2-1.2l0,0v-0.1l0.2-1l0,0l0.2-1.3l0,0l0.2-1.2l0,0v-0.1v0.1l0.2-1.4l0,0l0,0l0.2-1.1l0,0v-0.2l0.2-1.3l0,0v0.1l0.2-1.4
	l0,0l0.2-1.7l0,0l0.2-8.8V63.8V3.4l0.2,106.8l0,0l0,0l0.2-2.7l0,0v-0.2l0.2-3l0,0l0.2-2v-0.1l0.2-1.4l0,0l0,0l0.2-1.2l0,0l0,0
	l0.2-1.4l0,0l0,0l0.2-0.9l0,0v-0.1l0,0l0.2-1.3V96l0.2-0.7l0,0l0,0l0.2-1.3l0,0l0,0l0.2-1.2l0,0l0.2-0.9l0,0l0,0l0.2-0.7l0,0l0,0
	l0.2-1.2l0,0l0,0l0.2-1.5l0,0l0.2-1.3v0.1l0.2-1.8v0.1l0.1-0.6h0.1l0,0v0.1l0.2-2V83l0.2-2.5v-0.3l0.1-76.8l0.2,106.1v0.1v0.2
	l0.2-3.1l0,0l0.2-2.8v-0.1l0.2-1.8v-0.1l0.2-1.4v0.1l0,0l0.2-1l0,0l0.2-1.2l0,0l0.2-1.3l0,0l0,0v0.1l0.2-0.8l0,0v-0.1v0.1l0.2-1.1
	v0.1l0,0l0.2-1.2l0,0l0,0l0.2-1.1l0,0l0.2-0.9l0.1,0.1l0,0l0,0l0.2-0.7l0.1,0.1v-0.1l0.2-0.7V91v-0.1l0.2-0.6v0.1v-0.1l0.2-1v0.1
	l0,0l0.2-1.3l0,0l0,0l2.8-0.1l0,0v-0.1l0.2-1.8l0,0l0,0l0.2-2.1l0,0l0.2-79.5V26v9.8l0.2,74.7l0.1-0.7v-0.2l0.2-3.2l0,0v-0.2
	l0.2-2.3v-0.1l0.2-1.5h0.1v-0.1l0.2-1.5l0,0l0.2-1.3l0,0l0.2-1.1l0,0l0.2-1l0,0l0.2-1v0.1v-0.1l0,0l0.2-1.2l0,0l0.2-1.3l0,0v0.1
	l0.2-1.1l0,0v-0.1v0.1l0.2-0.5l0.1,0.1v-0.1l0.1,0.1l0.2-0.8l0,0v0.2l0.2-1.1l0,0l0,0l0.2-1l0,0l0,0l0.2-1.5v-0.1l0.2-0.5l0,0l0,0
	l0,0l0.2-0.6v0.1l0,0l0.2-0.5l0,0l0,0l0.2-0.5v0.1v0.1v0.2l0.2-0.6l0,0l0,0l0.2-1.8V84v0.1l0.2-2.7v-0.1L138,4.5l0.1,102.2v0.9
	l0.1,2.4l0.2-2.3v-0.1l0.2-2.6v-0.2l0.2-2.3l0,0v-0.1l0.2-2v-0.1l0.2-1.5l0,0l0.2-1l0,0l0.1,14.1"/>
<path class="st0" d="M0,96.6l0.2-1.1l0,0l0,0l0,0l0.5,0"/>
</svg>
