<?xml version="1.0" encoding="utf-8"?>
<!-- Generator: Adobe Illustrator 24.2.1, SVG Export Plug-In . SVG Version: 6.00 Build 0)  -->
<svg version="1.1" id="レイヤー_1" xmlns="http://www.w3.org/2000/svg" xmlns:xlink="http://www.w3.org/1999/xlink" x="0px"
	 y="0px" viewBox="0 0 347.4 222.9" style="enable-background:new 0 0 347.4 222.9;" xml:space="preserve">
<style type="text/css">
	.st0{fill:none;stroke:#E6E6E6;stroke-width:2;stroke-linejoin:round;}
</style>
<path class="st0" d="M0.1,139.4c8.2-0.4,34-0.2,50.7-0.5c1.2-9.2,10.4-21.4,15.7-25.3C74,93.8,71.8,17.2,71.8,1.1
	c0,12.9,0.3,90.4,2.9,114.4c2.2,20.2,4.1,8.2,7,6.8c13.8-6.6,17.2-8.7,17.6-11.5s3.6-93.5,3.6-109.8c0,13,0.2,91.1,2.5,115.2
	c1.9,20.4,3.6,8.2,6.1,6.8c12-6.6,13.1-8.1,15.2-11.9c5.4-19.3,3.7-93.8,3.7-110.1c0,13,0.2,91.1,2.6,115.2
	c1.9,20.4,3.7,8.2,6.3,6.8c12.3-6.6,13-8.1,15.2-11.9c5.4-19.3,3.3-93.8,3.3-110.1c0,13,0.2,91.1,2.6,115.2
	c1.9,20.4,3.7,8.2,6.3,6.8c12.3-6.6,13-8.1,15.2-11.9c5.4-19.3,3.3-93.8,3.3-110.1c0,13,0.2,91.1,2.6,115.2c2,20.4,3.7,8.2,6.3,6.8
	c12.3-6.6,13.1-8.1,15.2-11.9c5.4-19.3,3.3-93.8,3.3-110.1c0,13,0.2,91.1,2.6,115.2c1.9,20.4,3.7,8.2,6.3,6.8
	c12.3-6.6,13-8.1,15.2-11.9C242.1,91.8,240,17.3,240,1c0,13,0.2,91.1,2.6,115.2c2,20.4,3.7,8.2,6.3,6.8c12.3-6.6,13-8.1,15.2-11.9
	c5.4-19.3,3.3-93.8,3.3-110.1c0,13,0.2,91.1,2.6,115.2c1.9,20.4,3.7,8.2,6.3,6.8c12.3-6.6,13-8.1,15.2-11.9
	c5.4-19.3,3.3-93.8,3.3-110.1c0,13,0.2,91.1,2.6,115.2c1.9,20.4,3.7,8.2,6.3,6.8c12.3-6.6,13.4-8.1,15.5-11.9
	c5.3-19.3,3.6-93.8,3.6-110.1c0,13,0.2,91.1,2.5,115.2c1.9,20.4,3.6,8.2,6.1,6.8c12-6.6,13.1-8.6,15.2-12.5"/>
</svg>
