<svg xmlns="http://www.w3.org/2000/svg" viewBox="0 0 492.09 192.13"><defs><style>.cls-1{fill:none;stroke:#000;stroke-linecap:square;stroke-linejoin:round;}</style></defs><g id="レイヤー_2" data-name="レイヤー 2"><g id="レイヤー_1-2" data-name="レイヤー 1"><path class="cls-1" d="M.54,55.05.63,54l.05.43L.8,58.57l.14,3.51L1,61.65l.19-3.19.08.33,0,.05,0-.16.34-3.06.12-2.44.05.52L2,59.65l.24,5.47,0-.34L2.42,61l.26-12.12,0,.25L2.9,50.7,3,50.53,3,50.38l0,.12.12,1,.12,3,.19,12.12.16,9.51,0-1.65L3.85,58,4,44.25l0,.66.18,5.23.07-.67.08-.6,0,.31.36,5.35L5,59.93l.09,1.58L5.11,61l.22-4.94.09,1.13.11,1.61,0-.6.22-6.61.13.58L6,51.42l.08-.57,0,.32.18,3.66.16,1.52,0-.06.08-.79.27-4.26.07.38.55,6.7.31,8.79,0-.33.1-3.85L8.23,48l.06.75L8.83,60.7l0,.36.05-.76L9,52.19l.15-6,0,.28L9.64,54l.07,1.34.06-.6.3-4.15.07-.57.11-3.81.29-10.46,0,.08L10.68,37l.19,2.06,0-.1.2-1,.08.23.19,1.09.06-.29.2-2.22.1.52,0,.12.05-.27L12,33.78l.07,1.55.23,10.85.08-2.07.19-5.57,0,.24.1.83,0-.38.1-3.59L13.06,28l0,.6.12,5.6.34,22.1.08-1.66.65-29.39.08,1.45.34,10,.06-.22L15,34l.16-5.19.29-6.9.11-.91.05.27.22,3.32.11-.8.12-3,.31-13.77.1,1.11.45,8.62.14-.41.09,1.19.12,1.23.05-.19.31-2.55.17-9.78L18,.5,18,1l.2,7,.4,13.12.12-1.48.09-.8.05.26L19,20.32l.06-.46.63-9.68.07.51L20.14,16l.19,9.85.16,6.48,0-.57.1-6.25.27-12.58h0l.08.28.13,1,.16,4.51.16,3.65,0-.39.12-4.51.09-2.08.05.73.19,5L22,20l.2-5.38.06.85.2,4h.07l.07.8.2,3.92.06-.64.2-2.61.06.17.05.13.05-.19.13-2.14.06-.5.06.42.19,4.68.08.83.05-.29L24,20.73l.12.51,0,0,0-.17.12-1.78.1-1.12.05.35.21,3.71.08-1.18.25-8,.08,1.64.15,3.22.05-.34.08-.61,0,.44.1,4.36.15,6.8,0-1.1.36-14.71.07.91.14,6.28.23,11.4.05-.53.16-4.25.07,1.23L27,32.47l.06-.61.09-1.13,0,.64L27.29,38l.08,3.41.05-1.76.23-22.33.11,4.86L28,32.37l.14,2.13,0-.21.1-.75.05.37.13,3.54.29,7.49,0-.09.07-1.41.2-5.84.06,1.22.21,6.36.06-.68.25-4.22.06.66.13,5.52L30,51.38,30,51l.22-4.59.1.78.28,5.06.16,3.18.05-.27L31,51.81l.41-7.31.1.12.09.53.11,2.4L32,57.7l.08-1.26.12-2,0,.45.13,1.95,0-.73.21-6.09.08,1.58L33,61.74h.08l.07.82.19,4.15.07-1L33.86,56V56l.07,1,.68,20.72.08-1.62L35,64.9l.08,1.23.21,3.58,0-.08.1-.29,0,.16.09,1.5.19,4.41.07-.65.12-1.71.05.66.11,6.13.1,3.84,0-1.59.23-17.57.1,3.69.28,9.07L37,81.81l.06-.92L37.23,72l.1-3.32.05.7.72,15.7h0l0-.16.08-2.37.28-6.7,0,.1.1,1.19.24,6.61.19,4.14,0-.22.09-2.56.2-5.4.05.48.21,5.49L39.75,84l.2-4.83,0,.22.38,2.38.06.16.09,1.29.26,3.29.08.1.08.22,0-.17.1-1.82.12-1.91,0,.46.13,4.9.21,4,.09,1.65.26,7.59.07-.78.15-6.08.12-2.77.05.31.24,2.59.07,0,.05.14.18,1.54.13,2,.22,6.15.07-1.23.34-7,.13-2.18.11-1.45,0,.4.26,4.4.12-.14.1.17,0-.17.07-1.67.22-8.87.08,2.06.41,14,.07.92.06-.56.12-5.27.2-6.39,0,.21.18,2.81.08-1,.43-7.27,0,.09.07,1.84L46.66,94l.05-.91.39-12.57.1.75,0,.22,0-.38.11-4.09L47.53,74l0,.35.13,3.78.18,4.74,0-.53.12-5.3.33-13.63,0,0,0,.26.32,4.57.08.87,0-.44.2-4.65.1,1.17.08.8,0-.53.11-4.89.2-8.47,0,.58.2,5.48L50,56.78l.15-3.32.06.63.42,7.54h0l.14-.16,0,.14.24.53.09.45.6,4.82.08-.76L52,61.06l.1,1.4.15,3.21.05-.46.12-1.5.06.46L52.66,66l.06-.48.2-2.57L53,63h0l0-.09.08-1.15.16-3.07.06.68.13,6.19.1,3.85,0-1.13.14-12.54L53.84,52l0,1.54L54.18,70l.1-1.25.49-11.25.09,1.6L55,62.71l0-.36.13-1.62.06.53.14,2.52.06-.83.25-9.79.13,1.75.39,5.14,0-.43.15-2.13.06.66.15,6.17.11,2.79.05-.67.12-6.82L57.08,54l0,.35.17,2.62.09-.26,0,.45.08,4.49.2,13.9,0-1.78.37-14.37.62-8.42,0,.22.14,2.42.15,2.09.05-.27.09-2.76L59.47,42l.07.78.35,7.73.07-.88.34-10.45.13.75.11.51.05-.12.11-.45,0,.2.1.55.06-.25.09-.65,0,.36.09,3.42.17,7,0-1.27.14-12.11.14-8,0,.58.26,7.64.11-.56.09-.25,0,.05.1.39L62.48,38l.06-.2.13-1.5.16-4.63.23-9.46.06.93.7,17.94v0l0-.26.1-3.16.16-3.8,0,.15.06.21,0-.23.1-1,.06.5.75,16.53.1-1.31.45-11.24.05.24.13,2.48.65,14,0,0L66.65,53l.13-9.13L67,31.65l0,.29.13,4.35.09,1.89.05-.47L67.41,36l.06.64.12,5.7.18,6.76,0-.34L68,44.42l.13-2.36,0,.19.07.41,0-.36.1-3.75.19-7.3,0,.48.1,4.87.25,12.29,0-.56.15-5.86.28-7.87.15-1.71,0,.29.12,2.88L70,48.77l.13,6.32,0-1.19.17-13,.31-25,.06,1.76.36,14,.1,2.12.18,4,.05-.4L71.9,31l0,.11L72,32.3l.23,5.83.09-1,.12-1.79.06.33.16,2.1.07-.55L72.91,35l.06.57.19,4.49.08-1.24.14-2.63.05.58.25,6.2.1-.85.31-4.34.08.28,0,.13,0-.18.21-2.23.09.72.1.71,0-.2.1-.62.05.3L75,39.74l.09,1,0-.22.12-.51.06,0,0-.19.11-1.64.38-6v0L76,33l.22,4.66.08-.66.14-1.44.06.17.1.35.06-.05.06.11.09.36,0-.24.11-2.43.31-5.21h0l0,.14.1,1.9.12,1.26,0-.1.16-.16.06-.32.15-1.46.06.55.18,4,.08-1.18.14-2.57,0,.43.19,4.78.1,1.17,0-.31.12-2.82.62-17.5,0,.17.09,2,.44,12h0l0-.29.09-3.06.18-8.21.06,1,.39,9.73.2,6.05.07-1.38L81.33,27l.07.09,0-.15.12-.85.06.39.21,3.29.1-.54,0,0,0,.2.09,2.27.15,3.75.05-.62.14-6.52.22-5.58.47-6.33.06-.57.06.32.16,1.68.06-.46.12-3.76.15-4,0,.42.3,5.57.09-.7.13-1.64,0,.54.1,4.68.18,9.09.05-1.25.24-11.72.1.81,0,0,0-.24.19-3,.09.77.13.71.05,0,0,.12.09,1.19.23,6L86,19.7l.2-5.85L86.24,15l.16,4.67.06-.83.21-5.19.07.71.28,3,.07.51.2,3.5.07-1.16.17-8.46.15-5.44,0,.36L87.85,11l.24,5.23.1,1.35.2,5,.07-1.05.24-5.68.06.55.14,1.7,0-.47.12-1.42.05.5.15,5.1.08,1.66.06-.64.31-8.67.09,1.6L90,20.93l.06-.9.24-8.73.09,1.77.3,8.46,0-.24.28-3,.27-8.93L91.39,11l.1,1.41.05-.45.16-2.78.06.82.4,6.77.21,2.65,0-.14.1-1.53.24-3.36,0,.09.09,1.27L93,17.65l.06-.42.13-1.82,0,.66.24,6.69.1-1.25L94,10.13l.09,1.29.14,7.87.28,25,.07-3.81.3-27L95,14l.06.26,0-.25.12-2.31.16-2.78,0,.45.13,4.56.2,4,.08.35L96,20.38l.08-.58.11-.85,0,.22.09.41,0-.22.13-1,.07.34.08.55,0-.34.19-3.7L97,16.46l.19,3.7,0-.05,0,.17.09,1.84L97.5,25l0-.67.23-7.49.09,1.8L98,21l.05-.54.17-3.53.07.81.13,1.78,0-.48.12-4.39.19-6.46,0,.28.12,1.28,0-.44.11-1.22,0,.59.13,5.85L99.38,18l.05-.74.26-9.45.1,1.68.63,13.54.31,2.28,0-.63.12-6.53.1-3.43,0,1,.19,7.27.07-1.52.2-6.33.06.59.24,5.57.07-1.53.26-9.8.08.45.25,2.32.48,6.83h0l.11,0,0,.09.11,1.35.07.47,0-.4.11-3.84.24-6.6,0,.1.09,1.56.4,13.78.17,9.88,0-.92.18-11.33.14-3.1,0,.08.08.29.05-.21.13-2.12.1-1.05.05.37.16,2.61.07-.79.18-4.2.07,1,.26,10.17.1-2.66.22-7.88,0,.34.13,1.43.05-.53.14-4.88.1-2.54,0,.7.14,7.45.12,3.47,0-.37.26-2.25.08-.95.25-4.44.07.46.13,3.59.33,7.43.19,1.35,0-.43.13-3.86.11-2.25,0,.57.18,5.51.09-1.68L109,22l0,1,.15,9.8.19,6.18h0l0-.48.13-3.76.3-7.54.1-.79,0,.35.1,3.5.25,6.42.13,1.85.14,1.9,0-.27.49-6.93.1-2.2,0,.55L112,41.74l.08-.08,0,.13.18,1.76.11-.41,0,0,0,.12.28,1.81.11,4.1.3,13.34,0-.81.15-7.78.2-5,.12-.12,0,.07.08.84L114,52.7,114,52l.15-2.63.07.49.17,2.68.07-.68.16-5.92.26-6.14,0-.14L115,40l.26,3.11.26,5.54.06-.84.16-6.8.1-2.56,0,.67.14,6.87.18,5.08,0-.06.12-.77.06.38.2,3.91.21,3.3,0-.32.1-3.18.17-6.4.06.64.38,11.67.22,4.1.19,4.15.08-1.23.27-4.08,0-.14,0,.25.11,2.64.09,1.88,0-.67.18-4.85.08.9.22,6.5.22,8.24,0-.51.16-2.43.07.43.12,1.15,0-.38.11-3.62.17-4.58,0,.27.28,5,.2,4.86.07-1,.3-7.42.07.29.21,2.32.14,5.14.19,6.7,0-.23.14-3.14.07-.75,0,.5.14,4.81.12,3.34,0-.55.2-5.21.08,1.34.18,4.72.06-.62.09-1.27,0,.64.23,7.8.11-1.88.33-6,.11,0,.07.23.08,1.37L124,96.9l.16,5.89,0-.57.17-5.29.08,1.58.19,6.13.06-.87.25-9,.08,2.46.22,10.4.06-1,.5-12.51,0,.61.5,10,0-.07.1-1,.12-1.1,0,.22.11.72.05-.34.17-3.63.1-1,0,.26.11,2.44.16,4,.05-.54.21-5.77.09,1.76L128,113l.08-1.38.31-11.29.09,1.58.4,8.46,0,.21.05-.35.11-3.44.15-3.53.05.3.26,2.87.06-.11.11-.84.22-3.57.08,1.19.14,4,.06-1.13.23-8.57.09.77.1.65.05-.11.12-.88.14-3.53.12-2.47.05.5.12,5.07.25,6.65.22,4.49.08-1.58.33-11.37.06.11.13.83.15,2.61.17,3.29,0-.4.2-4.05L133,99l.14,2.17.05-.35.12-3.27.23-7.12,0,.29.11,3,.17,5.62.05-.78.22-7.53.1,1.32.1,1.21.05-.34.16-2.46.08.69.2,3.49.06-.56.12-4.56.2-7.16,0,.57.25,6.83.09-1.13.19-3.75.06.88.2,7.25.08-2,.25-10.78.07.77.19,2.6,0-.2.13-2,.26-7.33.18-7.19.05.79.24,8.4.09-1.83.59-18,.13-1.27,0,.1.08,1.18.48,12L139,66.9,139.23,56l.09,1.48.16,2.11,0,0h0l0,.1.08,1.12.21,7.61.14,3.51,0-.38.21-4.65.08,1.34.15,3.19.06-.67.55-14.14.07,1.4.16,6.3.06-1.26.46-14.43,0,.14.08,2.52.33,8.62.23,2.53h0l0-.13.09-1.41.49-9.58,0,0,0,.21.16,2.09.07-.81.13-2.18.05.66.24,6.78.09-1.51.28-10.23.09,1,.15,2.19.06-.32.23-3.39.1.68.13,1.2,0-.35.13-3.46.13-2.3,0,.22.17,1.48.07-.28,0-.12,0,.21.11,2.25.26,5.39,0-.16.52-4.77.14-1.54,0,.24.11,2.36.28,5.62h0l.05-.21.1-1.61.21-5.24.07,1,.22,6.7.09-.75,0-.41.06.37.59,9.52.09-1.15.16-2.57.05.17.2,2,.26,2.28.1.76.16,1.18,0,0,.06.09.14.71L150,65l.17-1.43.07.17.06.09.06-.07h0l0,.08.08.94.22,5.63.17,3.69,0-.33.29-5.34.18-8.91.12-3.64,0,.4.13,2.1.06-.73.27-7,.09.57.15,2.73.11,1.79.05-.43.12-1.63.06.57.16,3.58.08-.92.15-3.26.06.69.12,6,.14,6,0-.88.38-9.76.15-1.76.07.56.22,5.78.17,1.23.06.51.11,3.52.31,9.8.07.47.11,1,0-.53.1-5,.23-12.64,0,.47.2,3.9.09-.33h0l0,.1.16,1.19.09-.32h0l0,.12.11,1.67.05.38,0-.51.12-5.19.11-3.9,0,.84.15,9.07.24,8.59.27,10.54.08-2.3.33-22.84.12,3,.12,2.35.05-.29.15-1.31.06.23.11,1.76.26,6.64.08-1,.38-7.73L159,64l.12.44,0-.2.1-2,.16-3.85,0,.36.16,1.87,0-.54.13-4.82.12-3.09,0,.55.21,5.58.09-1.25.2-4.21.05.35.2,3.9.22,6.63.14,4.68.05-.85.12-8.43.13-6.33,0,.73.56,14,0,.1,0-.4.18-3.17.07.76.08.81,0-.5.19-4.56.08,1.14.27,3.91.09.1,0-.08.16-.8.06.41.12,3,.17,4.87.05-.83.13-8.25.19-8,0,.11.1,2.07.14,2.07,0-.13.18-1.07.07.24.17,1.76.06-.75.17-6.31.14-2.78,0,.12.18,1.79.13,2.94.27,13.72.09-3.5.35-16,.11-1.75.05.49.24,4.91.12-.16L166.7,55l.11,1.31.05-.35L167,55l.05.51.11,5,.14,5.53,0-.71.28-10.48.11,2.42.2,7.68.06-.94.27-8.8.09.9.11,1.37.05-.55.16-6,.32-6.81.05-.3,0,.35.29,3.18.07-.39.14-1.86.06.62.18,4.38.08-1.22.31-9.88.07.86.21,7.33.11-1.74.05-.71,0,.79.2,9.28.09-3.2.2-9.36,0,.67.16,3.41.07-.62.07-.75.05.51.55,10.14v-.08l.06-1.71.15-13.65.14-6.53,0,.23.23,4L173,48.92l.12-1.6.1-.85,0,.23.14,1.72.06-.85.11-7.18.21-13.18,0,.76.13,8.12.27,23.16.07-3.34.27-23.52.08,1.26.13,1.78,0-.17.28-2.33.09.45.18,1.48.07-.18.1-.22.05.07.14.59.15,2.13.55,11.33.18,8.26.06-1.33.28-15,.12,1.07.06.21.05-.22.09-.38,0,.2.16,2.11.28,5.87.23,7.92.07-1.53.19-13.38.21-5.56.25-5.65.1,1.2.22,2.12.1,2.28.3,7.18,0,0,.06-.64.19-4.7.09-1.3.05.49.19,5.17.07-2,.29-15.14.08,1.45.27,11,.11-2.13.19-3.92,0,.06.08.17,0-.14.1-1.39.19-3.91.06.69.19,4.52.07-1,.16-2.76.06.33.21,2.25.07-.34.12-2.68.13-2.7,0,.54.26,7.35.13-1.16.12-3.41.2-8.08.07,1.18.2,5.67.07-.08,0,.23.18,2.68L184,29l.14-3.52,0,1,.17,6.73.07-1.91L184.66,20l.07.41.16.39.06.59.18,3.39.09-.65,0-.15,0,.44.09,4.59.25,14.17.05-.58.14-6.24.2-6.12,0,.07.07,1.43.35,7.71.08,1.17.24,6.86.09-1.16.21-4.25.06.35.19,3.78.34,4.83.11,1.06.05-.27.24-3.66.22-3.86.07.54.15,1.49.05-.28.15-2.86.08-.86.05.41.13,3.88.15,3.55,0-.32.15-3.9.08-1,.06.36.12,1.32.05-.5.11-4.49.18-6.83,0,.45.21,3.69.09-.11.06.45.18,2.93.07-1,.15-8.22.09-2.74,0,.87.59,16.43,0,.1,0-.52.11-5.85.16-7,0,.44.13,1.92.06-.46.1-.89.05.4.11,3.72.22,7.16,0-.2.2-2.79.07,1,.21,5,.08-.65.06-.46.06.38.17,2.78.08-.68.23-4.06.07.59.2,4.39.09-1.21.22-4.6.05.22.16,1.57.07-.53.24-4.78.09,1.18.22,4.57,0-.38.13-1.35.06.37.11,1.08.05-.44.11-4.12.21-10,.06.72.17,4.56.08-.85.1-1.3.05.39.14,1.47.06-.31.07-.39.05.28.18,2.43.07-.81.22-4.18.06.55.16,4.56.13,2.32,0-.3.14-1.71.06.62.21,5.46.09-1.39.15-2.82.05.37.2,4.29.21,3.35,0-.13.5-3.58.05.38.23,4.57.09-1.39.25-3.48.07-.08,0,.11.08,1.24.24,8.52.09-2,.54-19.26L201,28.2l.09,2,.23,6.86h0l0,.25.09,2.39.17,4.81.05-.54.26-5.24.08.47.13,1,0-.27.13-2.64.09-1.18.05.45.22,4.73.1-.94.08-.6L203,40,203.3,43l.24,7.29.08-1.29.08-1.1.05.59.15,3.94L204,51l.19-13.23.27-11.41.06-.44,0,.42.18,3,.07-.81.25-6.68.08,1.43.23,8.67.08-1.89L205.68,20l.07.42.28,4.8.22,4.94.05-.44.19-2.49.07.31.23,2.71.52,11.06,0,.1,0-.44.17-5.31.22-4.3,0,.06.08,1.1.22,4.41.06-.51.18-2.59.07.4.12.82,0-.24.12-2.12.38-10,.1.49.17,2.62.24,2.82.09,1.46.23,7.17L210,36l.45-14.42.1,2,.27,15,.1-3.29.16-5.55.05.51.19,4.16.07-1.11.57-15.58,0,.21.09,2.79.4,18.91.07-1.5.18-11.45.1-3.28.05.84.16,4.16.06-.82.14-2.51.06.54.43,9.37.14,4.22,0-.49.18-3.19.07.44.07.48,0-.33.12-3.34.12-2.43.05.52.15,5.73.13,2.4,0-.15.1-.59.05.31.12,2.9.1,1.68,0-.63.15-6.83.12-3,0,.4.15,4.42.39,16.37.1-1.51.09-1.12.05.55.17,4,.07-1.3.23-8.69.09.83.51,6.49,0-.08.06-1.45L218,39.26l.09-.35.05.2.17,2.16.07-.94L218.5,37l.06.45.54,7.66.11,0,.1.88.09.64.06-.15.06-.19,0,.19.09,1.87.2,8.18.07-1.84.28-14.83.09,1.41.42,15.88.1,3.3.05-1.09.19-13.5.2-4.3.1-.64.05.18.21,2,.09-.64.4-4.42.05.48.11,4.55.32,14.68,0-.19.1-2.76L223,41.45l.08,1,.19,1.48.06.64.13,4.7.16,4.08,0-.13.12-.84.06.32.13,1.33.05-.5.13-4.62.12-2.67.05.43.27,2.59.08,1.43.12,2.1,0-.6.18-4.09.08.59,0,.14,0-.34.12-3.83.1-1.93.05.5.15,2.32.07-.39.11-.93.06.28.16,1.81.07-.49.48-6.86.08,1.33.17,9.57.12,4.26,0-.54.28-8.07.11,1.48.23,4.48.05-.18L228,49.1l0,.17.1,1.57.16,2.23,0-.08,0,0,0,.12.13,1.16,0-.65.12-5.72L229,37.32l.24-2.72,0,0,.14.31,0-.13.1-1.08.53-8,0,.23.29,4.22.25,5.55.1-1.24.12-1.36.05.22.08.43,0-.24.34-3.72.1.57.16,3.16.21,8.69.24,8.89,0-.26.11-3.35.49-14.79h0l0,.2.23,3.86.12-.84.12-1.06.05.29.1,2.66.24,7.29,0-.24.27-3.37.09,1,.22,5.26.08-.71.27-4.71.08.56.22,3.39.08-.61.1-.76,0,.26.18,1.88.08-.37.06-.29.05.28.17,2.87.08-1.16.1-1.87.05.65.19,5.83.07-2.07.29-20.4.1,4L237,56.73v0l0-.71.17-7.41.14-2h0l.05-.12.09-1.12.16-2.38,0,.45L237.9,48l.18,2.84h0l.1.09.07.12.05-.12.12-1.21.26-4.76.22-4.05,0,.14.14,2.12.06.45.06-.3.15-3,.32-6.76.06.78.18,4.83.07-1.12.24-9L240.3,31l.19,5.26,0-.34.2-4,.07-.77.06.41.14,2.25.06-.77.21-5.1.08.69.13,1.37,0-.26.17-1.61.07.4.28,3.71.1-.36,0,0,.06.1.05.09,0-.13.08-1.33.23-4.65.06.41.34,6,.09,1.24,0-.6.16-3.94.06,1.39.19,9.33.07-2.07.26-6.68,0-.13,0,.29.08,2.94.21,9.82.06-1.08.17-3.63.05.33.09.55,0-.26.25-3.53.11.87.23,5.12.25,9.37.08-1.59.3-11.24.08.78.57,8.55h0l.07-.41,0-.22.05.34.18,4.28.08-1.81.23-8.27.06.22.13,1.34.11,5.49.15,7.65.05-1.31L248,40l.09,5.22.4,30.91.07,1.87,0-1.51.12-14.71.17-13.21,0,.4.12,5.36.19,7.29,0-.27.59-8.23.07.37.13,2.53.36,6.5.12,1.19.07.49.05-.39.11-4,.5-17.4h0l0,.28.1,3.73.21,8.38,0-.42.14-5.34.06-1.07.06.82.21,6.53.08-1.24.16-3.11.05.33.2,2.71.07-.65.12-4.54L253,38.5l.05.48.13,1.88.06-.5.16-2.44.06.49.13,4,.31,9.56.16.23.14.86.06-.37.12-3.22.13-2.45,0,.28.21,2.87.08-.77.13-2.08.05.69.15,6.68.13,3,0-.23.07-.46.05.36.13,4,.06,1,.06-.74.15-8,.09-1.92,0,.62.33,9.55.18,6.8,0-1,.28-11.11.12.91.31,4.43.25,6.59,0-.16.11-1.89.12-2.31.06.54.18,3.93.07-.93.21-3.65.06.07,0-.1.08-1.33.19-4.63.06.66.63,13.86.08-.79.15-5.11.24-7.71,0,.16.09,2,.18,4.27,0-.67.28-8.64.11,1.35.27,8.32.1-2,.2-5.34.05.34.13,3.62.37,8.18,0,.17,0-.4.11-3.87.18-6.2,0,.49.21,5.35.09-1.3.22-3,0,0,.07.84.19,3.56.07-.59.46-7.93.1,1.11.12,1.33.05-.2.14-.6h.06l.06-.22.12-1.55.22-3.62.06.4.19,3.27.25,6.62.07-.56.24-1.9.08-.12.07-.8.14-4.72.15-3.23,0,.18.09.62.06-.3.15-2.06.06.8.24,7.23.09-1.48.31-5.94.25-.86.14-4,.17-3.72,0,.24.15,2.91.23,4.89,0-.57.15-5.18.31-13.85.07,1.21.16,10,.29,14h0l.05-.6.15-5.33.47-16.3.17-1.29,0,.15.08,1.72.25,8.44.08-.5.39-2.44,0,0h0l0-.08.09-.92.1-.84.06.32.42,5.09.05-.73.27-9,.11,1.07.13,4.72.3,12,0-.12.14-1.26.06.55.1,1.22.05-.65.23-7.23.1,1.48L273,53.1l.16,1.27.05-.36.09-3.49.21-7.81.05.49.14,3,.06-1L274,35l.11-2.87,0,.47.16,5.37.13,2.34,0-.15.07-.3,0,.27.11,2.64.16,3.53,0-.45.12-4.74.17-4.12,0,.09.34,2.3.09.79.05-.37.13-2,.06.71.21,6.53.1-1.59.06-.88,0,.74.16,4.69.07-1.35.24-9.08h.09l.09-1.08.07-.51.05.39.15,4.12.32,7.43,0-.15.08-2.28.25-8.28.05.45.6,10.75.06-.74.16-3.51.06.8.23,5.66.08-.81.35-7.92.1,1.15.67,12,0,0,.05-1.24.19-6.13.07,1,.17,3.33.05-.37.22-4.3.09,1.31.19,3.64,0-.32.11-2.95.2-6,.05.56.14,2.88.06-.95.22-6.71.08.9.3,6.62.07,1,.05-.72.14-6.79.16-5.28,0,.1.1.54.05-.32.11-1.3.05.64.13,6.57.09,2.37,0-.77.25-7.76.08,1.61.13,2.91.06-.57.14-2.66.06.67.16,2.91.06-.58.21-4,.07.8.25,7.42.1-1.88.21-3.15.07-.79.2-4.4.07.95.27,8,.11-1.2.05-.27.05.37.14,2.19.06-.85.13-7.61.11-4.24.05.84.66,22,.07-1.25.18-11.77.27-9.3h0l0,.2.1,2.65.55,20.62.06-.84.19-5.68.08,1L288.9,50l.05-.49.13-2,.06.68.28,6.56.11-.31.19-.56.15-1.45.05.43.15,2.61.06-1,.23-9.2.1,1.7.19,3.46,0-.08.06-.11,0,.15.1,1.58.3,6.64.05-.86.14-7.51.1-3.91,0,.92.25,10.58.11-1.4.05-.48.05.59.21,7.12.09-2.39L292.52,51l.07.71.18,2.85.06-.19.09-.37,0,.2.15,1.49.06-.71.16-4.57.07,1.6.23,13.81.09-3,.3-18.42.07,1.5.45,15.34.06-1,.19-6.34.07,1.25L295.54,74l0-.29.2-4.25.12,1.06.2,3.63.11,2.63.05-1,.11-9.74L296.55,53l0,.26.12,4.06.18,3.05h0l.05.1.09,1,.12,1.67,0-.53.22-6.82.12,1.66,0,.35.05-.62.11-5.88.14-5.61,0,1,.12,10L298.32,73l.25,5.76.06-.33.09-.65,0,.4.16,4.68L299,80.4l.16-21.65.1-6.87.05,1,.3,7.21.18,3.45.23,6.19.06-.46.12-.88.05.2.08.3,0-.22.09-2.18.36-14.14.09,1.37.2,4.5.06-.3.15-1.68.06.53.13,4.66.13,3,.05-.23.06-.35,0,.34.1,3.67.11,3,.05-1,.15-10.39.15-5.72,0,.15.18,2,.09-.44.26-2.06.15-2.47.05.42.16,2.93.07-1.06.23-8.1.09,1,.25,4.58.06-.57.15-2.66.06.67.37,7.61.1-.05.11-.08.1-.86.21-2.44.06.29.14,2.6.22,3.27,0,0,.07-.48.12-2.81.19-6L306,50l.13,2.8.06-.83.15-3.54.06,1,.14,9.12.22,10.71,0-.35.09-4.79.24-16,.05.61.23,5.79.09-.71.13-1.62.05.51.11,4.83.14,5.21.05-.93.25-12.5.11,2.79.15,3.44,0-.41.23-4.85.11,1,.44,4.47h0l.07-.06,0,.1.1,1.09.18,2,.05,0h0l0,.08.08,1.07.13,2,.06-.47.15-2.59.06.78.13,2.48,0-.77.23-7,.11.79,0,0,0-.28.18-3.68.09,1.49.14,2.92.05-.52.18-4.66.06,1.92.21,16.83.08-5.86L312,31.47l.08,3.16.29,12.9.33,3.14.06-.37.13-1.31,0,.53.12,4.89.18,4.75,0,0,.05-.06.05.11.08.32,0-.23.1-2.27.18-6,.06.81.24,7.42.1-1.14.22-4.1.06.31.15,1.12.06-.21.12-1.88.08-.89.05.46.13,4.42.4,13.14v0l0-.27.09-3.6.32-16.85.05.58.48,13.51.07-2.67.23-21.41.09,4.46L317,55.7l0-.39.13-4.88.17-3.3,0,0,.19,1,.13,2.19.27,7,.07-.56.16-4.41.34-7.54,0,.13.1,1.76.44,10.78.08-.93.52-11.94.11-2.08.05.36.12,1.74.06-.68.2-5.21.1.52,0,.1.05-.16.06-.17,0,.22.12,2.21.11,1.84.05-.62.11-6.11.14-5.94.05.82.49,15.47.06-.16.12-.39.06.1,0,.07,0-.16.08-1.56.47-11.29,0-.19.05.41.11,4L323,48l0,0,0-.18.08-1.82.24-12,.26-6.49,0,.11.07,2L324,47.47l.11-3.67.16-4.83,0,.46.15,5.25.26,6.79V51.4l.06-1.63.21-9.36.08,1.32.06.75.05-.71.23-7.25.1.95.16,2.11,0-.43.16-4.39.2-4.22,0,.17.22,2.75.09-.89.24-4.66.07.72.18,3.52.07-.79.15-6.32.22-7.49,0,.14.14,1.58.09-.38,0,.14.07,2.08.2,9.82.08-1.7.19-6.82.06.7.18,5.15.07-1.47.21-9.71.07,2.17.47,30.05.1-5.61.22-18.15,0,.43.11,1.26.06-.32.22-3.28.12-2.08.05.52.11,4.95.19,7.38,0-.33.18-3,.09.56.06.39.05-.37.12-3.46.19-5,0,.37.12,4,.15,4.43,0-.43.19-3.61.09.43,0,0,0-.2L332,24l.12-1.71.05.2.23,2.43.22,5.52.08-.63.39-6.46.22-4.7,0,0,.06.63.42,9.13L334,35.6l.05-.63.13-6.16.1-3.1,0,.92.27,12.05.12-1.77.09-1.33.05.48.14,4.63.19,5.89,0-.65.15-7.27.18-4,.05,0,0,.06.13.63.11.51,0-.16.18-2,.07.91.25,8.9.11-2.11.24-5.11,0,.1.1,1.64.1,1,.05-.28.09-.64.05.31.12,3,.48,13,0,.55.05-.63.17-4.44.08,1.18.15,4.9.07-1.33.27-13.76.14.1.09-.31.05.18.1.62.05-.34.12-3.59.08-1.13.05.54L340,50.63l.09-1.52.21-5.65.05.6.15,5.59.1,2.24.05-.61.18-4.34.08.78.4,10.42.26,5.28.06-.47.14-4.62.3-7,.22-1.25,0,.1.07,1.21.29,8.11.08-1.41.22-6.91.07.58.14,4.09.19,8,.07-1.46.29-13.9.09,1.59.25,8.18.07-1,.22-7.93.19-3.86,0,0,.07,1,.15,6.13.16,5,0-.45.25-7.16.2-4.66.06.42.21,3.4.08-.52.36-5.53.23-5.61.05.53.11,5.07.14,4.85.05-.67.19-5.71.09.77,0,.18.05-.36.14-3.89.09-1.26.05.59.13,5.48.15,5.08,0-.52.34-7.23.08.37.12,2.38.29,5.26h0l0-.21.5-3.43,0,.19.2,2.91.09-1.09.16-3,.06.61.27,6.67.11-.91.22-1.17.08-.47.14-2.7.14-2.55,0,.45.11,4.33.22,6.59,0,0,.1-.82.19-2.28,0,.45.17,3.09.06-1.1.15-8.89.23-9.4v.06l.1,1.32.19,5.63L352.46,53l.06-1.38L353,37.45l.17-3.44.13-1.56,0,.16.18,1.83.15,4.15.26,11.61.07-1.5.25-7.84,0,.15.05.11.05-.15.14-1,.06.45.12,3.78.15,4.15.05-.47.14-5.46.08-1.74.05.76.22,7.21.1-1.29,0-.48.05.64.16,4.8.07-1.7.41-14.13,0,0,.05.16.18,1,.07-.18.12-1.21.45-6.85.08,1,.31,9.31.12-1.45.1-1,0,.36.19,3.53L358,40l.07-.91.05.66.11,6.45.16,8.52,0-.79.31-9.66.09.39.13,2.15.41,11.55.1-1.79.15-3.49,0,.48.16,3.31.07-1.1.19-10.16.28-9.13.18-1.54,0,.15.1,1.73.36,10.08.09-1.42.33-5.48.13-1.11,0,0,.05,0,0-.1.15-1.2.06.65.11,5.45.24,12.31,0-.38.09-4.36.21-11.83.06.73.31,6.22,0-.27.15-2.1.07.84.14,3.38.06-1.1.22-9.36.08,1.94.38,14.38.06-.81.65-14.62,0,0,0,.25.11,3,.16,3.71,0-.27.17-3.54.07-.69,0,.39.12,3.55.23,6.11,0-.21.12-2.62.3-5h0l0,.17.1.79,0-.49.1-4.92.14-6.86.05.92.21,8.41.08-1.77.29-7,.08-.24.08-.3.05.23.1,2.19.18,3,0-.14.14-1.13.06.45.15,4.22.15,1.94,0-.06.07-.77.12-4.25.23-10,.05.7.16,7,.18,5.11,0-.1.1-.71.05.41.41,7.47.08-1.26.22-7.27.08,1.21.16,2.76.05-.17.24-1.24,0,.14.1,1.36.14,2.16,0-.42.23-3.7.08.66.19,3.62.07-1,.34-8.39.07.66.16,5.61.13,3.36,0-.43.56-12L373,35l.22,4.13,0-.16.14-.86.06.25.1.51.06-.2.17-1.35.06.4.12,3,.17,4.09.05-.51.11-5,.18-9.45.06.76.14,3.28.06-.6.08-.88.05.46.22,5,.12-.68v0l0,.18.1,2.3.08,1.5.05-.8.13-8.14.13-4.72,0,.51.11,1.68.06-.47.06-.56.05.58.1,5.95.15,6.45,0-.6.26-8.51.1,2,.42,16.84.08-2.69.31-19.84.08,1.5L378.12,43l.08,1.25.2,7.4.07-2.4.25-13.77.07.46.47,4.26,0-.13.12-1.16.19-2.52.06.47.14,2.22.06-.67.16-2.67.05.55.12,4.26.25,16,.08-3.11.27-17,.06.24.07.33.05-.19.12-.75,0,.32.13,3.15.11,1.7.05-.22.07-.36,0,.37.09,3.57.22,14.4.06-3.3.3-33.77.12,3.23.13,2.68,0-.14.05-.17,0,.26.09,2.68.3,12.05.06-.3.15-3,.44-11,.07.93.19,4.71L384,33l.19-4.21.06.67.31,3.81v0l.06-.42.12-3,.27-8.55.06.62.2,4.72.08-.89.11-1,.06.13,0,0,0-.15.1-1.57.15-2.44.05.4.15,4.41.09,1.46.05-.29.11-.87,0,.45.13,4.47.1,2.49.05-.79.24-8.79.11,1.36.06.58.06-.39.1-1.1.05.55.12,5,.21,9.39,0-.61.23-8.65.11,2.32.14,2.78,0-.19.27-3,.22-8.34.09,1.3.1,1.41,0-.33.08-.65.05.43.11,4.38.16,5.81,0-.5.31-6.26.07.53.16,4.31.49,13.61.07-1.8L390.62,32l.09,2.32.17,4.72,0-.32.11-1.18.05.55.38,10,.19,11.25.11,4.08.05-.87.13-8.75.19-10.44,0,.26.13,4.06.35,7.23.18,1.45.1.79.17,2.24.05-.63.1-5.51.2-14.32.06,1.69.12,15.05L394,98.09l.16,4.36,0-.2.08-2.79.29-18.74.11,1.43,0,.32.05-.34L395,79l.08.53.07.44.05-.38.11-3.66.15-4.7,0,.67.22,8.23.08-2.7.29-13.29,0,.07.05.07,0-.13.1-1.27.27-3.7,0,.07.14.51.05-.22.12-2.06.12-1.41.05.25.1,2.37.21,11.61.25,9.32,0-.08v0l.09-1.3.16-6.35.26-8.11v0l.11.7.07.25,0-.14.09-1.18.19-3.82.06.71.29,4.94.07-.09h0l0,.08.09,1,.13,1.39.05-.28.19-2.28.08.47.17,2.43.13,7.59.19,12.14.05-1.19.38-13.29.13-4.8.15-3.38,0,.15.1.71.05-.38.1-3.45.19-7,0,.57.32,7.32.1-.6.16-3,.13-2.12.05.3.12,1.31,0-.47.15-2.05.06.52.15,2.43.07-.72.48-8.64,0-.05.05.24.12,2.74.28,4.29,0,.12.05-.29.09-2.93L404.46,32l.05.25.08.5.05-.32L404.8,30l.06,1,.13,7.89.21,10.76,0-.3.09-4.08.21-10.45.05.77.29,8.32.1-.2.12-.21,0,.1.08,1,.24,6.2.08-1.64.23-9.42.07,1.19.15,2.87,0-.47.14-2.31.06.8.13,7.16.16,5.66,0-.41.39-10,.16-2.55,0,.14.11,1.59.26,4.67.06-.28.1-.59.05.27.15,1.63.07-.45.17-3.12.22-8.27.08,2,.29,15.35.1-1,.08-.54.06.16.05.16.05-.19.1-1.89.29-7.68.07.81.14,2.52.06-.53.23-5.86.08,1.76.23,13.26.27,20.6.06-3.57.25-35.76.1,8.08.11,7.56.06-1.56.17-9.13.07,1.61.13,4,0-1,.2-8.55.08,2,.19,8,.06-1,.2-4.37.06.32.09.57.06-.25.45-5.24.2-4.61,0,.3.19,2.68.08-.66.1-1,.05.39.14,4.11.1,1.59.05-.29.31-1.93.07-.15.05.11.14.52.05-.16.19-1.51.07.62.11,4.71L416,49.5l.05-.85.14-8.8.3-14.55h0l.05.44.17,2.21.06-.22.07-.19,0,.2.1,1.91.22,6.56.07-1.11.19-5.41.07.6.07.52.05-.45.17-3.87.08,1.15.14,2.13.05-.23,0-.14,0,.32.08,3.44.2,15.62.07-3.55.2-16,.07,1.08.1,1.71,0-.46.12-1.41.06.44.17,4.42.4,13.16.16-.46.11.63,0-.34.42-6.48.16-3.09,0,.4.11,3.8.29,15.31.06-1.18.17-9.63.3-13.29h0l0,.43.17,5,.28,12.09.08,2.08.06-.71.27-3.86.13-5.08.13-2.95,0,.26.12,1.1,0-.43.11-1.29.05.59.12,5.87.17,5.07,0-.05.06-.21.05.2.1.67.05-.36.12-3.8L424,45.4l0,.17.11,1.93.32,9.64.12-1.45.12-1,0,.09.11.92.2,2.06.06-.13.32-1.67.09-1,.05.39.21,4.27.1-1,.37-7.11.27-5.81h0l0,.27.09,2.82.29,15.34.1-1.58.18-1.47.1-1.48.3-9.92.17-3.29,0,.17.13,2.21.22,3.71,0-.15.11-.72.05.34.16,3.52.08.91.05-.38.17-4,.37-6.22h0l0,.11.13,1.16.07-.49.16-1.81.06.3.26,1.51,0-.06.07-.8.14-5.63.12-3.26,0,.57.14,6.21.29,8.63.21,6.39L431,58l.53-12.11.06.7.17,6.4.34,11.16,0-.41.1-5,.42-30.56.08,1.74.54,22.44.08-2.14.3-7.74.16-1.82,0,.24.13,2.47.46,10.85.06-.46.12-3.14.19-6.15.06.71.42,13.29.16,7,0-.38.12-2.2,0,.91.19,9,.08-3.74.23-22.3.08,2.44.56,25.28.15,1.86.18,3.58.06-.77.14-7.25.13-3.32,0,.37.38,5.94.09-.2.08-1.16.22-6,.07,1.72.24,16.38.1-4.57.19-9,0,.36.36,7.89.19,5.52.05-.63.21-6.61.09,2.06.2,7.65.06-.78.1-1.62,0,.65.19,4.19.08-.35h0l0,.14.08,1.89.18,5.37.06-.83L441,89.8l.25-11.19,0,0,.11,1.17.08.41.05-.2.12-1.87.14-2.08,0,.4.1,3.84.22,13,.07-1.58.2-7.78.06.91.47,11.06.05-.44.16-3,.07.92.18,3.81.06-.53.18-4.84.33-9.32.05.17.29,2.29.22,2,.06.3.14,2.55.05.42.05-.64.11-6.14.17-8,0,.38.42,5.83.06.22.05-.25.22-2.61.08.78.13,1.81.05-.45.14-2.07.06.67.14,5.36L446.72,98l.06-1.19L447,88.1l.08,1,.22,3.64.05-.19.13-1.83.21-1.64.09-1.63.16-3.92.06.72.13,3.29.06-1.16.2-8.27.08,1.79.2,6.5.06-.35.32-4.69.14.16.1-1.64.25-3.25.12-4.15.31-9.12,0-.11.05.3.1,2.46.18,11.91.11,4.36.05-.93.12-9.43.16-8.17,0,.52.23,7.2.09-1.7.14-3.48.06.79.2,6.39.08-1.14.2-1.64.07-1.24.21-6.1.08,1.28.2,6.07.07-.7.16-3,.07.6.15,2.88.07-.62.1-.94.05.35.17,2,.07-.35.12-1,.05.38.22,4,.1-.94.42-5.75.06.79.19,7,.08-2.55.24-19.56.1,3.12.18,5.87,0-.12.07-.28,0,.27.19,3.09.08-1.08.14-2.53.05.59L455.8,68l.08,2.19.06-.91.19-7.41.08,1.85.35,18.37.09-3,.24-17.6L457,64.2l.13,3.63.05-.21,0-.2,0,.32.11,3.32.33,12.26,0-.41.12-4.56L458,75l0,.07,0,0,0-.16.07-1.9.34-15.34.09,1.42L459,74l.23,6,.13,1.15,0-.41.1-3.89.22-9.69,0,.42.16,4.64.24,4.23.06.53.11,3.74.19,7,.05-.58.11-5.66L460.85,71l0,1.79.1,16.27.45,102.58.05-1.41.13-13.55.3-23.93.38-8.28.12-4.17.23-9.84.06.5.14,2.19.06-.42.11-3.09.14-12.39.32-23.8.17-8.83.52-32.34.08-.71.05.31.13,2.8.3,5.09.18,4.17.06-.88.17-4.37.07.81.16,3,.05-.63.14-5.7.23-5.92,0-.07.05.15.08,1.37.25,8.93.11,2.24.05-.43.1-4.08.25-11.2,0,.44.14,1.76.05-.47.21-3.82.08.88.17,6.22L467.81,70l.07-3,.54-33.9.09-1.82.16-2.85.05.15.23,1.91.21,5.73.07-1.41.21-9.7.08,1.94L470,41l.31,7.77.09-.94.44-7.39.08.17.09.11,0-.07.09-.65.22-4.06.08,1.48.12,4,.05-1.58.22-17.89.1,4.87.22,9.85h0l0,.09.06,1.27.21,8.24.08-2.16L473,25.77l.11-1.67.05.42.15,2.39.07-.63.21-3.87.08.42.18,1.36.05-.21.15-.87.08,0,.05-.51.11-4,.16-6.08,0,.66.13,6.53.31,12,.2,5.12.06-.57.12-5.28.27-9.82.05-.08,0,.12.1.82.15,4,.39,13,.08-.74.14-4.69.24-6.84,0,.17.07,2.25.22,16.07.22,6.4L477.6,55l0-.48.09-4.32L478,32.74l.05.73.14,6.34.27,8.73.09.68.05-.28.12-3,.11-1.79.05.3.09.84.05-.44.11-4.43.24-6.21.12-2.23.15-2.66.05.2.19,1.46.08-.14h0l0,.11.07,1.25.21,10.09.09-3.5.19-9.25,0,.37.12,4,.24,9.49.06-.55.07-.75.05.54.18,5.39.08-1.9.21-7.94.06.59.34,6.51.07-1,.47-10.89.18-4,.09-1.08.05.2.3,2.72.26,3.51,0-.35.08-3.68.23-13.61.06,1.17.13,3.07.05-.71.16-3.93.07.92.18,8.13.14,2.69,0-.08.07-.21,0,.18.12,1.89.24,2.59.09-.08,0,0v0l.09.95.41,5.22.15,1.25L486,40l.11-.71.06.26.11.91.05-.39.13-3.84.21-3.34.07-.2.05.17.11,1.71.09,1,.05-.39.59-10.72.17-4.35,0,.25.35,5.2.24,8.05.05-.44.13-4.32.12-3,.05.41.16,2.72.07-.62.14-2.19.05.7.12,6.45.14,5.53,0-.56.17-3.77.07.78.16,2.59.05-.6.12-5.07.2-8.09,0,.09.11.58.06-.23.08-.49.05.37.08,3.54.25,22.21.1-4.33.24-10.3.11-.26.07-.29,0,.08"/></g></g></svg>