<svg xmlns="http://www.w3.org/2000/svg" viewBox="0 0 491.92 192.13"><defs><style>.cls-1{fill:none;stroke:#000;stroke-linecap:square;stroke-linejoin:round;}</style></defs><g id="レイヤー_2" data-name="レイヤー 2"><g id="レイヤー_1-2" data-name="レイヤー 1"><path class="cls-1" d="M.51,59.67l.1-6.19L.54,64.35l.08-6.2,0,8.4,0-13.07,0,10.45,0-9.49V70.81l.1,9L.83,58,.89,74.39V57.6l0,19.27L1,63V56.09l.08,11.7v-1.1L1.2,54.3l0,12.39,0,2.47.05-6.88,0,6.75v.27l0-7.43,0-11.15L1.46,66v-.41L1.52,54l0,12.79v6.33l.08-19.26.14,14-.07-19,.08,9.9,0-5L1.87,67l0-6.88L2,71.78,2,57.47l0,5,.08-6.05,0,15.41.06-1.52V74.8l.05-14,0,5.5,0-11.56,0,36.19,0-22.43.05,5.78L2.39,63l.08-8.67L2.41,67.65,2.5,61V64.9L2.59,47v-.55l0,9.91,0-.83.1,7.57,0-13.76.06,10.59.07-9.08,0,9.22V57.19L3,51l-.11,7.84L3,53.75l.08,6.33,0-7.84.07,2.47.11,10.6L3.13,53.75l.07,3.3,0-12.52,0,36.19V82.1l0-35.78.05,18V53.2L3.44,70V65.31l.06,11.83,0-13.89V59.39l0,25.46,0-12.11.06,65.09,0-79.12V54.16l0,17.34.08-15,.05-12.24.09,4L4.08,74.8l0-33,.07,7.71h0l.11,10.45L4.13,46.6l.11,7.56,0-6,0,11.15L4.36,48.8l0,14,.1-6.46,0-5.37,0,11.15L4.6,52l.1,15.28L4.77,62V52.93L4.88,65,5,69.44l0-8.4.07.83L5,56.64,5,69.16l.07-1.79v5.51L5.13,59l0,8.81.12-12.66.07,13.62L5.33,54l.07,3.3,0-6.06,0,12.66,0-1.65,0,13.07,0-16.09,0,6.33v2.33l0-12.79,0,3.58,0-12,.08,15.14V53.34l0,10.18.06-.69h0L6,51v2.06l.13,13.35L6,47.28,6.15,64.9l.06-14.73,0,16,0-8.12,0-3.72V66l0-1,.08-8.94,0,7.16.08,5.64L6.45,50l.08,8.8V56l.06,9v.41l0-10,0,5.22,0-11.28.08,4.13.07,18.44,0-24.5.06,7.85V53.06L7,58.57l0-.28,0,5V56l0,1.24V50.72l0,16.52.07-2.07v-7l0-8.66V69.44l0-6.74v5.36l0-12.79.08,4.81V51l.07,13.9,0-.83,0,16.79.06-15.69,0-6.88,0,18.44,0-11,.06,13.9.08-9.36.11-10.59-.07,11L8,63.93l0,3L8,52.38l0,9.77.07-15.28.06,2.34.05,9.22L8.2,47,8.31,57.6V52.79l.09,11.83v-.55l0-5.09,0,7.84,0-.68L8.6,57.6l0,11,0-3.44v5.64l0-14.58.08,5.23.09,13.21L8.76,57.74l.07,2.62.09-5.23,0,25.73.06-19.54,0,5.92L9,50.31l0-1.65v9.91l.08-3.44v2.75l.08-9.22,0,3.72L9.28,61,9.22,46.46,9.3,52l.09-6.33L9.32,58.84l.09-5.64,0,18.85,0-28.34,0,10,.08-4.4,0,21.46,0-10.87,0-7.84V64.62l0,6.19L9.76,55l.06-6.74,0,22.56,0-19.54.07,9.36,0-12.8L10,53.48l0-1.38v9.49l0-13.89.05,12.24L10.25,47V53.2l0-11.56.07.83,0,4.4.07-6.19V36.55l0,11.56.06-4.54v-3l0,8.12.08-6.6,0-1.79,0,8.8v3.86l0-16L10.85,43l.08-1.38-.07,16.51.08-12.93,0,7,0-12.11L11,44.26,11.12,39l0,12.93.05-5.64h0l.08-5.92-.07,8.4.08-2.75,0,4.12.08-7.29,0-1.79,0,10v.69l.07-9.77v3.57l0-7,0,11.14,0-6.6,0,6.46.07-12.24V36l.06,16.24,0-11.84,0,10.74,0-15.41,0,8.39v2.34l0-11.84L12,43V35.18l.06,17.2,0-9.36.08,17.61.06-14.31.06-5.5,0,14.86,0-1.52,0,12.39,0-27.52.05,4.81,0-1.92,0,8.8.09,4.68-.07-15.27L12.62,47l.07-10.87,0,16.79,0-11.7,0-7.57,0,22.29.05-10.18V57.05l0-27.1.06,8.53L13,17.84l0,26.55,0-15.68.13,19.68,0-6.06,0-15.14,0,23.81.06,11.15,0-19.54V40.54l.07,15.83,0-2.76,0,18.72.05-23,.06,15.27.1-15.55-.05,26.15.07-19.68v5.37l.06-8.26.1-13.35-.05,17.75.07-6.46,0-10.19,0,15.42L14,43l0,7.15.06-16.37v-.41l0,9.22v.27l0-6.33.08-8.25,0,15.82.06-11.28.1,10.45-.06-18.16.09,16.1.07-13.49,0,27.94,0-13.62h0l0-7.85,0,13.35,0-12.38.08,15,0-7.84,0-13.07,0,28.76,0-14.86v11l.1-15.27V33.25L15,51.69l0-9.5v1l.06-9.22,0,5.09V30.22l0,10.18.07-5.91.11,3-.07-10,.07,9.22.11-12.94,0,16.93L15.48,28l0,10.32.05-14.86,0,1v2.62L15.69,36l-.06-9.49.1,5.5.07,8.81-.05-12.66L15.84,32v1.1l0-6.88,0-3.85L16,35l0-7.71V38.75l.07,7.16,0-23.81.06,7.3.1-13.08,0,7.43v1.52l.07-12.8v-.69l0,7.43.05-2.61,0,9.91,0-14,0,6.06.06,11.14,0-20.5.1,11.56,0-12,0,18.43,0-.68.11,3.71-.08-15.68.08,15.13L17,18.11l-.06,12.8L17,25.68V36.41l0-16.92.08,1.93.08,22.42L17.1,21l.09,5.51,0,4.4,0-5.09L17.34,21l-.06,16.51.08-11.83.11,10.73-.08-15.68.11,14.58.12-24.49v4l.06,21.6,0-25.18.05,7.43.1-13.07,0,5.92L18,23.34l0-15.13L18,10V.5l.09,18.58V13.43L18.12,25l.07-9.22V13.43l0,9.36.05-1.37.12,10.87-.07-18.72.08,13.76.09-6.19-.06,11.42.08-10.46,0,26.42L18.65,30l0-7.3v9.91l.08-3.71.12-11.29-.06,16.38.08-8.4L19,35.86l0-2.2.11-15.82V36.41l.05-18.57,0,7.84,0-4.26v9.21l.08-4.81v6.6l.06-15.13,0,4.81V19.49l0,6.88.08-4.54L19.64,10l-.05,28.76.09-19,.07,5.65,0-8.12.08,5.23h0l0,4.81,0-10,.06,3.3,0-7.84L20,26.64v-.82l.07-6.74V35.31L20.1,25l.1,8.81-.06-10.6.07,6.06.05-3.58,0,15V34.49l.08,6.74,0-2.61.07,7.7,0-12,.05,2.2,0-5.92.07,11.43V39.3l0-20.64V9.17l0,24.49.07-9.36,0-8.25v14l.06-8.25.07,7.7,0-12.24,0,10.18,0-11.15.08,4.41V14.81l.08,15.27V29l.05-10.73v30l0-24.63.08,4.68V21l.09,10.87,0,57.52.07-77.19v-.42l0,10.19.07,11.42,0-14.18.06,5.51.09-16,0,35.36,0-21.33,0,17.06.09-13.34L22,31.6,22,22.1V22l0,3.57,0,4V20.59l0,1.1L22.21,18l0,10V23.07l.06,12.38V33.66L22.41,39l0-11.15,0,.83.08-9.22-.05,15,.08-6.75.07,9.5,0-13.21.08,8.81.08,2.89-.06-10.19.08,8.53V27.61l.1,8.67v-5.1l.06-7.29,0,15.55,0-11.7.1,9.09L23,24l.07,9.08V19.49l.07,26.14v.55l0-16.1V22L23.3,34.9v2.89l0-15.14,0,3.86.11-3.72-.06,11.83.06-9.35.11,10.59V29.67l0-.69v3.58l0,3.17.06-6.47V22.79l0,15,.09-9.36.1-2.75,0,9.63,0-7.57L24,36.83l0-10,.07.28.08-9.91,0,36.19L24.2,29.4l0,7.29.06-15.83,0,7v1.65l0-10.59.05-7.29,0,33.43.07-12.52,0,8.81,0-24.63,0,7.7V19.21L24.59,39l0-6.88,0-7.71,0,10.05.06-5.37.09,12.8-.05-26.7.07,14.45v-3.3l.07-11.15,0,14.73L25,21l0-4.54,0,11.42.06-9.63.11,16,0-3.44V26.64L25.29,18l.05,13.76,0-12.94v-.41l0,11.14V28.16l.09,11-.05-22.3.07,9.22v7.16l.14,68.94L25.54,24l.13,33.3.09-44.45,0,3.58.06,30.69,0-30.55V13.71l0,16.65,0-4.68.08,6.19,0-16.1,0,5.78V17.29l.06,11.14h0V33l0-10.59L26.29,30l0-8.12,0,17.2,0-3.17.1,5.78,0-13.07,0,11.56v-.69l0,9.22,0-4.68v4.27l0-22.57.08,13.49v1.1l0-13.21,0,3.85V26.64l0,20.51.07-8.67.08,8.25-.06-13.21.08,5.37L27,27.19l0,28.08.07-16V50.45l.09-13.21,0-8.81,0,26.84.05-24.5.11,64.54v10.45l.07-79.53,0,16.79v1.51l0-24.63,0,7.16,0-8.12.08,17.61v-.69l.09-9.49,0,8.12,0,5.5,0-8.39,0,2.89V31.87L28,45.77l0-9.08,0-5.64,0,13.21,0-2.76L28.18,56l0-23.8,0,12.11.11-8.81v1.93l0,6.74,0-7.16.1,3.17v-.69l0,15.14,0-10,.09,6.33,0-9.77.05,1.24.11,11.28,0-4.12.11-3,0,8.53,0-7.29.06,9.35,0-19.67.08,8L29,38.89l0,7.84.12,11.15-.05-23.94.05,20.36.08,10.87,0-21.74V41.92l.06,10.87,0-7.85,0,9.64V42.74l.08,5.65.09-5-.07,8.81.08-3.17.08,8.81-.06-15.69.09,5,.09,10,0-18.71.06,8,0,3.71V77l0-30.28.07,8.4L30,47.56V71.09l0-23.94.05,3,0,13.08,0-22,.06,10.18,0,16.38.07-21.06.06,13.08.07-6.61V44.67l0,18.44.05-5.92V69.44l0-24.36.07,12.8.08,12.8,0-21.19,0,9.08.05,4.13,0-10.19,0,1.52V51l0,13.21,0-.41v.13l0-4,.1,1.52,0-16.38.05,12.25,0-15.14.08,4.13v-.27l0,7.29,0,2.48,0-10.19,0,2.48V44.94l.07,9.22,0-4.67.07,8.11,0-13.07.06,6.74.07-5.36,0,11.69v-4l.06,8.12V47.15l0,14.17.06-4.54-.05,8.67.06-3.72,0,6.06,0-11.29.1,4.68.11-8.8-.07,16,.09-10.6.06,9.63,0-13.76,0,1.24V53.48L32.3,66l0-2.2v7.29l.08-13.62,0,.55L32.55,52,32.47,62.7l.09-7.57.07,17.06,0-26.83,0,8V49.9l.07,15.27,0-10.46.12,18.44-.08-21.32.08,18.71L33,56.92,33,72.47,33,57.74l0,14.45L33.14,63l0-6.47,0,17.07v1.37l0-11.28.06,3.58,0-2.07,0,14.45,0-6.47v2.07L33.45,58l0,8V61.32L33.56,69l0-3,0,5.23L33.67,52v2.2l.06,18,.06-12.52v6.19l0-10.59.06.82v7.43L34,63l0,7.57,0-11,.1,7,0-2.07V76.73l.05-8.81v7.85L34.26,63v-.55l.06,22.15,0-19.95.11,19.82V77.28l.12-5.09-.08,11.15L34.62,73l0,24.76,0-27.1.07,1.79v5.91l.09-10.32V63.25l0,10.45,0-3.16h0L35,59.67l0,16.92.07-8.39.12,25.87V75.91l0-14.59.09,16.1v2.75l0-18.71.06,17.61,0-14.45V58l0,27.52.08-10.46.1,8,0-19.4,0,14.17.06-12.66,0,33.44,0-28.48V67l0,19.68.07-6.19h0l0-14.59,0,29.17v2.2l0-29.31L36,82.1,36.11,69v5.64l.07,78.43,0-85v3.58L36.28,61l0,38,.07-25.45v2.89l.08-13.21v7.29l.07-4.82,0,18.17.1-12.8,0-2.2v7.57l0-3V87.19l.1-16.51.15,14.86,0-4.82L37,74.53l0,18.3.07-13.07,0,6.88.08-11.7,0,4.41.05-11.43V65.17l.06,7.57,0-2.2.1,25.73,0-29,0,6.6v-5l0,13.62L37.56,74l.1,9.22,0-15.83L37.68,78l0-4.27.05,8.4,0,10.59V77.42l.06,4.68V77.42L38,85.67V82.79L38.05,96l0-15.13.1,1.65.08-5,0,18.16.05-12.11v4.27l0-15,.06,3.58V74.12l.09,13.07h0l.08-18.58,0,19.82.06-6.2.1,9.36,0-19.26,0,9.49,0-7.57.06,18.3,0-12,0,17.34,0-25.32,0,9.08V73.43l0,31.51,0-17.61.12,12,0-24.08,0,21,0-12.52.09.69,0,2.89,0-7.71,0,3.3.07-4.26,0,5.5.08-2.48V87.6l0-11.83.06,4.13V78.52l0,10.46,0-.28.11,5.78,0-11.28,0,9.63L39.79,78l0,2.06v6.75l.07-8.67,0,.13,0-7.43,0,17.48,0-9.08,0,11.14L40.1,74.8l0,.42v-.69l0,16.1.05-9.91,0-.55,0,7.43.06,3,0-14.17,0,.82V67.51l0,31.92.08-27.1.19,27.93v-5l0-21.47L40.74,89v9.77l.06-20.37,0,2.62.06,19.54L41,93.11l0-19.27.08,13.49v1.51l.08-8.53,0,5.92,0-10.19.07,13.9V88l.09,9.09,0-15,.07,4.4,0-5.09,0,27.24v4l0-27.38.07,17.48v.82l0-22.7v.41l0,16.93,0-3.31.05,16.79,0-18,.08,4.26.07-11.14,0,21.87L42,94.21l0,8.39v8.94l.09-21.6,0,13.07.06-18.44,0,22.85.11-20.78.06,12.79.06-6.05L42.4,89l0,9.63L42.43,93l0-4.41.09,11.7.12-14.72,0,4.81.09,13.9,0-9.63L43,104.8l-.06-16.1L43,99.57V93.79l.06,6.47,0-.83L43.19,119l-.11-22.84.13,11.42,0-14.86L43.33,103v4.54l0-14.44.08,8.39,0-12.52.05,15.41,0-10v-2.2l.08,7.57,0-3.3v4.13l0-11.7.07,2.48.1,13.62,0-25.59,0,8.94,0-11.15,0,28.9L44,89.11l0,11.7.09-10.18h0L44.15,103l.07-5.64.07-4.82,0,12.39V106l0-19.4,0,6.88V92l0,10.32,0-.68V103l.08-11.69v3.16l0,3.58,0-13.76,0,2.75,0-10,0,14.44,0-7.7.12,16.37v-3l0-8.4,0,13.62L45,94.07v2.34l.11,7.84,0-13.62,0,10.46.06-6.61,0,12,0-5.64.08,13.07,0-18.85.06,8.81.12-15.28,0,16,0-9.09.08,8.81,0-14.58,0-3.58,0,8.39,0-1,0,3.3,0-10.46.06,1.79.16,19.68v-14L46,81.27,46,97.51,46,86.78l.1,11.55,0-7.43,0-6.33,0,14.31,0-12.38.09,6-.06-9.76.07.27V79.35l.05,12.52,0-5.92,0,17.89.08-5.23.05-20.37,0,25.74.06-11h0l0-15.28,0,18,0-1.79V91L47,67.92l0,26,0-24.22.09,26.15,0-16.93h0l0,23,0-30.13V65.45l.06,30.13,0-8.67,0,9.36,0-25.18,0,2.2.07-6.19-.05,12,.06-1.38.1,5.37,0-15.55,0,10.6.05-5.23,0,16.92V84l0-14.31,0,19.54.05-10.87.12,12.8L47.8,77.42l.07,12L48,72.33l0,35.09L48,77.83l.08,6.33,0-14.17v.14l0,6.05,0-11.56.06,1v-.28l0,5.78,0,11.42,0-20.23V55.82l0,18.43.07-3,0,7.56,0-15.27.1,12.39.13-14.59-.07,14.86.08-11.83.11,14V69.44l0-5V74.8l0-1.65,0,6.88.07-15.41,0-2.34,0,7.3.07,5.22L49,63l.06.41V61l.07,11.56.09,5.09,0-13.21.06,9.64,0-15,.09,6.05.06-5.5V72.74l.08-19.54,0,7.43.08-8.8,0,6.74,0-4.27L49.8,69V62.42l0,1.93,0-12.39v13.9l.08-8L50,68.34l0-14.18,0-8.25.07,21.88,0-8.53,0-5.92V67L50.29,73l0-17.89,0,12,0-7,.07,7.43,0-1.24.06-9.77v9.64l0,7.84,0-14.17.07,9.77L50.72,71l0-13.35v-4l0,22.85,0-9.64,0,6.06,0-11.29,0,4L51,51.41l0,15.28L51,65l0,15.28,0-21.05,0,4.26v-7l.08,16.1,0-7.7,0,9.63,0-13.21.07,1.93V60.36l.09,12.93,0-10.73v-.83l.07,8.81,0,15,0-21.74.07.55.07,11.56-.05-14.59.08,2.89v-.69l0,13.9,0-5,0,4,0-12.66L51.91,55V83.61L52,62V56.92L52,76.46l0-11.7.1,5.92-.07-13.76L52.17,65l.1-2.75-.05,14.59.05-12.39,0,11.84.08-13.07V59.94l.06,8.26,0-5.23V74.53l.07-8.26.05,12.39,0-17.34,0,4.27h0l.06,13.89,0-16.1.06,1.52V57.19l.08,17.48,0-5.92v.41l0-8.39h0L53,74l0-14.45V77.14l.08-15.82,0,1.24,0-4,0,10.46V71.5l0-19.26.06,17.34,0-8,0,12.53,0-2.62.06,12.66,0-23.94,0,10.18V52.24l.08,40.31,0,35.92L53.67,48l0,15.69,0-16,.08,9.77.07,14.58,0-20.09.07,5,0,9.22v6.6L54,61l.08,10.74,0,2.89,0-6.2,0,1.24.07-2.89,0,10.74,0-2.89.07,2.89,0-10.32V64.9l0,7.84.1,15L54.37,56l.08,20.64.06-24.21.08,1.92V52.65l0,21.74.06-3.3V83.34L54.7,51l.07,7.71,0-2.34.05,14.44V67.1l0,4.13L55,54.16l.09,21.75,0-14,0,7.16,0-14,.06,6.88,0-6V73.29l.06-4.13V73l.06-13.49,0,8.94.13-12.38-.07,18.58.07-18.17.09,10,0-12.11.08,7.15v.28l0-6.6,0-3.86,0,13.07,0-6.46.06,6.19,0-6.61.08.69L56,52.51l-.06,10.74L56,57.74l.08,9.63,0-6.05.09-4,0,9.63.06-5.78v16.1l0-18.71L56.35,65l.08-11.69,0,12.52L56.48,63V72.6l.1-13.34v3.57l0,12.11,0-13.48.08,7.29.1-4.27,0,15.14,0-11.56.06,7.57,0-14.72.06,1.24L57,48l0,15.41,0-5,.08,21.33V53.2l0,1.1V51.69l.06,11.83,0-1.37.06,17.2,0-27.94.08,12.39.09-12.39,0,20.37.07-12.66.13,21.74,0-22.15.06,20.91.08-14.17,0,30,.06-18.3V91.32l.08-23.12,0,6.33v.82l0-15,0,4.4,0,6.74L58,60.08l.07,12.11,0-13.9.09-5.36,0,13.07.05-3.17.06,6.06,0-9.91,0,2.06.07-7.84,0,10.18,0-7.43.12,9.22,0-11,0,9.77.11-13.21v17.2l.07-21.19,0,9.64.09-5.65-.06,9.64L58.81,54l0,17.88.05-21.32,0,6.19v-.41l0,4.26,0,7.57L59,54V52.1l0,17.89,0-10.6,0-12.11,0,29.31,0-14v4.81l.07-25.31V40.68L59.37,58V76.46l0-46.38L59.47,44v-.27l0,8,.11,9.08L59.54,40.4l.07,13.76,0-8.8,0,14.86.06-2.89L59.85,47l-.1,12,.12-7.84V71.36L60,52l.08-11.83,0,18,0-9.35.08,17.34,0-23.67,0,1.37V34.49l.05,18.57,0-8.12v7.71l.08-12v2.2l0,8.12,0-12.25V33.94l.05,19.4,0-8.12V55.4l.09-14.86.08-2.89,0,10.46,0-1.38.1,19.41-.06-23L60.86,50l.07-17.89,0,21.19L61,50.45l.1,4.4,0-10.32,0,8,0-7.7,0,9.49,0-4.81v4.12l.07,12.11,0-19.4.07,3.17v-.55l0,10.87,0,5.5,0-22.29v4.13l0-10.19,0,3.31,0-9.09.06,12,0-6.61.1,12-.08-18.44.1,11.15V41l0,7v.83L61.83,35V51.41l.08-14,0,3.44L62,36.28l0,11V42.06l.06,19.12,0-25.18.08,7.84,0-9.22,0,17.89L62.3,38.2l.05,10.87.08-6.19V40.4l0,7.16.05-1.24h0l0-11.56,0,17.75,0-7.29,0-5.64,0-8.67,0,13.62,0,11.15V29.53l.07,9.09v5.22l0-16.51.06,7V32.84L63,24,63,37.79l.09-2.48.09,2.07,0-9.08L63.17,35v3.85l.06,6,0-9.76.09,5.5L63.38,33l0,3.58.12,13.21v-16l.1,15,.11,2.61L63.7,39.72,63.77,51l.06-14.86,0,20.5,0-12.11,0,12.66,0-25.32,0,5.51L64,46.05V32.29l0,6.74V35l.06,11.42,0-10.32,0,13.48,0-13.89.06,5.09V34.49L64.43,43l0-7.57h0l.14,21.33,0-13.07,0-6.88,0,14.58,0-4.26.11,7.7-.06-12.79L64.85,48V44l.08,16.79L65,50l0,8.8,0-15.41.06,10.46h0l.07,12.52L65.1,46.32l.07,3h0l0,15.55.09-17.34.07-6.33,0,16.79,0-5.23.09,5.5-.07-16.51.08,7.29,0-10.73.08,10.46V55l.08-20.09,0,9.22.06,8.26,0-16.24,0,8.53.06,6.88,0-10.32.09,5.64V43.71l0,7.43,0-.69,0,8.67V44.81L66.11,51V46.18l.06,12.94v2.06l0-10.46.05,5.78v.69l0-5.09h0l.05-14.31,0,40.73L66.44,66h0l0-14.31.09,8.53v7.29L66.6,52l.08,3,.07,8,.06-21.33,0-6.88V48.52l.07,5,0-16.1,0,6,0-8.94L67,37.1v-.55l.07,7.84.06,8.4,0-14.73L67.22,44V52.1l0-15.41,0,7.7L67.4,39l-.05,6.88.08-1.79.1,11-.08-18.44.09,7.57v-3l.08,11.15v-.55l.1,27.65,0-34.54.06,15.69,0-19.13.09,9,0,6.6,0-14.31,0-4.54,0,24.22.06-20.36.14,27.65L68.14,36l.08,20.23V36l.1,12.8v3.44l.08-21.19,0,15v-5l0,6.47.09-15,.17,20.5,0-4.81V40.82l.07,25.73v2.2l0-20.92,0,1.52L69,57.88l0-13.49L69,50.86l.09-10.18,0,20,.08-11.83v.41l0-8.81V32.7l0,18.85.08-16.79.06,14.18,0-8.95.06-5.37,0,8.67,0-5.78v9.77l0-11.42L69.65,39l0-2.62,0,10.74,0-7.57.08,15.55L70,42.61l0,7.7.13,19.27,0-20,.06,11.7.12-18.85-.06,20.91.07-14.86v9.36l0-18.3,0,6.19.09,53.66,0-74,.06,18.85.1-22.57,0,4,0,11.56,0-20.92.08,7.57V21l0,14.31,0-5.64.12,20.23-.09-23,.1,16.24,0-14.45L71,43.57h0l.06-11.15,0,15.41V50l0-15.83.07,8,.09-5.91-.07,13.34.09-4.12.06,9.63L71.4,40l0-3.71,0,10.45.06,1.66,0-8.67,0,2.06,0-15.27.06,23.66V41.64l.07,5.92,0-8.67.07.83,0-12.8v15l0-.14v6.47l0-15.69L72,42.19v5.23l0-16.37.07,10.32,0-4.82,0,9.08V58.29l.08-19,0,17.89,0-23.8.1,10.87.06-9.91V47.7l0-1.52v6.75l0-16.24.07,4.13.11,10.45-.1-12.93.12,6.33,0-6.33,0,10.18,0-6.33,0-3.71,0,8.25.08,2.21,0-13.08,0,7.57,0-9.36L73,50.72l0-10.18.08,14,0-5.64L73.31,36v5.78l.09,7.16,0-9.09.05.28V38.48l.09,11.28.06,7.29,0-14.58,0,9.36V42.19l.05,14.59,0-9,.07-6.74,0,13.35,0-7.84v5.5l.06-15.55,0,11.7.09-12.39L74,51l.08-8.94.06,10.59,0-13.35.08,8.53.13-9.9L74.23,54l.1-12.39V49.9l0-12,0,2.89.11,6.74,0-11.15.06,7V33l0,30.28.07-19.68,0,8.81,0-20.64.06,13.76.06,1V40.13l0,4.95v6.06L75,46.87l0,5.78.07-6.88v3.3l.06-9.35,0,11.55.09-5.64,0,6.61,0-13.76,0,6.88.11-4-.06,12.52L75.44,44l.07,9.22,0-15.69.08,3.72,0-3.17.05,15.69,0-10.59v.27l0-5.5,0-4.13.06,14.31.09-17.34.08,7.29L76,63l0-28.9.07,6.61.1,7.57V43.71l.07-7.16,0,12.94.08-.14,0,.82,0-9.08,0,1.52V34.49l0,12.38,0-5.37.1,10L76.46,39l.07,7.7.09-13.34,0,8.11h0l0-5.77,0,21.46v6.06l0-28.9.06,13.35.11-17.48,0,18.44,0-5.23V30.22L77,40.54l0-5.64,0,14,.07-7,0-5.23,0,.55V26.51l0,13.07.06-5.92.08,19.13,0-19.27.07,9.77.13-12.93,0,14.72,0-8.8V50.86l.06-17.34,0,7.71.07,7.71,0-17.76.07,4.13.09,9.08,0-16,0,8.53.09-10,0,16.79,0-2.89L78,51.14l0-22.43.07,13.76L78.18,32l-.07,20.78.08-15.41V45.5L78.28,30l0,9.77.11-5.92-.07,10.73L78.42,37l.12,11.15,0-12.52,0,10.32.1-8.81,0,12.52,0-6.33.07,3.44,0-7.43,0,1.38h0v6.6l.06-3.57,0,4.26,0-20.91,0,10.87V30.36l0,14.17L79,35.31l.1,9.5,0-16.38,0,9.77,0-19,.06,21.33,0-10.59v-7l0,12h0v4.4l0-17.33,0,2.33.07-4.4,0,11.42.08-8.8V19.76l0,13.63,0-5,.06,9.08,0-11.83v6.06L79.81,40l-.07-11.56.1,6.19L80,30l0,15.13L80,30.5l.1,21,0-23.12.06,13.07.12-17.88,0,18.3,0-10,.08,5.23V24.44l0,7.3,0-18.58,0,20.36,0-.13,0-5L80.55,39l0,4.95V31.87l0-5.78,0,16.38,0-8.53V56.23l0-31.1.06,11.7,0,11,0-11.28.11,1.51,0-2.88L81,48.25V45.08l.07-7.84,0,9.91V41.5l.1-13.89,0,17.06,0-11.83V30.08l0,11.7.07-5.92,0,7.43.07-13.62V34.9l0-5.09,0,7.7,0-4,.06,4.27,0-7,0,2.2v12l.07-2.47.08,6.74,0-20.36,0,8.94,0,1.93,0-6.2.06-7.29,0,21.74L82,38.75,82,53.06,82,29.4l.09,13.07.05-5.23,0,8.81.07,14.17,0-29,0,9.64,0-12.11,0,19.81.09-12.93,0,5.91V30.91l0,1.24,0-10,0,19.82v-.28l0-12.52,0,.41,0-3.3v9.91l0,2.06,0-13.21,0,5,0-6.61,0,8.53,0-1.65,0,5.37,0-10.73,0,3.85.08-5.78,0,12,0-1.79v1.51l.07-18.85,0,11.15,0-5.09,0,12.79,0-7.84v4.13l0-11.15.06,6.88.09-8.94,0,13.35.07-5.23.08,9.36,0-14.18.06,2.07.1-10.87-.07,11.69.08-3.71V15.77l.07,10.74v.68l.06-10.59,0,8.81V22.79l0-3,0,9.5,0-6.74.15,13.07L84,14.67l.12,18.72,0-18L84.26,25l.09,4.82-.06-12.66.08,4v-.28l0,7,.09,11-.07-13.76.08,6.19,0-15.82.06,36.33,0-22.57.1-22.71-.07,50,.08-31.23.11,11.28,0-19.95,0,17.89.06-19.82,0,18.44L85,36l0-17.06,0,13.35.1-17.07,0,7.57.12,6.74L85.2,16.87l.09,10.05,0-10.73.06,21.87,0-21.74V15.5l0,12.38.06-5.64.06,9.22,0-14.59.08,3.31V13.57l0,18.58,0,1.24,0-15.55.06,8.53,0-8,0,19.4v2.75l0-16.24.08,14.59v.83L86,21l0,7.85.06-8.26,0,11,.1-6.74v3l.09-12.24V9.72l0,29.31.06-7.29.11,4.81-.07-17.61.07,16.65.1-20.5,0,14v.41l0-10.59V17.15l0,14,.07-9.49.09,14.86,0-20.5.07,8.81V13.71l.09,13.48v-.27L87,23.2l0,10.87L87,29l.09,3.44L87,20.86l.07,6.88v-4L87.12,32l.06-6.88v4.13l.09,13.9,0-16,.07.69V18.11l.08,14,0-8.12.07,8,0-14.86.07-6.74,0,18.16.07-5.64v1l0-12.79.06,7,.07-3,0,5.77.08-2.47.09,8,0-8.81.06,5.23h0L88,30.36l0-10.73L88,25.27l0-5.78,0,13.21,0-7.16V21.69l.08,7.84,0-3.71.12,21.33-.08-24.22.08,23L88.46,22v.68l.07,12.25,0-13.62,0,9.35.1-14-.06,16.1L88.71,22l.08,12.38,0-18.85.09,16.1V22.38l.06,13.21V47.7l0-34.27L89,24.72l.07-9.08,0,24.49.08-12.66.06,11.42,0-13.76,0,.55V19.21l0,17.07L89.29,30l0,10,0-12.25,0,4.41L89.46,20l0,13.21,0-11.42v-.28l0,7.57,0-2.48V32.7l.07-12.52,0,4.12.07-7.15L89.68,28.3l.09-2.48L89.88,33l0-9.08,0,5.51,0-9.09L90,41l0-12.24,0,3.71,0-9.35,0,.41.1-6.06v11.7l0-8.39,0-2.75,0,10.45,0-5.36,0,4.12,0-10.73.06,7.43h0l.12,11.84-.06-14.31.07,11.28v1l.05-6.74v.55l.09-1.65,0,9.77L90.73,29v7l.05-13.76L90.85,35l.08-16.38,0,8.4,0,5.23.07-10.6.1-4.4L91.09,28l.09-7.43,0,3.3,0-9.22,0,2.34v-.69l.07,6.61.08,6.33-.05-10.18.08,5.5,0-5.5,0-4.13.06,9.77v4l0-14.17,0,6.05,0-9.36.06,13.63V21l0,13.07.06-16.37,0,5.09,0-5.37,0,16.24,0-5.78.09-16.37,0,17.61.06-3.58.06,16.1,0-22.56,0,12.79.07-9.9,0,11.14h0v-10l0,11.55.06-7.7,0,5.09.05-9.91,0,2.2h0l.07-5.64,0,9.64.08-5V47.56l0-36.33.08,15,.06-12.66,0,15.41,0-8.67L93,34.49,93,27.33,93.1,13l0,20.09.06-3.58v10.6l.06-23.81,0,7.71.11,13.07V22.93l0,8V26l.07,10.18,0-4.13,0-7.84,0,11.14,0-8.67,0,12.94,0-16.24,0,3.85V30l0-10,.07,5.37.07-6.61,0,8.4V29l0-12.24L94,20l.06-11.15,0,16.38V20.59l.07,10,0-8.8V20.59l0,15.55V30.08l.08,23.67,0-25.32v1.93l.09,31.51.05-6h0V46.73l0,6.88.09-14.44.15-20.37v.28l.09,12.38-.07-12.93.1,5.64,0-5.09L95,27.47,95.14,13V26l.09,10.32,0-22.16,0,8.4,0-9.64,0,15.55.06-10.73.07-5.5,0,12.38.08-9.36,0,18.17.12-9.91v7.15l.06-1V34.9l0-15.41.06,4.81h0l.13,12.25-.07-12.8.07,9.36,0-11.28L96,35l.07-6.33.06,9.35,0-10.59h.05l.09-5.23,0,6.47.06-2.2.09-2.89-.06,11.14.06-8.12.05,8.67.06-12.93.07-2.75,0,9.35.05-7,0,13.07.07-14.45,0,11.83.07,5.78V26.64l0,1.52.11-11.56,0,14.31,0-10.32,0,9.77.07-8L97,19.9l0,8.4L97,24.44l.09,14.31,0-15.13v-.83l0,13.62.06-6.33.08,5.23,0-13.21.06,8.4,0-5.92.07,15.55v3.16l.08-13.76V24.44l0,17.2.09-14.45.07-3.71,0,6.6,0-4.81,0,6.05,0-9.9,0,1.92v3.85l.06,19.13,0-21.6v-1.1l0,9.63.06-5.64v4l.07-10.74,0-3.85,0,23.39,0-16.92,0,10.87.06-7.84V20.45L98.47,32l.12-14.31V31.18l.08-18.71,0,13.9,0-14.45.1,7.57.07,12,0-16.92,0-3.86V25h0v.69l0-10.87,0,3.44V9.31l.06,18.16,0-4.27.12,23.12L99.24,13l.06,30,0-27,.1,8.81,0,9.21,0-21.46,0,9.49,0-8,0,9.22v-5.5l0-2.89,0,8.94v-10l0,2.61.09-3.58-.06,18.3.06-14.86L100,30.91l.06,2.2,0-11.56.06,3,0,6.05.06-10v2.75l.11,12.8V34.9l0-9.91,0,16.51,0-13.76V22.65l0,19.68,0-11.56,0,8.4V22.93l0,2.48.08-2.62,0,16.38,0-10.74v30l.1-37,.07-4.27,0,16.92.05-8.66V23.2l.08-4.67,0,12.24,0-3.16V33.8l0-3.44.09,10.46,0-15.28,0,.14,0,7.16.07-9.91,0,5.23.08-13.9,0,20.92.1-13.76L101.59,36V30.63l0-8.53.07,9.5,0-4.27,0,5.37,0-13.9,0,8.81,0-6.61,0,27.11V87.74l0-77.75L102,22.93l.07,5.92V13l0,3.44.11-3.85-.07,15.82.07-14.86,0,15.28.08-7.3,0-7.7.06,10.87,0-3.44,0-1.1,0,8.53v1.51l.07-10.32,0,4.68.08-4.54,0,6.6,0-1,.1,6.33,0-10.46,0,7,0-6.88,0,11.56,0-5.09,0,5.64,0-8.39,0,4,.08-9.91V35.31l0-5.78,0,3.58.06-7.57,0,6.61,0-4.27,0,13.35v1.65l0-16.37,0,.41V18.53l0,10.18.08-5.23,0,2.75.06-9.91,0,6.75.07-14.86,0,20.09v7.84l0-23.39.06,6.05.06-5.78,0,15.41,0,8,.05-17.47,0,15.68.1-11L104,35.31l.08-7.7.12,14-.1-16.23.12,14V30.08l0,27.94,0-16.79.08-13.07,0,18.71.09-9.08,0,1.79V33.66l.09-7.7,0,11.42.06-5.78,0-8,0,11.69.08-6.6.1,6.74V26.64l0,3.17.08-5.92,0,8,0,2.34V28.16l0,1.37.08-12.24,0,9.9.13,8.67-.09-11,.12,6.46,0-9.77.08,11.7V30.36l0-10.87,0,2.75.12,7.16-.08-7.71.09,4.68v7.15l.08-2.34.09,7.85-.06-12.8.08,9,.1-7.85,0,15,.06-9.49V37l.08-13.62v-.27l0,4.54h0v4.81l0-10.73,0,1V19.9l.06,12.66,0-1.24V33l.06-9.77,0,2.21.07-6.33,0,12.1.06-8.53.1,5.37-.05-9.49.07,7.84,0-14,.1,10,.1,23.67-.08-26.56.1,8.25,0-16.64,0,35.77L107,29V31.6l0-8.4.06,6.61.11-5.23,0,10.32,0-7.57.06,18.17,0-26.84.09,13.49.08-16.93,0,17.2.06-5.23v4.27L107.51,20l0,4.54h0l.11-8.67-.07,13.49.07-11,0,11.42V17.56L107.78,29l.11,5.51,0-9.22,0,5.23,0-6.75,0,10.19.06-3.58L108.09,55V29.53l0,.55,0-7.7,0,12.66,0-5,.1,12.11,0-12.24.07,10.18v.41l0-10.46,0,1.1.09-5.64,0,12.52.07-8.66.1,4.12,0-9.77,0,8.54V24.44l.07,8.12,0-5.64.07,13.9,0-4.27.14-18.3-.07,21.47L109,21.83l0,16.79.1-9.77V23.48l.08,29.58v4.68l.08-19.26,0,10.87,0-12.25,0,18.72,0-6.33V42.74l.09-11.14,0,24.22.06-12.53,0,22.3,0-35.23,0,3.16,0,6.88,0-9.08,0,3.86,0-5.1.06,9.09V36.41l.05,5.78,0-8.25,0,2.61.07-9.08.12,19.26V36.41l0-1.65,0,21.33V50.72L110.37,35l0,6.6.07-6.46,0,14.86,0-5.23.06,7.84,0-12.93.07,5V57.19l.06-9.49.06,7.57,0-13.77,0,4.68.12-6.74-.05,10.05.06-9.09V52.1l0-14.86.08,8.81,0,17.06,0-32.06,0,20,.08-18,0,.14,0-1.65L111.34,43l.1,2.2-.06-9.49.07,8,.06-6.06,0,13.9.09-11.28v8.8L111.66,36l0,8.39,0-5.22,0,8.11.06,9.09,0-16.52v-3.3l0,13.62,0-1.92L112,61.46l0-19.68,0,9.49v1.11l0-12.39,0,.41V38.06l0,15.42.09,3.85-.07-11.83.09,7.7.06-11,.06,5.92L112.44,67l0-25,0,2.75,0,14.72,0-16.65,0,8,0-6.74,0,16.79.08-6.88V40l0,21.33.06-9.91L113,69.16l0-18.57,0,14.31L113,54v14l.08-1.51,0,6.74,0-16.1L113.18,69h0l.11-13.35-.05,14.17.08-10.32,0,4.54V57.33l.11-8.12v2.34l.07,9.22,0-10.87V48l.08,11.84v1l0-11.56.07,5.37,0-8.4,0,14.18,0-3.86,0,11.56,0-13.9L114,56l0-6.74.08,14.17v1.1l.06-14.31V42.61l0,20.77,0-8,.08-5.91,0,10,0-4.68.11,22.71,0-34.68,0,32.34.08-27.52,0,8.67.11-14.31,0,7.56,0,5.09,0-9.49v5.23l.08-11.7-.06,16.38.1-11.56.13,11.83L115,42.61l.08,6.33.07-7.71,0,9.08,0-2.89,0,6.33,0-9.77.07,3.17.06,12.52,0-17.2.09,13.07.09-8.94,0,11.28,0-5.78.1,9.63-.06-15,.07,7,.1,1.65,0-15.27.07,16.79,0-17.89,0,6v6.47l.09-9.22v4.82l0,7.15,0,5.64.07-9.77,0-1,0,8.81,0-1,0,15.69,0-25.18,0,5.5,0-5.91,0,13.21,0-7.16.12,8.39-.08-9.08.1,5.23.08-3.44L116.54,63l.08-5.23.11,13.9,0-16,0,10.32.08-12.39,0,8.54.1-6.88,0,16.64,0-16.09.08-10.6,0,13.35L117.1,54l.06,6V49.76l0,4.13V49.07l0,13.08.08-3.31,0,10.32V54.3l0,4.68.07-5.5,0,12.11.07-5.65v5.78l0,15.14,0-24.77.07,11.83,0-3.3V95.17l0-40,0,8.67v-5l0,14.59,0-2.89L118,80.72l-.06-12.8.07,10.6.09-22,0,12.39.1,17.61-.06-34.4.08,27.8.07-23.26.05,5.64.08,11.7,0-12.66h.06v-1.1l.06,13.35h0l.11,6.6,0-12,0,7.71.1-16.93,0,6.88V66l0-2.89V73l.07-4.55.06,7V65.86l0,5,0-6.88,0,10.19,0-3.58.09,19.81-.08-23.53.11,6.06v3l.05,10.87,0-11.84.09,10.32v.55l0-13.21V69.71l.08,13.76,0-11,0-1.93,0,7,.07,6.19,0-9.63,0,6.19.11-9-.08,12.39.09-7.16.08,6.88,0-7.29v3L120,66.14v7l0,5.09,0-11.14.07,2.34V73.7l.11,6.06-.06-12.94.07,8.53.12-8.53L120.3,79.9l.06-9.22.06,19.67,0-21.6.09,10.87.08,7.84,0-11.42.07,3.72.07-6.47V86.5l0-9.63.07,5.23,0-16.24.07,10.46.11-7.57,0,8.26.06-7.57,0-1.24L121,77l0,4.4,0-14.31,0,5.64v-6.6l.06,15,0-2.61.09-9.77,0,11,.07-5.51,0-2.2.06,14.73,0-5.92,0,10.46,0-.14v6.6l0-21.74,0,10.74.12-8,0,13.76,0-12.24V93l0-25,.09,20.23.05-12.8,0,13.35,0-3.3V98.61l0-19.54,0,12,.08,6.61,0-10.32,0,2.2,0-7.43,0,8,.06-6.33.12,6.19,0-9.63,0,8.25v.55l0-11.42,0,4.27V79.62L122.57,93v9.35l0-21.32.06,9.35,0-7.43,0,11.29.05-6.47.11,7.7-.07-20.5.08,16.79V85l.06,19.26,0-8.53,0,2.61,0-7.7.08,3.58,0-6.61,0,10.6,0-5.51v6.74l.1-14.17.05,26,0-29.86V76.59l0,30.41.06-18,.07,7.57,0-13.9v-1.1l0,13.48,0-2.34v3l.08-15.27,0,9.9h0l0,5v5.09l0-8.67.06,5.92,0-14.73,0,19.54.1,12.8,0-19.27,0,8.67.13-12,0-3.85,0,12h0V91.59l.06,13.76,0-.14.09,2.62,0-13.07,0,5.91.11-6.19-.09,17.89.1-16.51.08,11.56-.06-15.55.08,5.09.12-5.37-.08,8,.08-6.19.1,8.12,0-12.11,0,5.92V91.59l.08,18.44v-.55l0,4.4,0-13.89.06,8,.06-7.85.06,4.68v.55l0-8.94v.82l0-1.24v16.1l.08-17.88,0,5.09.11-6.33-.08,16.65.09-13.21.05,2.89,0-9.5.06,3.58,0-6.47,0,11.42.1-4.4h0l0-3.44,0,12.25,0,1.79,0-12.8v-.41l0,10.59.1,6.33L126,98.06l.08,4.54.05-6.88,0,11.15v-2.34l.11,5.36-.09-14.72.1,12.8.08-12.39-.07,14.17.11-4.54.06.69V98.61l0,3.85.09-11.14L126.51,108l.08-8.81.08,11.28,0-6.19.06,1.93,0-12.39.06,6.2.11-7.3L126.85,103l.06-7,.1,10.46,0-16L127,101l0-12.52,0,20.36.06-13.35,0,12.11.1-4.81.07-5.78,0,15.68.06-5.09v3.58l0-20.36.07,13.76.06-17.48,0,28.48L127.6,99v4.68l0-10.18,0,6.88V95.86l.07,13.89,0-3.44,0,9.77V98.88l.09,11.7.1-5.5,0,12.79,0-9.35V119.8l.08-20.5V93.93l0,24.22.06-18.58.08-5.36,0,10.18v-1.1h0v3.44l0-14.86,0-2.07.05,12.94,0-6.33,0,10.73,0,4,.05-8.94,0,4.4v-2.75l.08-7.71,0,15.55.1,20.92,0-35.78.06,18.85,0-22.7.08,15.55v15.27L129,100l0,7v1.1l0-12.79.06,9.22,0-6.75,0,10.74.05-6.75.09,9.09,0-10.6.07,6,.06-10.59v13.07l0-6.19.1,12-.08-14.31.09,3.72.1-5.51v3.72l.08,8.94,0-10.18.06,5.5v.42l0-8.81.07-4.82,0,9.08.07-1.78,0-2.62,0,8.53.12,8.26,0-16.1,0,15.55,0-23.39,0,26.69.15-23.67.07,9.77,0-15,.09,3.72v4.27l0,9.35,0-14,.08,10.32,0-12.94,0,17.06.06-8.11.1,5.64-.07-14.17.08,11.14.11-12.66-.07,16.65.07-14.17V86.09l.09-7.16-.06,30.27L131,88.29l.11,13.62,0-19,0,12.11.1-5.78,0,13.62,0-11,.11,15.27V105.9l0,1.79.08-9.91,0-2.61,0,15.82.06-2.06v6.33l0-15.69.06,5.23,0-9.22v27l.06-16v8.53l0-13.35,0,2.07.05-14.73.07,8.54.09,8.8L132,87.88l.08,13.89.09-12.1,0,9.35v1.65l.08-7.43V89.67l.07,12.1,0-8.39.09,10.87,0-15.55.05,4.54V92l0,15.28,0-6.47,0,6.61V98.75l.07,1.37v-7l.06,12.1,0-2.89.09-12.1.06,8.25.12,14-.07-18.58.07,14.45.13-16.65v2.48l.09,12.24,0-13.07.07,6.88.12-12.66v4l0,3.17.06-10.32.06,13.89v8l0-22.42.07,5.91V87.74l0,16.37,0-5.78.06-6.6.06,13.35.09-19.54,0,12.66v1.1l0-18.72.05,8v-3.3l0,14.17.08-3v.82l0-10.18,0,1.24V82.51l.08,19.54,0-6.33,0,3.85,0-16.92.09,12V76l.07,24.91,0-8.53.08,13.21-.07-18,.09,3.72.06-8,0,16.92.08-6.88.06,24.08,0-28.07,0,.14.09-9.63,0,16.37.05-6.19v13.76L135,80.58l.05,3.86.06-17.75,0,45.68.08-34.13.09,16.93,0-8,.08-4.68-.05,19.81.09-19.67v4.68l0,22.56,0-26.69.06,1.79.06-1.1,0,12.79.05-7.84,0,5.92V85l.07,1.51.08-7.71,0,12.39.08-9.36,0,23.94.11-15.27.13-11.7-.11,22,.11-20,.1,16.65-.08-17.89.09,7.57.11-13.07v4l.12,13.21V88.43l.08-19.54,0,29v1.79l.07-21.47,0,5.1.08,9.63,0-12.94.05,5.23V80.45l.08,4.67,0-10.18v-.41l0,11.14v3l0-15.13.07,5.78.09-15.28L137,82.79l.11-13.9.08,12.79-.05-16.92.07,3.44V64.62l.06,16,0-8.8.09,16.51,0-16,0-6.61,0,16.79,0-1.79v.41l0-8.53.1,5.09,0-8.66.11-12.11-.09,19.4L137.83,62,138,74l-.12-16.65L138,69.85l.12-17.06L138,70l.1-14.31.1,18.44,0-14.86,0-2.48,0,4.68.09,6.46V55.27l0,7.7,0-7.43,0,13.9.09-10.18.06,18.85,0-19.82,0,10.18,0-8.53,0,14.59,0-.41v4.4l0-16.24.07,10,.08-10.18-.06,14.17.07-3.44.08,6.88V61.59l0,8V74.8l0-8,.07-12.93,0,24.49.09-20.78.11-4.54,0,12.53,0-10.05.05,12.8.06-5,0-4.4.06,11.42,0-8.81,0-4.4.07,10.46V61.32l.06,13.21,0-7V72.6l0-8.25V62l0,14.86.08-7.71,0,8.81.07-9.36v4l0,25.46,0-34.26,0,9.35,0-9.77V79.07l.07-12.52,0-3.3,0,11.42v8.8l0-17.47.07,9.63V67.79l.1,9.22.05-6.2,0,11.84v2.06l0-20.23.06,9.77.06-14.72.07,6.19.07,11.84,0-13.21,0,4.12,0,8.26L141,57.19h0l.09,10.73,0-11.28V53.89L141.18,67l0-.55V79.48l0-14.58.07,3.57v-.13l0,3.85v-7l.11-10-.09,18.16.1-15.69,0-1.37,0,8.8v3l0-11.28.05,3.16.12-13.89-.09,21.19.1-12.39,0,2.2.06-10.45v.82l.08,18.85,0-15.55V49.35l0,17.75.05-5.51,0,12,.06-20.23v7.43l0-8.26.06,14.59,0-4.54L142.3,77l.06-11.7,0-11,.07,21.19,0-14.58.09,12.38,0-15.14.05,11.15.06-12,0,15,0-11.29.09-5.64-.06,8.26.08-2.62.11,4.82-.08-12.25.09,10.19L143,51.27l.05,11.56v1l.05-14.86,0,4.12,0-2.2,0,7.85v5.36l.08-14.72v1.51l.05,16.79,0-6.88.07,13.62,0-23.8,0,3.85.08-6.74,0,17.2.07-12.52.06-3.58.06,18.3.13-11-.12,12.11.13-10.05,0,14.59,0-18.85.08,8.67.14-18.44L144,71.36l.11-24.21,0,14.86,0-18.3,0,8.39.11-5.64,0,14.72.05-12.52.11,10.6V55.68l.11-15,0,35.78,0-32.75,0,15.82.07-13.62v12l0-9.08.07,5.91.1-7.43-.08,12.94.09-6.06.08,8.12-.06-15.55.1,9.77.06-12.93.06,4,0,4.95,0-8.8,0,3.57v-7l0,14.86.06-4.27,0-11,.08,16.52.06,9.63V47.28l0-16.23.06,19.67,0-.68.07,8.94V46.32h0V51l.11,9.08-.06-12.8.07,9.22.1-10.59-.05,16.37L146,55.4l.08,11.42,0-16.37.06,4.13,0-6.06,0,10,.05-4.82.08,3.58,0-8.39.05,6.33,0-8.4,0,16.1,0-9.77.06-5.23,0,6.74.06-1.92.08,19.81,0-31.65.06,8.54V43.84l.09,9.64v-6.2l.07,8.95,0-7V44.94l.06,14,0-3.16,0,5.91L147,48l0,6.88,0,9.22.08-16.79,0,19.13.1-14.31V48.52l.06,12.94L147.43,50v3.85l0,4.68,0-9.22,0,1.79.06-5.64,0,10.32V53.89l.11,10.46,0-14.18.05,8.26V53.34l.1,7.57V57.19l0,2.89,0-7.84v1.24l0-5.23,0,16.37.05-8.53.06,14V54.44l.07,9.63.06-15.13,0,24.21.09-15.82.1,20.36,0-13.21.08-14.72,0,18,.07,5.09,0-8.26.06,7.85,0-16.38.09,9.91.1-12.8,0,8.39.1,7.85,0-15.83L149,65.45h0l.11-11.7L149,70l0-9.5,0,14.86,0-15,.09,7.15.05-8.25,0,19V92l0-40.17.07,20.5.05-15.14.06,13.49V83.2l0-26.7.07,13.08v4.26l.07-10.73,0,1.24,0-1.38,0,8.94L149.8,65l0,10.6,0-11.83,0,6.19.13-10.87,0,11.69.05-9.35.11,22.43,0-25.6,0,17.34.13-13.21v.14l.13,12.79.06-4.81.06-5.64,0,13.62.09-13.07V65l0,8.81V84.71l.05-12,.07,10.05.08-13.63.05,4.82L151,79.9,151,68.06l.07,4.13.06-6.6,0,13.62.06-1.65h0l.06-16.24,0,16.37.05-16.1v9.5l.09-12.8v.14l.11,5,0-6.46,0,6,0-6.74,0,11.56,0-1.1v1.23l.13-10.45V50.59l.05,10,.05-5.09,0-4.54,0,12.11.05-8.4.09,15.83,0-25.18.05,9.91.07-7.3-.05,14.59.08-5.37.12,9.22-.08-9.77.08,6.61L152.39,48l0,21.19.08-8.94.12-11,0,13.49.05-6.88.08,15.68,0-17.75.07,3.85v1.93l0,7,0-12,0,3.57.07,4,0-8.67,0,3.44.08-7.16,0,20.09L153,58l0,10.45.05-15.13v-2.2l.07,23.11v3l.06,2.75,0-14.17h.06l0-5.37,0,19.54V74.39l0-24.08.12,7.29,0,23.81.08-32.2,0,16.65,0-14.45,0,15,.06-6,0,.13V51.27l.07,11.29,0-3.85L154,69.3l0-14.72,0,5.64.08-6.61L154,67.51l.07-2.89v-5.5l.09,5.23.07,6.6,0-8.25.18,13.48-.14-14.72.14,11.83.07-6.6,0,10.87.07-.14,0,12.66,0-16.93.07,1.93.07-9.91,0,27.66.08-19,0,9.63.08-2.61,0-11.56V94.21L155.05,71l0,11,.06-21.47V69l0-8.67.1,6.74,0,3.16,0-13.76,0,3.17v-4.4l0,12.24,0-1.65.06,9.63,0-10.87.08,1.79.07-7.15-.06,8.39.09-.69.09,8.39-.05-16.23.08,11.42.11-7.71-.06,13.49L155.88,65l.1,11,0-20,0,9.5,0-4.27.07,12.8V65.86l.09,4.13.06-9.91,0,17.2.07-8.81v2.62L156.36,54l0,3.16.1-5.92,0,21.06.07-19,.18,45.13V77.56l0-15.28.06,21.19,0-12.79v-1.1l0,16.65L156.9,76v3.58l.05,11,0-17.34v-.55L157,85l.08,10,0-19.4.05,11.28.18-20.64-.17,23.53L157.33,70l0,9.08.06-14,0,9.77.06-20.91.07,9.63.11,20.09,0-23.8,0,16,.08-14.59,0,25.46L157.8,70l0-9.63,0,14,0-9.63L158,79.21l0-16.38,0,3.58.09-2.48-.05,8.81.06-2.89.06,7.43,0-12.38.1,6.46V66.55l0,12,.05-4,0,7.29,0-12,.05,2.48v1.24l.09-8.67,0,11.69.05-4.54.09,3-.06-7.29.07,1.79.1-7.16-.05,10.87.07-10,0-3,.06,11.69V82.65L159,62.83l0,.14,0-3.44.05,11.7,0-.42.06,3.72,0-11.83,0-1.38V82.51l.07-30.82,0,5.78.08,13.07.06-4.82.08-7.84,0,6.47.06,3.44,0-8.4.09-10.18-.07,22.15.09-4.67V59l0-11.83.07,18.57,0-11L160,64.76l-.06-12.25.07,11.7,0-7.16.1,3.31,0,9.9,0-14.31,0,1.38h0l.1,5.64-.05-8.53.07,4.54.06-8.39,0,11.83.09-1.65,0,4.13.06-11.84,0,7.43V65l.09-6.6,0,9.77,0-11.42.09,10.73.07-7.7,0,11.83.08-1.38.08,9.22-.05-18.57L161,77.83v1.24l0-19.68.08,16.1.05-18.57.07.41.06-7.71.05,7.85.1,11.83,0-5.92.07-8.39,0,9.36.06-.42.1,11.42V57.19l0,12.39,0-9.09,0,16.24,0-4.54v-11l.09,13.07v-.41l0,.55,0-3.16,0,.68.11-11,0,22.84.05-19.4.07-18.17,0,42.11,0-11.15v1.38l.07-18,.11-1.51,0,13.76.05-12.52v69.49l0-80.22.07,14,0-13.48,0,23.94.07-6.06,0,5.78,0-14.58.06,2.61V59.94l0,14.45,0-6.19.09,6,0-9.08,0,3,.07-6.33,0,12.52,0-3.44.06,5.23,0-13.48.07,5.5.09-5,0,10.73,0-3.85v9.08l.08-20.09,0,6.19v2.61l.09,16,0-20.64.05,13.21V68.2l0-2.06,0,10.18,0-1.52.08,6.2,0-12.94,0,1.24h0l0,30,.09-35.23.07-5.64,0,12.25,0-2.76.09,7.85,0-19.4.07,5.36V56.78l0-3.72,0,13.63,0-9.77L164,72.05l.07-10.87,0-3.3v9.63l.07-5.09,0,13.07,0-22.15,0,7.43v-.69l.06,8.39v5.37l0-15.41.07,3,.1,13.89-.07-18,.09,8.53.07-9.36,0,13.49.07-2.89.11,6.47,0-21.88,0,19.4.1-22.43,0,4.68.11,10.32,0-10.73,0,9.77.1-14.45,0,10.59,0,6.75,0-17.89.08,9.9,0-5.5,0,11.56h0l.06-11.42,0,15,.08-2.62.1,19.13-.06-23.53L165.6,71l0-7.84,0,18.16v7L165.77,52v3.72l0,26.14,0-29.86.06,5.78V48.66l0,19.13.05-11.7.08,7.29,0-16.37v3.44l.13,16.24,0-23.81,0,19.95,0-14.58.07,15.27,0,1,0-12.38V45.63l0,21.74.07-3,.06-15.69V64.48l0-8L166.77,74l-.1-20.09.1,15.14.06-14.59,0,16.51.09-10.46.06-15,0,22.42,0-9.77.08,11L167,51.41l.1,17.06.12-8.53,0,18,0-17.34,0,11.28.08-10,.07-4.54v9.49l.05-4.67.06,5.91V56.92h0l0-5.51V62l.07-2.89V74.53l.1-13.49V59.67l.08,11.56.06,5.78,0-15.42.07,5.51.12-13.62-.1,19,.12-13.76.11,17.88,0-22.29,0,15.55V50l.11,5,.1,17.61-.09-18.71.14,12.8,0-22.71,0,23.12.15-14.31.1,9.36-.06-13.35.07,6.74.1-10.32,0,16.24,0-8.81,0,3.3.07-15.55L169,55h0l0-9.63.08,6.19,0,7.29,0-11.14.05,4.4,0-7.16,0,9.77,0-1.51.08,6.88,0-11.56.06,3.86.07-5.78,0,8.67,0-3.17V64.21l0-25.87.05,5.23v-.83l0,11.42,0-2.06,0,9.49,0-15.41,0,11.42,0,4V54.71l0,.14.1-12-.08,15,.1-10.6L170,52.1l0-9.22,0,1.38.11-5.23-.06,20.5.07-16v5.78l.07-7.29,0,5.22,0-3.44.05,14.45,0-4.81,0,7.29,0-10.05V43.43l0,19,.08-11.56,0-9.36,0,9.5.11,15.27-.06-18.16.07,7.16V53.2l.08,13.07v2.89l.08-16V54L171,43.57l0,13.07.07-6.88.09-10,0,14.44,0-6.6V63.8l0-20.51.07,7.85h0l0,6.6,0-10.87V81.13l0-36.87.07,2.34V42.19l.05,13.35,0-8.39.11,25,0-16,.11-13.76-.08,27.93.1-23.25,0,33.43,0-37.29.08,26,0-11.7,0-12.52.06,27v.55l0-14.45V41.5l.06,64.26,0-56.14V45.77l0-9.77,0,21.88.09-13.62h0l0-11V48l0,3.86,0-14.59,0,10.18.08-9.91,0,8.12v5.64l.06-16,0,7,.06-3v14l0-5.51,0-7.7.08,22.43L173,48.8,173,66.69l.11-12.11V56.5l.05-12.24,0,7.57,0-1V65l0-17.33.05,5.64,0-13.07.06,17.61,0-8.12,0,10.73.06-15.55.06,9.09.1-21.74,0,12V42.47l.11-15.69L173.72,44l.06-13.9.06-1.1.08,21.74v3.72L174,39.72,174,48V43.71l.09,20.5,0-9.91V49.76l.08,23.39V74l.05-9.91,0,1.38.06-26.56,0,18.44v3.58l0-24.77.07,2.2V30.91l.08,18,0-3.17,0-11.83.05,14.58.06-5.5.09,8.39-.06-15.55.08,7,.12,9.91-.06-16.1L175,46.87l0-13.21.07,16.65,0-12.93,0,10.32.07-13.63h0l.06,17.34,0-17.89.11,8,.08-3.3,0,14.45.09-12.11V35.31l.09,11.84V37.93l.1,15.68,0-22.43.06,9.09.06-4.68,0,9.77.08-2.62,0,5V39.58l.07,5.09.05-5.09,0,12,0-11.7.13,20.51,0-22.85.05,9.91,0-10.59,0,18.71.06-1.79,0,4,.07-16.24v6.61l0-3.44V65.59l0-9.64.07-8.67,0,15.42V52.93l.07,18.85,0-9.91,0,6.33.06-17.89,0,13.9L176.82,43l.08,6.19,0,2.89,0-6.33,0,1.65,0-6.05,0,11.69.06-4.12,0-6.06,0,13.35.06-3v1.51l.07-11.55,0,7.56V41.09l0,10.6.07-1.38.09-9.91-.06,13.21.07-2.34,0,14L177.55,44v.83l.12,21.33-.11-24.77.12,14.45.05,6.19V41l.07,14,.1-7.71-.06,15,.07-9.35,0,37.56.08-38.8v-1.1l.06,13.34,0-6.74,0,8.67,0-23.25,0,13.48,0-16.51.09,2.75.06,12.8,0-19,0,13.9.13-15v5.5l0,5.78.06-14v1.92l.18,11.15L178.72,33l.17,8.26V37.51L179,47.56l0-6.33.07,6.19V35l0,1.51V34.76l.07,17.62v9.9l0-24.63.06,12,.07-9.77-.06,11.56.07-1.92.09,5.91V43.16l.07,14.44,0-15.54v-.83l0,10.46v.69l0-10.74.07,5.51.05-8.95.06,8.26.11,9.22-.07-18.58L180,48.39l0-7.57L180,58l0-7.43V54l0-14.45.07,8.39.09-20.91.06,9.08,0,5.36.06-9.08,0,1.65v7.3l.05-12.52,0,10.32.05-4.27,0,6.19,0-.14.11,12.8-.05-17.2L180.73,48l.1-18.57,0,35.5.05-22.71.07,11,0-17.61v-3.3l0,10.87.07-1.93,0,23.8.07-32.33,0,3.58V29.81l0,24.22.08-17.75.07-3.31,0,10.87.06-4.81v7.84l.07-15.13,0,4.12.1-6.6-.07,10.87.09-8.12.08,16.38,0-12V31.18l0,16.93L181.8,37V40.4l.05-7h0l.1-7.3-.07,17.07L182,28.43l.09,13.9,0-3.44.07-6.74,0,9.08.08-5.5,0,11.42,0-18.58,0,8.81.11-8.67-.08,17.75.09-13.76.07,7.84,0-11.83.08-4.41,0,16.65,0-12.1.05,18,.06-10.59h0l0,11.69,0-12.93.05,2.47.11-7L183,53.89,183,31.18l.06,16.1.06-12.93,0-8.53,0,19,0-15.28v1.79l0-8.12V22.1L183.36,35l0-8.81.12,16.93-.1-24.36.12,19.82.06-12,0,15.14.09-8v9.77l.09-10.73.09,23.25-.08-26.42.09,6.47V30l.07,8.94,0-.55L184,44l0-10.73,0-14.59.05,22,.06,5.92V22.52l.05,13.89,0,20.23,0-22.57.08,6.88.1-14L184.39,43l.13-14.72.06,6.46,0-8.53.07.55v-5l.07,10.32,0-7.16.08,10.46,0-8.39.11-5.78,0,13.48,0-9.22L185,39l.06-8.67,0,14.72,0-16.78,0,5.36.12-8.94,0,11.28,0-7.29.13,24.63,0-17.48.09,13.49,0,8.39,0-15,0,5.09,0,2.07.1-11,0,5.92,0-13.35.06,7,.08-3.86-.05,10.05.07-6.33,0,3.16V33.39l.06,1v-2.2L186.17,51l0-4.68V38.48L186.27,52l.06-12,.07,9.63,0-4,.05-6.88,0,20.09,0-15.82.16,13.76V54.44l.09,3.71,0-12.24L187,58.43l0-14,.05,8.12.09-14.45,0,14.73.05-4.13.07,8.39-.05-12.24.09,7.43V48.39l.11-3.45,0,11.56,0-10.59.11,13.48,0-2.61V48.39l0,12.24.08-4.4,0,1.24V41.23l0,35.91.05-21.6,0-3.71V61l.06,7.43,0-16.23.07,3.71,0-5.91.08,12.24v1.93l0-19.27,0,9.77.08-14.44,0,32.75.06-18,0-11.42,0,14.17.1-8.53.1,10.18,0-11.69,0,7.43.08-6.88,0,3,.08,5.37,0-13.76.06,8.26V54l0-11.7,0,3.44.05-5.23,0,13.07.09-6.46v-5l0,12.52.07-7.15L189.05,62l-.11-17.2.12,10.59.11-8.39-.07,14,.07-12.93,0,12.11.08-11,.05-7.57,0,10.74.05-4.55V63.11l0-23L189.5,47V45.22l.09,9.91V50.45l0,8.26,0-14.87,0,5.51L189.75,39l-.06,31.37.09-24.9V37.79l.09,4.4,0-5.91,0,8.53.08-1.24.08,10.87,0-13.49V46.6l0-7.85.05,9.77,0-.41,0,.28v-3h0V39.3l.06,14.31,0-6.88.08,8.4-.06-15.83.09,5.23.12,18.72,0-25.19,0,15.69.1-15.13v1.1l.07,11.55V25l0,5.64V29l.05,16.24,0-5.92.07,12.25.06-9.22V37.51l0,14.18,0,3.85.06-18.44V35.45l0,22.7.07-15.82.14,21.47.06,8.39,0-35.64.06,18.3.06-15.55,0,19.41.06-1.24v2.89l.09-20.51V43l.09-13.49,0,11.56V52l0,3.17,0-20,.06,8.25.06-13.07,0,32.61L192,46.05l.11-10.6v11l0-5.64,0,11.69.06-15.82,0,4.13.06,14.31,0-16,.11,12.52V43.84l0,12.39.07-9.63,0,10.45.08-12.11v-.27l0,7.57v-1.1l0,6.46,0-14,.09,12.25,0-13.49.11,5.37L193,62.42V57.6l.1-11L193,63.11l.09-12.94V54l.06,8.25,0-21.74,0,11,0,16.1,0-18.3,0,4.54,0-2.89,0,5.92,0-.83v5.78l.08-11.15,0,9.22L193.57,47l0,10v6.61l.07-15.83v2.34l.06-2.89,0,9.77.06-4.54L193.89,63l-.07-10.87.1,6.47L194,50V64.76l.07-6.33.15-16.79-.09,17.75.09-16.65V72.47l0-31.93.07,7.71.11,12.66-.07-15.83.09,7.16.08-6.47-.05,15.82.08-7.56.08.68,0-11.14,0,8,.11-7.71-.08,13.63.09-10.19,0-6.74,0,13.49.08,6.6L194.84,44l.08,8.26.08-7.3,0,10.46v-7l.05,14.72L195.15,51V39.3l0,27.39.07-9.09.1-9.49-.07,14.31.08-8.26.06-7.56.06,17.88.06-23.25.07,3.16,0,7.57,0-14.86.07-3.58-.05,15,.07-6.6V39.17l0,5.91v-7.7l.07,4.26V39.58l0,11.42.06-.28v5.51l.09-18.44V37.1l0,13.76v7.43l0-34.26.07,18.3V39.44l.07,11.28,0-7.29.1,5.78,0-8.39,0,4.4L196.52,35l0,12.38v.41l.08,5,0-10,.08,6.06,0-7.71,0,12.52.06-11.55.08,5.09,0-6.61,0,2.34,0-4.13v7.57l0-1.93v5.37l0-12.8.07,8,0-4.67,0,11.56.05-9.22.08,10.87,0-5.37.08-4.54,0,10.46.07-5.92,0,5.37,0-13.76,0,8.53V42.47l0,10.73.06-3.3.1,5.92-.07-9.5.09,7,.09-9-.07,15.69.09-10.73.11,16.79,0-23.67,0,10.87,0-13.49.07,15.83,0,2.06,0-8.53.1-5.92,0,12.11,0-9.9,0,17.47.11-10.18V46.87l.08,21.19v2.07l.07-24.91V74.67l.09-32.2V40.82l.07,20.64L199,47v6.05l.1,4.13L199,48l.05,4.82,0-8,0,14.45.1,3.44-.08-18.17.09,15.41.06-12.11.05,10.46,0,9.77,0-16.92,0,5.36L199.56,44V58.43l0-7,.08,14,0-16.24V44.67l0,19,.08-14.45.08,9.91,0-5.64V46.87L200,68.2v1.93l0-12.25.07,3.16V53.48l.09,9.63,0,5.23,0-24.22,0,10v.42l0-10.6.08-7.15-.06,20.64.07-10.32.08-4,0,14.58L200.69,37l0,3h0l.12,11.84-.05-13.9.06,7.43.07-19.13.05,6.61.08,16,0-22.16.09,14.59V33.52l.09,11.7V50l.07-4.54,0,12.38,0-21.74V34.76l.07,16,.1,11,0-26.69,0,21.33.11-21.06-.08,24.91L201.64,50V70.68l0-28.9.08,5.23v5.37l0-13.63.05,2.75.08,13.35.05-8.53V39.85L202,50.17l.05-3.44.07,6.61,0-11.42,0,7.7.11-11.28-.05,14.72.06-8.39V55l.08-17.89v7.16l.08-7.16,0,9.22.06-1,.09-5.09-.06,19.12.08-13.76.09,8.26,0-13.9.05,5.51.08-12.11,0,22,.07-8.25.09,6.74-.05-12.8.07,6.47.1-5.5,0,18,0-17.06V41.5l.07,7.85,0-1.65V40.82l0,19.26.07-15.82V57.05l0-18.3.06,11.56,0-3,0,16.52,0-4.54,0,5.36,0-10.59,0,5.91,0-24.49.09,20.37.06,12.24,0-25.32v1.79l.1,53.8v10.32l0-76.23L204,48.94l.07,13.21,0-24.5,0,18.85,0-28.07,0,30.41.06-12V71.78l0-40,.07,5.77v2.62l.09-11.28v-.42l0,9.77,0-3.85,0,6,0-15.68.09,14.45.08,5.77,0-14.86.08,11.7.1-12.38V36l.11-8.67-.06,15.83.1-12.39.05,3.72L205,29l0,.14,0-1.65,0,9.63,0-2.89.07-5.5-.06,9.63.07-4.82.11,14.31v-4.4L205.45,30l-.07,15,.08-11.55,0-10.6,0,13.9v.55l0-7.43,0-7.71.07,13.63,0-9.77.05,11.55,0-11.69.12,3.71v14l.08-11.7,0,5.51.06-17.2,0,10.87V25l.06,17.75,0-5.23.08,7,0-11.83.07,5.09,0-11V57.33l0-27.25.07,7.85,0,4,0-11.29V32l0-1V41l0-5.5.05,7.84,0-10.59,0,6.33,0-13.62L206.77,43l0,.69V37.38l0-5.37,0,20.09,0-8.67,0-4.13,0,11.15v-4l.1-15.14,0,17.75.07-12,.13,20.78V54.44l.08-14,0,11v7.16l0-22.84.05,12.52.21-14v10l.08-8.4,0,2.76.12,5.36-.08-9.77.09,8.67.08-3.44,0,9,.06-3.45.07,4.68,0-17.2.07,9.77,0-6.6,0,12.52.1-7.84.11,4.12L208.27,37l.08,5.65.09,8.53,0-16.1.05,10.59.06-13.07,0,15.27,0-6.19.1-8.67L208.63,43l.11-4v2.75l.08-10.6,0,8.67.06-11,.11,27L209,21.28l.08,12.66,0-9.08.07,9.9,0-3.3.09-7.29L209.19,39l.09-9.63.11,12.24V35.31l0-4.68,0,9.77,0-4,0,12.11,0-22.7,0,4V28.16l.07,13.9,0,8.11.07-20.5V27.88l0,24.08,0-8.53,0,18,.08-26.7,0-.55v3.44l.07,8.12,0-12.25.07,6.2.13-15.28-.07,35.23.07-34.95.12,17.2V35.86l0-13.89,0,21.32.07-12.66.1,9.09L210.5,28l.08,9.22,0-6.61,0,19.54.05-8.67h0l0-5.91,0,8.8,0-3.44.11,16.1v-5.5L211,26.92l.07,23.8.09-12,0-8.53,0,16.79,0-5.92.08,8.67,0-14.86.07,9.22.11-16.93,0,9.77V49.62l0-25,.08,11.28.09-10.32,0,10.46v5.64l.06-26.28,0,11.7V20.59l0,13.07.06-9.91L212,34.62,212,22.93l.08,8.94,0-6.46,0,20.09.05-13.35.07,15.13-.05-16.65.11,7.71V34.49l0,17.47.06-5.91.09,9.63,0-20,0,8.66.1-8.39-.08,22.43.09-19v7.29l.09-21V44.26L212.75,17l.06,12.11.12,16.93V41.64l0-12.38L213,42.19l0-1.37v3.3l.08-15.27h0V23.34l.06,15.14,0-6.47,0,8.39.06-12.66,0,8.54,0,2.47,0-4.68,0-1.1,0,9,0-1.24v2.06l.05-8.94,0,3,0-5.92,0,19.26,0-7,.08,8.11-.05-21.19.07,10.74.06,15.82.07-11.56,0-15.27,0,19.81,0-8.94,0,9.91,0-14,0,7,0-9.63.07,15.55v1l0-10.73,0,2.34.06-6.88,0,9.49.08-3.17.15-8.66-.12,9.63.12-6.74,0,25,0-33.3L214.69,52l.1-15.13V54.71l.06-16.65,0,7.16.07,4.13,0-8.4.08,3,0-4,.06,14.86.06-14.45.05,19.82.11-21.47-.07,21.88.09-15.69V56.5L215.4,35l0,12.93.06-14.58L215.56,47v2.48l.07-11.7,0,5.37V38.48L215.72,50V52l.08-10.32,0,.69L215.93,70l-.1-29.72.11,12.24L216,40l0,22.57.06-2.48V52.24l.09,8.25.08-5.91v6.74l0-1.79.09-14.86,0,16.37.1,4.68-.06-9.9.07,5.5,0-5.92.06,9.77v2.07l.07-17.07.05-5.5,0,13.35,0-4.82.08,10.32,0-18.58.07,8.26.06,7.84,0-13.21,0,2.07V45.5l0,15.68L217,55.4v4.41l.07-11.42,0,4.81V48.39l0,8.8.07-6.19,0,27,0-31.65.07,9.36.06-6.47,0,13.21,0-11.15.1,14.18V51.14l.12-8,0,8.8,0-7.15,0,8.8L217.77,43l0,.55.07-5.09-.05,15.27.07-4v2.62L218,41.64l0,5.78,0-5.5v7.29l.1-4,.1,8.26-.08-10.87.12,4.81.08-8.25-.05,16.23.09-12.93v.27l0-3.44V37l0,13.9.08-5.64,0-7.57,0,18.58.1-11.84.12,7.71-.1-8.81.1,7,.06-6.74,0,9.22.09-6.06,0,6.06,0-7,.05,3.3.12,8.4L219,45.08l.1,9.91.13-12-.05,13.07.07-9.22h0l.09,16.79,0-10,.11-11.28,0,20.23,0-18.44.1,19.4,0-19.68.05,5.51,0-4.41,0,17.62,0-11,0-3.58,0,22.43,0-14.72.07,22.15,0-26.42.08,10.87L219.94,41l.15,4.82,0,9.91.07-17.48,0,13.07.09-7.43,0,13.08.08-9v-6.6l.07,20.5,0-10.87.1,10.59-.07-12,.08,1.79V46.6l0,29.58.05-12.52v.82l0-16.51,0,6.19v-4l0,24,.05-1,0,1.65.05-16L221,47.42l-.06,17.06L221,51.14l.08,5.36,0-14.72.08,12,.12-9.91-.07,14.31L221.22,48l.05,6.19,0-12.38V39l.06,14.31,0-3.17v2.48l0-9.22.07,2.07.07-2.48,0,13.07.06-4.68,0,5.51,0-14.73.06,9.5V44.94l0,.14.06-3,0,8.53.06-2.34.05,8.67,0-16V36.69l0,16.92L222,48.8l.09,5.5,0-18.44.06,12.53,0-9.36.06,15.55.1,7.7-.07-11.83.08,7.84.08-14.17-.05,19.68.08-3.58,0-2.34v8.67l0,3.3.07-13.07v19l.09-28.9v.69l.07,43.07v19.54l0-78,.07,16.92.07-8,0,10.18.07-2.06.12,7.29L223,45.36l.08,7.84,0-13.48.06,18.57,0-9.9v9.9l0-16.65.07,6.75.1,30.13,0-31.1.07,8.26V51.41l.09,10.05v-9l.06,9.08.07-6.32.06,4.81,0-7.29,0,4.4.06-2.34V63l0-4,.09,7.43L224,49.49,224,63l.1-15.14.06,5.78.1,4.27,0-14,.05,10.32,0,3.44,0-8.66V47l0,13.9.07-4,.09,4.54,0-8.12.06,4.95,0-13.07.09,12.38.09,10.46-.08-14.72.09,4.81.07-8.25,0,22,.08-21.6.08-6.74,0,14,.06-1.78,0,7.7,0-15.13,0,1.92.07-3.3V76.46l.1-30v3.71l0-1.51.08,3.44,0-10,0,6.74,0-6.74,0,14.86,0-4v3.3l0-8.81.06,4.82V48.11l.08-6.74,0,15,.05-4.82,0,6.33.07-15.41,0,10.73h0l.07-7.29,0,12.52.08-5.09L226,57.6V46.73l0,6.88.06-16,0,28.9.07-12.94V64.9l0-24.36.07,9.5,0,8.94,0-12.93V41.37l0,9.63.07-4,.08,5.37,0-11.7.07,6.74,0-6.74,0,12,0-3.71.11,12.65-.06-16.09.07,11.42.05-3,0,9.22V68.2l.07-15.27,0,7.15L227,48.8l0,15.68,0-11.42.08,2.89,0-7.15.05,3.44.06-7.16,0,10.46.07,3,0-10.46.08,3.85,0-2.34,0,9.09v4.12l0-10.73.06,2.75.07-1.51L227.55,62l.09-6.47h0l.08,6.33,0-12,.06,8.53.06-11.7,0,13.21,0-.41.08-9.22,0,10.87.08-3.44,0,2.89,0-13.35,0,2.62,0,1.1V42.47l0,18h0l0,2.76,0-5.37.05,1.38.08-10.6V63.25l0-6.61.06-5.78,0,13.62.07-2.33v3l0-12.11.08,8.81,0,1.38v-4l.13-17.76-.1,18.58.11-15.14,0,6.61,0-10.32,0,4.68.09,5.09,0-8.53,0,3.44.1-8.95L229,49.07l.08-5.5.07-6.74,0,9.9.06,1,0-8.26,0,1.24v3.58l.09-2.2v5.09l0-10.19.05,3.86v7.29l.1-13.49v3.72l.11,7,0-14,.05,11,.08-13.9,0,16.38,0-17.75.12,7.29,0,11.56L230,29.26v-5l0,13.35.06-5.09.06,9.5-.05-10.88.11,8.67.08-13.21,0,24.5.07-14.86.09,6.33V33.39l0,3.44.12,9.22,0-9.91,0,7.43,0-3v5.23l0-.69,0,2.75,0-10.45,0,4.68.06-9.09,0,9.77.1-4.4,0,5.23V35.86l0,7.71V40.13l0,27.66,0-37L231.1,35l.08,11.14,0-12.24.07,3.57.1-8.94,0,16.24.06-10.05.08,9.5,0-8.26.09,8.81L231.48,33l.09,6.61V34.07l0,10.19.06-.14.09,4.13-.08-9.91.1,6.47V42.19l.06,11.56,0-3L232,64.21l-.12-16.93.12,10.6.1,5.64,0-15.69v1.79l0,15.69,0-26.14,0,14.72.11-16.38-.08,20.37.09-17.34.1,24.63V48.66l.14-10v.27l0,8.12V33.39l.05,1.37V33l.06,9.91,0-1.93,0,10,0-13.9.05,7.43L233,38.2l-.1,11.42.11-8.25.11,4.81-.07-8.25.07,7.29,0-7.16,0,12.25.06-8.25V47l.05-10.46,0,5.51v-.42l0,8.67.06-9.63.06,13.21,0,3.58.08-12.94v-.69l0,11.43,0-3.72v1.38l.05-10.74.05,8.81h0l0,14,0-21.74V40.68l0,14.17.08-9.63.05,12.11,0-12.8.09,2.89V46.05l.06,13.07,0-7,.09,11.42-.07-18.71.08,5.78h0l0-5.37,0,6.33.06,8.39,0-16.78V36.69l.06,20,0-5.37,0-10.45,0,16.37v2.75l.08-17.88v4.12l.11,14.31-.06-19.26.08,16V46.6l.11,3.85h0l0,4.68V45.91l.07,3.85.09-4.13v8.53l0,3.72,0-7.71,0,.69.06-3.58,0,8.95V53.89l0,13.21,0-21,0,.82V45.36l.07,14.45.08,6.6-.06-19,.08,9.77.1-15.69,0,28.49.05-15.83V55.4l.05-11.56,0,4.55L236,41.5l0,24.77.06-16.1.1,27.52,0-29,.07,4.54,0-6.19,0,13.9.06,5.78,0-21.88v1l.1,8.26,0-17.62,0,4,.1-11.69,0,18.44,0-15.69.12,12.25.14,14-.13-15.82.14,13.21.05-9.36,0,18.71,0-10.87L236.92,69l0-.28.11-17.34V68.89l0-17.06.05,7,0-17.06,0,19.81.11-13.34,0,11.56.09-8.54.07,8V45.91l0,5.64,0-8.53,0,17.89,0-9.36v2.61l0-13.62,0,9.5,0-4.41,0,14.18,0-8,.08,13.62-.06-16.79.11,8.39.08-7.15,0,10.32V58.29l0-9.08v-5l.09,21.19V68.2l.06-18.3,0,7.43,0,8.12,0-13.07,0-8.67L238.44,65l0-16.37.06,13.9.05-16.93.07-3.3-.05,19.13.08-14.73,0,9.36,0-11.83.11,6.74.09-11.28,0,7.15.08-2.06,0,10.59.11-15.13,0,8.25.08,17.07V40.54l0,3.85.1-6-.06,16,.07-11.69.1,14.86V39.72l0,12.79.09-17.75,0,2.62.1,10.45-.07-15.13.09,10.73h0l.09,5.78V43.29l0,4L240,36.55V53.2l0-15.55V51.14l0-14,.08,2.07,0-9.09,0,21.19.08-10.73v.83l0-12L240.29,40v-.55l0,5.09.06-2.75v9.63l.09-13.35,0,8,.07-12,0,6.2,0-.55v7.43l.08-7,0-6.33v-.28l0,8.12V37.93l0-3.58.06,8.26,0-5.65,0-3.16,0,9.36V52.1L241,33.66v1L241.12,48l0-19.4v-1.1l.06,16.24,0-9.22v3.85l.07-7.57,0,4.41.06,8.11v-9.9l.05,2.34.1-6.33-.06,16.92.07-11.14.08,10.59,0-13.9.08,4.13.05-7.43,0,12,0-4.13,0,13.08.07-18.17,0,3.17,0-3,0,9.63L242,36l0,34.4,0-41.28.07,8.53V34.07l.08,7.71,0-.41,0,3.44V36.28l0,1.65V33.39l0,11.69.05-6.74.09-2.89-.07,7.43.08-1.1v1.38l0-18.44.06,11.69.1-7.7,0,13.35,0-10.05,0,8,0-10.59.08,6.6V26.64l.05,17.62,0-2.48V58l.05-29.17,0,8.25,0-6.88,0,18.44.06-17.61.09,13.07v1.79l.08-14.31.06-4,0,13.07L243.4,32l.09,25.46,0-18.3V37.93l.07,11.83V47.7l0,53,0-75.68,0,7.3.05-6.61,0,30.27V48.52l0,2.62,0-13.35V32.42l.05,13.08,0-1.66v-12l.07,5.51.05-4.68,0,17.2.08-5.09.07,17.89,0-18.17.07.83.07-6.74,0,29.3.06-21.74.09,8.12,0-14.17.06,6.33.08-13.07,0,17.06,0,10.73,0-23.67,0,12.66.08-11.69-.06,13.21.09-5.64,0,5.36.08-9.63,0-3.44.08,6.74,0-5.91v9.22l.05-3.86.08,14.86,0-19.4.07,2.62,0-4.82L245.27,54v1.65l.08-10v4.82l0-8.67,0,19.4.08,4.68,0-16.1.06,11.83.09-12,0,1.52.06,17.33,0-22.42,0-7.43,0,12.38.06-2.48v3l0-8.53.06,3.16L246,41l0,8v-.55l0,5.09,0-10.87,0,7.15v-6l.06,9.22,0-.55,0,9.08.05-17.07,0,8.12.1-8.67-.09,14.73.1-10.18.06,29.72,0-34.82.1,9.36v1.51l0-5.36,0,.14v-.55l0,11.55v3.58l.09-17.47.14,28.2-.09-28.34.1,18.85V48.52l0,17.34.06-7.29,0-17.89,0,22.84,0-12.52.11,4-.09-18,.09,17.2,0-10L247.34,59v2.61l0-17.61.05.83,0-4.41,0,12.8V67l0-19.68.07,12.11.11-7.84-.08,19.54.08-15,.05,20.23,0-31.1,0,16.51.05-29.44L248,54.58l0,4.13,0-17.34,0,5V36l.07,23.81,0-12.94,0,22.71.12,22.7,0-31.65.05,24.08.07-24.49.05,6.33.11,64.81-.06-74.31.09,22.71.12-26.15,0,36.47.06-31.1V82.65l.05-33.16,0,10.32.09-13.76,0,15.54.07-4.12,0,6.74L249,46.32l0,13.07v-5.5l.07,14.72,0-5.5h0v-2.2l0,9.63.06-2.62V71.5l.09-11.28.08-9.91,0,17.75,0-2.34V76.87l0-21.74.06,11.69.16-16.51-.1,18.58.12-13.49,0,9.63.05-11.28,0,.41V52.38l.05,10.18,0-6.06L250,69.16,249.94,54l.08,4.4,0-1,0,8.12v.55L250.15,56l.06,13.76.11,2.48,0-12,0,11.56,0-12.11.09,4.54L250.5,70l0-9.77V59l.06,19.54v4.13l.07-23.81,0,10.6,0-4.41.06-11.69,0,12.25V60.91l.08,4.54,0-9.5,0,3.17.12-10L251,66.27l.1-12.93.1,13.48,0-19.54,0,6.47,0-9.08.09,6.74.12,9.63-.09-18.85.1,15.55.07-8.67,0,12.25.08-9.63.1,12.66V60.63l.11-9.08-.06,13.62.07-10.73.1-9.63,0,12,0-3V69.3l0-20.78.08,12.8.09-8.39L252,63.66l.09-2.2.06,12.66,0-25.05,0,9.5.06-9.63,0,13.07.08-6.74.07-3.44,0,8.53,0,2.06V57.19l0,2.07,0-8.81,0,18.3.05-14.59,0-2.06,0,13.35v1.79l0-14.45.07-8.67,0,18.44.07-7.43v5.64l.08-14.72V41.64l.11,3.3,0-5.5,0,8.39,0-2.75.06,21.19,0-30,.05,18.57,0-20.5,0,6.88v-.14l0,3.72,0,10.87.06-15.83V37.93l.07,12.38,0-6.88.08,17.2,0-5,.09-9V71.36l0-22.56.07,8.53,0,5.37.05-12.94,0,7.43.05-6.6,0,12.79.07-2.47h0l0-8.95.1,7.43,0,3.72,0-9.36.1-2.06-.06,12.24.07-10.32v9.91l0-15.55.06,5.78.11-3.16-.08,4.12.08-2.88L254.62,63l0-17.06,0,9.36,0-5.92,0,11.69V63l0-12.66.07,5.64.06-8.67,0,9.09.09-4.68.12,7.57L255,46.6l.1,10.45,0-4.54.06,11.84.06,2.89,0-10.6V54.16l.06,16.1L255.4,58l.1,8.39-.07-10.59.08,2.61V56.09l.08,19.13v16.1l.06-39.08.05,34.81.12-36.74,0,5.51,0,4.67V53.06l0,.14V48.66l0,19.26,0-8.53.08,16,0-24.08.06,11.43.09,4.12,0-9.08.06,7.57.07-6.74,0,16.78.07-9.63v2.34l0,9.22,0-10.87.05,9.22h0l0,1.1,0-7L256.72,58l-.07,26.28.07-24.91,0,9.77,0-14.72,0,5.37.08-2.34,0,8.25.06-4,.08,4.41,0-12.94,0,7.57.12,11-.09-13.35.09,5.64.11-6.6-.09,9.63.09-6.33.07,15.82-.05-20.77.12,15.41V65.59l.07,11.14,0-7.43,0,12.52,0-17.34,0,2.76V62.83l.08,13.49v-.55l0-3.72,0-16.37.1,10.87.1,11,0-8.12.08-7V79.48l0-9.49,0,2.48,0-6.33v5.22l0,4.13,0-21.6.05,15.41.09-8v18l.07-16.79,0,5.78.08-10.74,0,10.05V81.13l0-27.1.08,11.14.1-7.15,0,10.45,0-4.4.08,13.62,0-16.92h0v12l.11-.27v3.71l0-11,.07,6.88v4l.09-7,.08,19.12,0-14.45,0-11.55,0,19.12.06-17.61V69l.1,12.1-.08-13.34.09,1,.11-12.52,0,17.75.05-14.59.08,10,0-2.48,0-8.94.05,11.83,0-7,.08,13.49L260,59.53l.1,12,.09-8.25,0,10.45h.06L260.3,58l.06,2.47.09,8.4-.05-18.72.06,8.95v-5l0,16.1.06-4.54V70.4l0-19.54.05,13.62.09-7.56-.05,15.41.07-1.65V63.93l0-4,0,27.11.05-18.58L261,57.05l-.11,13.35L261,59.94l0,13.21V58.71l.06,3.85.08,5.36-.07-8.8.1,4V61.87l0,6.74,0-2.89.07,11.42,0-18,.09,11,0,6.19V68.61l.05-2.61,0,7.84.09-4.54.06,22.29,0-30v-.27l0,11.83.09-5.09,0,11.42v1.1l.05-15.27,0,1.38V62.56l.05-2.2,0,8.53.06-3.17v3.72l0-7.85.06,1V56.64l.09,15.83,0,4.4,0-10.46,0,4.4.1-15.82-.09,18.16.1-7.84v15l.08-18.58,0,5.23V63.11l.09,6.74.07-12.11,0,14.45,0-5.23,0,9.63V63.52l.08,3.58.09-5.92,0,20.37L263,66.69l.12-7.57L263,71l.08-10.73.07,32.33,0-36.6.08,10,.12-19.82-.05,30.14.06-26.83,0,25.45.07-13.48.07-4.54,0,13.89.05-6.33.1,6.47-.08-9.36.09,5,.07-10.73-.05,15.68.12-8.67.09,17.48,0-24.08.05,6.88L264,51l0,20L264,52.1l.08,19.4,0-7.57.09-15.27,0,19.26V69.3l0-18.3,0,7.57v-9.5l0,20.23L264.46,56v-.27l0,4.4v-.27l.1,11.55-.07-15,.08,6.74V56.23l0,14.86.06-2.48.11,5.51-.07-10.46.07,7,.09-12.53-.07,13.9.1-10.73v-1.1l.06,17.2V73.7l.05-14.86,0,4.27.07-5.37,0,24.77.05-18.71.06,7,0-12.52.09,3.86.11-13.08-.08,14.31.1-8.8h0L265.54,65l0-12.38,0,1.79.08-2.61,0,14,0-5.5,0-9.91.05,12.11,0-3v3.58l.06-11.42,0,3.16,0-5.36L266,61.18l0,10.18,0-16.09,0,8.11.08-12,0,31.79.05-17.61V84.85l0-29.86.05,4.13,0,8.94.06-14.72,0,5.64.11-10-.06,17.2.07-10.74,0,22.57V53.34l.08,5.37.06-10.88,0,14.45.07-5.09.07,9.36-.05-13.07.08.27.07-9.36,0,18.58L267,49.35l0,10.46,0-16.24.13,12.25.05-23.26.06,22v8.25l0-18.16,0,3.3.08-4.54-.05,15.83.07-2.89v6.88l.08-14.73,0,6.06v4.13l0,8.94.05-18.3,0,6.19h0V43.71l0,24.49.08-18.44.1,5.23,0-8.53,0,3.44L268,35.18l-.1,18.16L268,36l0,16,.08-15.68,0-6.2.05,14.31,0-7.15.08,22.29,0-12.38,0-4.68,0,18.3V42.88l.09,14v4.26L268.56,77l-.05-28.35.09,10.73V53.61l.06,8.26.08,4.4,0-12.38,0,2.89V48.25l0,8.67.07-2.07L269,39.58l-.08,26.28.12-22,.08,8.26,0-12h0l0,9.49.05-13.76.06,9.91.11-13.48v3.3l0,13.62.08-9.63.05-8.67,0,17.89,0,9.77,0-21.74,0,12,.08-4.68,0,9.49.05-2.75,0,3.85.07-9.9v3.85l0-8.39,0,10.18L270,67.1l0-41,.08,29.18L270.19,40v2.34l.07,11.42,0-16.24.08,9.5.1,8.53,0-15.55.05,7.84V41.64l0,12.66.08-3.71,0-11.7.1,2.48.07,16.78,0-21.87.07,9.77v3.44l0,4.81.05-9.77v.55l.06-9.77,0,15.83L271,46.6l.12,18.16L271,44.53l.11,19.13.12-28.21-.11,35.36.17-26.28V35.45l.09,11.15.1-9.22,0,9.77.07-7.3v10l.09-11.28v.82l0,15.27v5.23l.06-15.27V42.19l.05,22.43,0-4.68,0-4.81,0-12.25,0,21.47.06-5.09.07,4.4L272,55l.07,2.48V50.31l0,9.22.08-4.82.05-6.19,0,10.87,0,56.28,0-73.89.05,8.94,0-6,0,11.83.07-6.6.1,12.38-.08-16,.09,7,0-9.5,0,12.66,0-1.51v-.41l0,3.71v-.41l0,13.35V45.08l.05,6.06.09-4.54-.05,13.34.06-4.95,0,12.66,0-17.89,0,10.87.05-10.73.07,3.44v-1.1l0,16.23,0-5.5,0,3.17,0-13.49v3.17l.07-10-.05,11.83.09-1.92,0,6.47,0-15.42.07-8.25,0,16.1.06-4.13.08,10,0-16,.06,1.38V43.29l.05,14,0-7.84,0,2.34,0-5.1,0,.69L274,37.1v3.58l.07,5.09,0-16.65.08,15.55.08-8.94,0,13.62.06-8.12.07,11,0-11.84.08,7.85.05,5,0-14.17,0,12.24,0-12.52,0,13.35,0-4.13,0-7.7.06,7.7,0,33,0-43.07.07,15.13.05-10.32,0,19.82,0-7,0,1.79V40.82l.06,10.59L275,35.18v20l.08-15.83.06,14.31,0-15,.07,5.5.05-2.89v6.6l0-2.06.09,4V39l0,4.26,0-4.4,0,14.31,0-3.44V37.93l.09,6.33,0,11.42.09-9.08.08-8.4,0,8.81.07-3.44.11,9.77-.1-13.62.11,9.35.06-8.8,0,16.37L276,40.4l0,32.48.1-31.38,0,5.51,0-5.92V38.75l0,23.81h0V60.08l0-16.37.06,9.49.09,3.3V48.66l0,6.19L276.59,35l0,34.95.08-27.38L276.77,56l-.08-19.54.08,17.75.08-15.41,0,1.24,0,8.53L277,36l.05,5.37.09-2.75,0,12.24.05-6.74.11,12.52-.06-16.79.07,8.67.06-2.75,0,8.53.08-4.68.07,6.33,0-9.9.09,7.56.1-12.66,0,25.6,0-16.38,0,5,.05-10.05,0,3.72.06-7.3,0,9.36V53.2l.09-14.86V49.76l.07-8.12L278,53.2l0-12.38.06,6.6V46.05l.07,13.21,0-8.4v7.29l0-16.37.06,7,.06-5.92,0,6.47.09-.41,0,21.87.06-28.34,0,11.56,0-8.4,0,19L278.61,48l0,8.81.05-12.94.05,9.36V45.91l.05,14,.06-13.48.08,14.31,0-2.06.06-8.4.05,11.7V58.29h0v.42l0-10.32.05-6.89,0,25.19.05-7v1.51L279.28,47l.1-3.44-.07,10.32.09-6.74,0-5.92,0,8.81.05-1.79.11,8.67,0-12.94,0,9,0-6.2V58l.07-6.75.09,9.91,0-15.27,0,7.43v-.83l0,15.14v9.91l0-28.9.07,9.49,0-9.63,0,14.73.08-4.82,0-4.4.1,14,.11-15.41.05,9.63v5.37l0-23.39.06,8.53,0-10.18,0,17.2,0-1.38.08,5.09,0-7.7.05,2.2V50.17l.06,11.56,0-7.7V53.2l.05,7v5.09l.08-16.1,0-4.82,0,18.44,0-8.94,0,5.37,0-13.35.12,10.32,0-2.75.05,6.19v.27l0-5.64,0,1,.09-4.41-.08,10.73.1-8.66.1,6.74,0-12.39,0,7.85.1-11.42,0,9.08,0-11.15,0,16.1v9.08l0-26.69.07,7.57,0,14.58L281.88,47l0,7,0-14.73,0,15.28L282,43.43v.28l0-6.75V32.84L282.14,52v-10l.06,15.41,0-15.69.08,7.16,0,4.54V42.06l.11,6.6.09,10.6,0-12.39.07,10.46.06-13.07.06,5.5,0,6.19,0-14.58,0,.55.05-2.62v7.57l.07-5.78.09,8-.06-17.61.08,8.26,0-11,0,20.78,0-8V60.36l0-27.11.08,13.62.1-20.5V49.76l0-10.59.11,57.93-.05-60.82.07,12,0-13.35v22l.06-17.48.08,15.27.06-6.74.07-12.11.07,6.2v9.21l0-16,.06,8.53,0,16.93L284,42.88l.08-5.78,0,13.35.05-7.43,0,2.2,0-6,0,3.16V41.5l0,8.67.07-4.26.06,16.79,0-22.71,0-5.64V49.21l0-4.13.07,7,0-15.41V35.18l0,12.1.05-5.91.05,6.19,0-10.46,0,5.51V41.5l.07,9.64,0-3.72.09,5.64-.05-7.29.08,7,.11-17.2L285.07,59l.08-19.54V59.12l0-24.77.06,7.29v-1l0,22.15v5.51l0-27.8.05,1.65,0,7.3V33l0-5.36.07,17.33V41.23l.1-3.44-.06,9.91.07-7,.13,14.72-.1-17.06.11,15.82,0-18.3,0,19.54.06-9.63h0l0,11,.06-13.9V38.75l.1,10.74v4.67l0-12.93.05,7.16.13-6.2-.11,16.24.11-15.55,0,12.11.08-12.38v2.47l0-7v1.38l0-8.53.07,12,0-7.57.1,12.8,0-4V30.77l0,26.42,0-6.33.07,8.4,0-28.21.07,20.5h0l0-6.47,0,9.36,0-.55,0,13.9,0-22.16.06,15.55V64.9l.06-22.16,0,10.32V63.8l.06,61.64,0-75.54.05,12.66V35.45l.05,27.25.06-22.16V63.38l0-28.07.07,15.14,0-5.23.1-17.75,0,22.43,0-13.49,0,9.77V30.63l.09,7.57,0,6.33V35.45l.12,8V35.18L288,51.41l0-9.35.12,16.65-.1-20,.11,16.38V45.36l.07,12.24,0-1.23.11,11.14-.09-19.68.1,14.32,0-7.85.06,13.35V57.47l.11-8.95-.07,11,.07-9.49.06,11.55,0-15.41,0,8,0,5V50.59l.05.68v-3l0,25,.06-19L289,39.44l0,13.21.08,11.42,0-14.45v-.27l0,7.15.09,8.53-.05-13.89.08,8.8.09-10.18,0,17.75.05-8.12.09,7,0-16.24.05,14.59.07-13.21-.05,16.65.07-1v1.1l0-17.2,0,5V63.8l.08-11V52.1l.07,9.08,0,14.59,0-25.32v0l0,9.91.06,9.08,0-12.8v1l.05-10.87,0,23.67.09-17.06V41.5l.09,10.6.06,5.5,0-10.45.08,7.7.06-8.12,0,10.46,0-1.24.08,5.64,0-8.39.05,1.51.08-4.26,0,9.49V51l.08,4.54v8.81l0-12.39L291,63.25,291,52l0,17.2.09-13.48.07,13.21,0-13.07V52.38l0,19.4.08-9.91L291.37,47l-.07,16.1L291.43,48v3.17l0-.14.12,12.93V59.12l.06-6.47,0,9.77.11,9.77-.06-13.76.07,6.88,0-10.18.09,1.65V55.13L292,65.31l.11,13.76L292,56.64l.09,14.45L292.18,59l-.05,16.24.1-11,0,7.15,0-10.59.07,1.93.13-12.53-.12,13.9.13-12.24.05-2.48L292.58,62V52.38l0,12.52.09-6.61.07,3.58V55.54l0,4.82,0-6.2.05,12.66.05-8.11h0l0-5.1,0,8.67.08-2.2.07,5.64,0-11.28.07,4.54.07-11.15,0,28.08.07-16.38V63.8l.08-12.25,0,2.34.15,17.34-.1-20.78.11,16.92V71l.07-.55.07,3.85V63l0,6.88.12-24.63,0,15.82v10.6l0-22.7.08,5.77V55l0-6.88.06-8.94,0,30.27,0-22.84.07,35.08,0-40.18v.56l0,23.11V69l.08-17.89,0,8.39V51.14l.08,17.47,0-13.76.08,23.94,0-25.73V76.87L294.64,55l0,19.54L294.73,50l.06,8.11.1,11.15-.07-18.44.1,14.17.08-5.09,0,6.88,0-4.4,0-4.82.1,16.1.11-11.42-.09,16,.1-10.73,0,15.83.05-17.75,0,2.2,0,14,.11-1.1.12-13.48,0,16.92,0-16.51.08,8.53,0-13.35.08,9.5.08,15.55,0-18.72,0,2.34,0-5.91L296,81l0-8.67.1,8.53V70l0,4,.05-8,0,33.85,0-22.84.07,11.83,0-24.22,0,7.85.1-18.31V51l.06,19.81,0-8.11.08-7.16.1-5.92,0,15.69,0-4.4,0,17.33,0-20.09.06,13.63,0-11,.08,1.79L297,59l.1,12.93.07-13.2,0,16.09,0-4.12,0,5.91,0-13.21.06-12.11,0,19.27.1-15.83V73.29L297.41,51l0,14,.11,4,0-10.05,0,6.74.12-13.21,0,16.79,0-16.1,0,10.73,0-13.76.07,5,.08-10.46,0,5.64L298,71l0-28.34.08,16.78v-.68l0,10.32,0-.56.06,16.79,0-26V77.14h0l0-12.38,0,19.13.06-13.63.09,30.55-.05-37.7.07,13.21.06,13.48,0-23.25,0-5.92,0,35.09.09,20-.06-41,.07,23V63.25l.1,25,.13-24.22-.11,35.5.11-31,0,66.33,0-85.32.05,21.74,0,10.46,0-25.45,0,.55.06-11.42,0,13.34.08,8.67-.07-13.62.1,5.78.09-3.72-.05,15.69.06-8.39,0,4.81.06-12.38,0,6.88v6.33l.09-4.13v8.53l0-9.08.06.82,0-6.88,0,17.07,0-5.09L300,81V79.35l.12-15.14v4.54l.09,5.92,0-9.08.06,7.15.06,6.05V71.64l.07-5.23V73.7l.05-2.61.06,5.5,0-11,0-10.05,0,11.56.07-9.5,0,11.15,0-13.62.08,3,0-13.07,0,17.07.09-5.78.1,10-.06-11.7.07,7v-6.6L301,67l0-7v7.71l.08-12.8,0,2.07V70.54l.11-9.36.1-10.73,0,19,0-13.9,0,28.07.1-19.68,0,11.56.06-11.69,0,5L301.7,63l0,7.84.06-1.37.11,7.15-.08-13.34.09,12.52,0-16.65.06,27.11v14.58L302,59,302,72.74v2.48l0-9.22,0,2.89.11-14.31V67.1l.08-18v8.12l0-1.92,0,5.91.09,7.85-.05-13.49.07,3.85,0,10.74V52.38l.07,5.64.08-7.3-.06,12.8.08-2.75,0,4.82,0-10.88,0,6.75,0,3.3,0-10.46,0,1.38.11-6.06-.06,10.32.06-9.22,0,11.7.08-8.81,0-4.81.05,14.72,0-4.4,0,4.54,0-6.33.07,3.44,0,2.48.09-15.69.15,9.49V52.93l.11-3-.08,8.67.09-7.3.1,7.71-.09-9.36.11,9.22V48l.07,14.73,0-5.65L304,44.81l0,15,.1-6.47.05-7.43,0,11.56.05-1,.07,13.9,0-20V48.8l.05,11.69v8.12l.09-16.1v4.68l.07,13.35,0-12.52V51.69l0,21.88.07-16.93v5.09l.05,7.43,0-13.21,0,3.17,0-4.82,0,13.76.06-12.38,0,9.49,0-14.72,0,4,.08-4.82L305,63l.08-7.29.05,11.83,0-12.66,0,.83V50.86l.07,16.51v5.1l0-21.33L305.39,62l0,6.74,0-10.32.06,1.65L305.56,47l0,27.38.06-4.4v1.24l.05-15.55,0,4,0-8,0,25.45.07-20.5V51.27l.11-2.75-.09,9.5.1-8.67V48l0,9.5,0-.28.06,12.25,0-13.07.07,3.16.1-11.7,0,16.1,0-14,0-.55V53.2l.08,15,0-23,.06,10.32V48.66l.06,17.2,0-1.38.09,10-.07-14.17.08,6.19.09-12V82.23l.05-15.82.06,14.45v.82l0-23.39V51.41l0,30.69.07-18.58h0V55l0-10.73L307,59.81l.1-10.87,0,7.15.11,6.33-.08-9.77.09,8.81h0l.15-10.19-.12,11.84.13-8.26,0,18.58.09-22.16V62.56l.05-12.11.05,11,0-2.62,0,9.36V57.33l.09,16.24V81l0-20.92.06.41V54.71l0,13.35.07-1.24.11-20.64,0,8,.11,11-.07-14.31.08,13.21,0-10.59V65.86l.08-4.68,0,4.68V55.4l.07,4.41.11-11.56,0,15,0-10.32v6.88l.1-11v.69l0,15,0-15.27.06,7.16v.13l0-3.57,0-2.89,0,13.07.08-10.32,0,21.74L309,51.14l0,1.24v-.55l0,11.28.07,4.4,0-13.35.07,9.09,0,6.33.05-17.07,0,5.37,0-4,0,11.7v2.33l.06-13.21,0,4.13.08-3.44,0,12.66,0,4.41.07-18.86v.55l0,14.73.11-8.12V59l0,4.68V74l.08-13.35,0,10.46.16-14.72L310,76l.12-17.89,0,11.7.05-14V53.2l.08,19.54,0-10.73,0,13.21.07,5.64,0-25.46,0,7.3V48.52l0,20.09.07-6.19v1.1l0-12.25.07,10.32.11-9.49,0,14.86,0-12.93,0,12.52.1-5.92L311,43l-.05,18L311,56l.13,14.31L311,51.83l.09,18,.06-21.46.06,12.24.13-13.21L311.3,65l.08-14.44V79.35l.08-31.1,0,7,.13,29.85-.05-34.26.06,17.34V60.49l.08,23,0-17.61,0,53.53,0-83.25.05,15.27L312,29.26V30.5L312,48l.07-7.57.14,12.39-.12-12.66L312.21,51l.07-7.71,0,12.53,0-4.41h0V54l.11,4.12-.06-6.88.06,5.51.1-8.53,0,11.28,0-4.26,0-5.51,0,7.57,0-1,.08,8.8,0-17.34.06,11,.11-8.39V69.3L313,46.6l0,10v2.07l.11,12-.06-19,.06,11.83.08,5.92,0-13.35V66.41l.1,5.92,0-23,.05,15.27,0-7.84,0,15.27.05-10.59,0,12.66,0-19.13.06,5.5.05-13.89,0,32.06.09-27.11.1-2.89-.08,14.72L313.78,52l.08,12.25,0-3.44.05-3,0,11.15.08-8.12.09,9.36V49.21l0,18.16.05-4.81v8.12L314.27,51l0,8.53.06-9.77,0,12.39,0-6.2,0,11.56.08-12.38V53.2l0,10.73.05-5.64.06,13.49,0-18.17.08,6.06.12-12.8,0,18.3,0-17.89,0,16.38.1-7.43V55l.07,15.69,0-10.32,0,12,0-12.66.13,8.39,0-6.88.08,10.46.06,7.84,0-16.51,0,7h0l.05,10.73v9l.07-27.8,0,10.46L315.66,50l0,16.37.06,4.27,0-13.08.06,1.79.1-14,0,16.51.06-11.28L316,80.86l0-31.65.08,9.22V49.21l.08,20.92,0-7.71.06-3.58V70l0-5V72.6l.08-19.67v1.23l0,23.81v4.68l.07-36.88,0,17.2.11-14.86-.09,60.13.1-59.85V59.53l.05-19.68,0,4.13.05-1.37,0,5.36,0-.82.1,14,0-14.58,0,11.69L317,50,316.9,62.7l.07-7.43,0,10,.08-10.18,0,5.36.09-9.35-.06,14.45.08-10.46.1-9-.07,10.32.09-1.79h0l0-4.81,0,9.22,0-2.48v2.75l0-12.79.05,4.81.08-2.89-.06,8.95.07-3.17,0,8.67,0-10.32,0,.14V48.94l.08,13.48v-1.1l.06,7.84,0-17.2.08,9.77.07-7.29,0,12.11V62.42l.06-8.53,0,13.07,0-12.8.11,9.77v-2.2l.09-15.82,0,7.15.06,9.5,0-15.83.08,5.92.06-10,0,3.44.11,18.85,0-20.51,0,6.47.11-3-.08,15.69.09-15.13L319,63V59.53l0-7.84,0,15.68,0-6.6.08,6.47,0-16,.05,6.33.07,5.51,0-9.08.06,19.26,0-23.39,0,5.5.05-5.23,0,12,.06-1.79V67l0-14.86.07,2.75,0,.55,0-7.43.09-9.91,0,17.62,0-.83,0,9.36,0-25.59,0,9.63,0,6,0-13.35,0,3.31V31.46L320,57.33V52.24l.06-9.91L320,58l.07-8V62.28l.08-31.65V55l.1-16,.06-3.58,0,18.58,0-9.64,0,24.08.08-31.92v8.81l0-10.46,0,20.09,0-14,0,15.83L320.68,41V39.17l.05,12.66,0-7.44,0,27,.05-37,0,5.23V33.8l0,12.25L321,40l.09-8.53,0,12.38.08-7,.06,15.82.09-8.39,0-2.34.05,15.13,0-9.08V46.05l.06,16V63.8l0-22.16,0,6.75v-6.2l0,15.83.08-6.19.09,7.84,0-13.35.05,5.78.08-9.22-.06,11.42.08-1,0,2.61,0-5.64,0,.14.11-8.26L322,60.36l.08-16.52v7.85L322.12,37l.05,6.61.05,8.12,0-11.15.11,4.27V33.11l0,14.72.06-9.49.07,8.81,0-11.56.07,1,.06-2.06,0,8.25,0-2.06.09,8.39,0-8.67v-.55l0,12.11,0-4.68v5.1l0,6.88,0-10.32.05,1.37.05-4.13,0,11.42,0-1.78.1,15.54,0-26.83,0,17.06.07-23.11,0,24.63.08-12.94,0,3.31,0-10,0,3.72v.68l0-17.47V26.09l0,25.6.06-14,.13-8.8-.08,14.58L323.57,30l0,13.34.08-10.18v-4l0,13.62.07-5.36.16,24.49V52.51l0,7,.09-17.89.07,11.7-.06-11.84.12,5.23,0-8.8,0,13.07v4.82l0-15.55.07,8.94,0-2.48,0,16.24,0-10.32.1-7.43,0,13.35,0-8.4.09,24.5V47.15l.05,9.63.1-15.28-.05,27.94.07-20.09,0-6.47,0,13.21,0-4.68v7.3l0-34.13L325,58.29V34.35l0,29.58.05-4v3.58l.05-23.39,0,3,0-9.5v18l.06-8.12,0-9.22.06,20.5,0-14.58v5.78l.08-12.39v-.41l0,9.77,0-1.79,0,14.86.1-7.57.06-16.23.06,11.14h0l.09,5.51,0-16,.06,8.67.11-9.9v2.75l.12,10.32L326,27.61l.11,17.06.07-15.14,0,16.52.1-10.6v9.63l.09-10.73v2.34l.05-4.27V39.3l0-2.89v8.12l.08-15.27,0,10.18.09-10.87,0,6.74V50.59l0-23.53.09,14.17L326.9,32l0,13.07,0-4V36.55l.08-9.49,0,16.1,0-2.48v1.1l.05-17.06,0,6.19.05-10.73,0,18.16.07-3.16,0-20,.11,11.29.08,12-.07-22.71.1,12.39,0-7,0,9.08.08-7.43.18,20.09L327.69,21l.12,16.93,0,5.09V37.65l.08-8.94-.06,13.48.09-7.57v1l0-7.16.07,1.38,0,7.84,0-13.07V29l.09,8,0-12.79.05,6.6V26.51l.08,11.14V36.14l.09-12-.06,15,.1-5.23V54.85l.06-30.41,0,3.17.08-15.83V38.89l0-19.81.06,12.66V19.49l0,21.46.05-5.77.08,14.72,0-16.93L329,34.9l.06-6.6,0,15.82.07-7.16.12,23.67v-7.7l0-21.06,0,72.38.06-56.14v8.26l.09-25.87.11-6.88-.08,18.71.08-16.79.06,16,.06-9.9.05,11.56,0-12.66.08-7.85,0,11.7.05-4.54.08,9.91,0-15.14V22.65L330,37.93l0-11.15.06,6.47,0-13.07.07,11.14.06-7.84L330.23,35V33.8l.08-6.06-.06,13.08.07-3.72,0,12.11,0-15,0,11.84.14-16.38v.14l0,13.9.09-4.27,0,1.93V34.21l0-4.13,0,20.92.05-3.44V36.41l.11-8.25-.07,12,.07-6.61L331.05,44l0-19,.05,8.26.06-8.95-.05,9.36.1-3,0,5.51.07-9.77,0,8.25,0-9.9,0,18.71,0-6,.08,5.36-.07-9.35.1,6.19.11-9.22V33.8l.06,3.71.05-8.11V43l.08-18.85,0,8.12.05,26.83,0-35.64v-.41l0,19.4.08-17.89.13,15.82,0,3.44.05-13.76,0-9.49V35.86l.08-4.68.07,14,0-21.47.07,10.46.13,20.23-.05-26.56.06,18.85.05-22.29.06,13.21.07,6.88,0-18.85.06,11,0-7.71V46.87l.08-9.22v-3.3l.11-6.19L333,36.83l.08-8.12v7.84l.09-11.42V25l0,3.31.06,6.19v-10l0,2.75V21.28l0,14.17.08-8,.08,11,0-11.84v2.21l0,7.7.06-7.84,0,1.92,0-3.71,0,13.07.07,4.27V26.51l0,7.84h0L333.89,48l-.1-16.51.13,9.22.1-9.5V49.9l0-13.76.07,13.07V34.49l0,9.08,0-11.42.05-7.85,0,19.68.07-5.5.06-12.8,0,16.1.1,19.81-.07-29.3.08,13.21V30.22l.07,21.47,0-11.56v-4.4l.06,20.91,0-5v4.13l.09-21.75V30.63l0,17.62.05-10.32L335,55l0-7.57,0-5.5V55.13l.08-8.26.09,15.28V44.81l0,15.13.13-22.56.08,8.67.05,5.09,0-10.74.06,1.79.08,4.41,0-9.09V36l.07,10.87v1.24l.07-8.81,0,1.65V36.41L335.93,50l0-6.33V33.66l0,21.47L336.06,40l.07,8.12,0-12.8v-.82l.05,14.58,0-9.08.09,18.58,0-13.76v-2.2l0,12.93.05-5.78L336.52,39l0,11.83.06-5.78,0,11.29.05-15V37.79l0,13.07V52.1l0-19.26.07,11.83v2.75l.08,4.41,0-12.8.06,4.81.05-5.36,0,15,.11-11.15.13,6.74-.1-11,.1,10.74,0-6.19,0,9.63.09-3.44.11,9.77,0-12.94,0,6.33.11-4.26-.06,9.77.07-9.5.07,13.35.05-6.47.05,16.24,0-22.7.06,3.71V50.72l.06,23.12,0-16.1,0,19.82,0-30.55v-.55l0,13.76,0-4.4,0,6.88.05-17.76,0,16V49.35l0,25.73L338.2,58V68.75l.1-6.47.11-20.78,0,32.34.05-19.13V56l0-8.67,0,1.66,0-20.51.06,22,0-.69.05,9,0-15.83,0,4.54,0-6.47V51.69l.06-.42v1.38l0-13.21.05,4.82.08-4.68-.05,13.48L339,46.6l0,17.2L339,43l.1,10.18,0-22.84.09,9.91.13,12.11V49.9l.1-12.25,0,22.43.05-18.71.09,9.49,0-10.18.07,6.47.07,17.47V40.54l0,7.29v-7.7l.07,16.92,0-3.71.09,12,0-18,.07,7.71V44.53l0,19.82.08-14,0,8.4.06-11.29V50l.07,12.38,0-23.53,0,9.08,0-1.37v7.29l.07-4v3.16l0,3.58.07-9.36V43.84l.05,23.26,0-5.51v4.13l.08-16.78v-.55l.06,7.7L340.8,62l-.07-12.8.08,3.85.05-4,0,7.85V55.13l0,3.71,0-8,.1-1.79,0,15.83.05-12.52,0,15.54.07-11.83V55l0,10,0-4.54V74.8l.06-14.72,0,7.71v.68l.05-7.56V59.67l.05,10.59v4.68l.06-14.58,0,7.15.12-13.62-.07,20.23.07-17.89.05-3.3.07,17.61.21-22.15,0,3.71,0,20.37V47.56l.08,5.09,0-1.79,0,11,0-3.3.08,1.51,0-11,0,4.41V51.83l.06,17.33,0-3.57v2.06l0-10.87.07,3,0-5.65.06,9.22,0,19.13.06-25.87v.28l0,3.85,0-8,0,1.51V48.39l0,14.44.09-8,0,15.41,0-18,.05,2.89,0-2.62V63.38l0-1.37v3.44l0-9.36.06,3.17.06-5.65L343.34,93v31.92l0-82.56.07,19.82.1,5.22,0-12.24,0,4.95.11-13.76-.07,16.24.08-8,0,5.64L343.74,48l0,10.46V49.9l0,16.24.08-8.67L344,70.4l-.08-15.27L344,69.85l.08-20.23,0,13.9v6.61l0-14.31.06,2.33h0l0-4V62l0-5.64h0l0-8.26.07,6.47.09,6.88,0-17.07,0,4,0-6.06,0,12.66,0-1.65,0,6.33,0-12.52,0,2.61.12,17.89V52l.05,14.45,0-8.67L345,78.38V53.48l0,3.71,0-8.25.06,10.59.1,5.78-.06-13.07.07,7,.1-10.46,0,14.86.05-9.22.1,5,0-16.78,0,7L345.5,44l0,21.88V51.14l0-12.66,0,32.61.06-14.72V69.3l0-23.67,0,5.23.06,21.19.06-33.16v-.55l0,13.21V68.89l0-25L346,56.23l0,7.84v-16l0,6.33.1,1.24,0-26.15V46.87l0,9.77,0-19.26,0,4.12.11-3.85,0,12.11,0-8.67.11,15.41L346.43,33l.1,13.21,0-2.2,0,15.14.08-5.51,0,13.49.06-18.85,0,4.81.1-10.45-.07,13.89.08-10L347,53.2l-.09-11L347,50l.08-7L347,57.88l.1-13.07,0,10L347.18,40l0,3.17.06-5.37V50l0-5.1.11,4.68-.07-9.49.07,7.43.09-6.47-.06,13.21.08-4.13L347.64,70l-.08-20.78L347.65,69l.08-31.38,0,10.6,0,6.88V42.19l.05,4.54v-1.1l0,7L348,50v.82l0-12.11,0,7.3,0,7.84.09-12,.12,14V53.2l0-11.56V71.78l0-28.21.07,4,0-2.34V63.8l0-10,.07,8.26,0-17.62v9.22l0-3.44,0,4.82,0-.83v6.33l0-14.31.08,5.37,0-8.12,0,21.6.05-11.14.06,2.34v-10l.05,6.61.09-9.77L349,56.23l.09-6.61.09,8.67,0-9.08V59.39l.07-10.32,0,3.44.12-4.68,0,18.44,0-18.16.12,7.16,0-14.87,0,13.35.1-6.47L349.63,58l.07-9.77.11,19.4-.06-23.53.08,9.63.08-5.36-.05,15.13.06-7.43,0,7.57V49.07l.06,5.51.05-3.44,0,8.67v1l0-12.8.06,4,.07-5.36,0,16.1,0-5.78V76.46l0-29,.07,1.79,0-2.61,0,10.87,0-5.64.08,1.65,0-6.06,0,2.34V43.57l.07,11.14,0-5.09.09-.55-.07,7.3.08-5.78.08,16.78,0-8.25v6.47l0-14.59.05,9.49V52.38L351.05,63l0-2.61.1,2.2-.07-9.77.07,6.47.08-6.61,0,11V51.14l0,11.28.1,2.61-.06-17.47.07,13.9.12-14.59L351.49,69l.1-14.73.1,6.61-.05-15,.05,2.06.08-9.08,0,18,.06-12.53v3.17l0-8.94.06,5.22,0-5,0,8.39,0-3.71.07,9.91,0-11.84.07-2.75,0,10.73,0-5.64.07-.41.05,12.25.11,11.28-.05-14,.06,12.53.11-19.68V55l.05,3.72V48.25l0-10.87.07,15.82,0-8.94,0,10.45.06-12.65,0-5.1,0,17.75v8.4L353,35.73V46.87l0-7.15.07,2.06,0,13.9,0-20.78,0,4.4V28.57l.07,17.89,0-2.48h0l.06,1.79,0-8,.06,1.79.09-6.61-.07,11.7.1-7.71.08,11.56,0-9.35V36l0,22.43.07-11,.11,14.45-.1-16.24.11,9.5V48.8l.07,13.48,0-10.32,0,9.77,0-18.3,0,4.68,0-8.94,0,13.48.07-3.85,0-3.58v7.43l0-1,.05,6.88,0-17.89v-3.3l.05,14.72,0-2.2,0,4.4,0-14.31.05,4.4,0-1.92v3.71l.08,6.75V44.12l0,3.85.06-4.81,0,13.21v4.12l0-13.89.07,4.4.05-1.1,0,7.43,0-3.17.08,8.54,0-17.07,0,3.17.1-8.4L355,61.32l.09-19.4,0,12.66.1-8.4.07,12.25.05-11v-.69l.05,13.49v4.13l.05-14.45,0,4.26,0,9.77,0-22.7,0,9.49,0-4.95.07,13.76,0,5,0-12.24,0,6.6,0-5.09,0,19,.09-32.2v3.3l.05,14.45L356,40.4v2.07l.08,14.86,0-21,.07,5.91.1-11.42,0,17.2.05-8.8L356.33,50v-4l.11-7.3-.07,10.32.07-4.26V47.7l.09-10.6v7.71l.07-13.76,0,36.74.07-22.16v1.65l0-11.55,0,5,.09-4.27,0,11.42,0-2.89V48.8l.06-18.3,0,4.81V30l0,23.53v6.33l0-31.65.05,10,.11-6.05-.05,10.18.07-8.39.11,13.62V45.22l0-5.23v8.4l.07-3,0,8.39,0-16.51,0,5.37,0-.55v9.77l.08-13.08,0,6.47.06,3-.05-7.85.08,3.58V40.54l.07,12.52,0-5.36,0-3.58L358,54l0-5,0,7.43,0-15.82,0,5V38.75l0,9.64.05-2.07.12,17.61V49.07l0,21.74.06-2.47,0,6.19.05-26,0,5.51v6.33l.1-11.15v-3.3l.1,10.32V55.4l.07-10,0,6,.1-6.33,0,10.6.05-5.51.12,10.32-.09-15,.09,13.62V46.05l.05,17.75.05-6.75,0,5.23,0-10.45,0,4.26V50.45l.09,16.92V77l0-20.23L359.45,67v1.51l.06-16.37,0,8.94h0V57.47l.12-5.23L359.62,67l.06-14,.05,10.32.07-4v-.83l0,6.6,0,1.66.05-10.46V58l0,8,0-14.86L360,54l0-8.81,0,10.73.05-1.37.07,2.06V48l.1-12.38,0,12.66,0-1.1.09-11.56V50.31l.05-6.6.07,6.19,0-9.77.09,1.1V34.07l.1,11.43,0-5.23V53.48l.09-8.12,0,13.07,0-20.5V36.55l0,16.51,0-10.32.11,20L361,40.27l.08,16.37v9.63l.05-21.6.05,6.74,0-9.77,0,13.07.06-3.71h0l.12-7L361.36,54l.05-8,.08,5.09,0-8.53.06,1.65.09,5.5,0-8.26,0,15,0-20.5,0,9.77.06,4.54,0-10.87.07,9V34.76l0,17.34L362,41.64l.13,26.56L362,40.68l.11,17.75.09-8.81,0,14.86.05-.13V74.94l0-29.31L362.34,59l0-10.18,0,25.18V94.07l0-50.23.07,3.58V38.06l.07,12.25,0-3,.07,2.21,0-8.67,0,3.3v-3.3l0,24.21.07-8.53v1.24l0-18.16.06,6.88,0-3.17L363,55.68v-1.1l0,4V50.45l.05.82V44.39l.08,10.74,0-5.09,0-8,0,12.52,0-6.33,0,9.49L363.4,52l.06-16.1,0,47.34.09-44.45V51.14l.11-4.27v5.37l0-8.12V33.52l.07,22.3,0-14.18.1,21.74,0-13.62.07-7.15-.05,22.56.07-5.91.08,10.59,0-18.16L364.1,56l.09,16.38-.07-19.54.1,6.19,0,3.17.08-22.43v11l0,16.38,0-25.18.09,9.49V42.33l.09,12V51.14l0-9.36,0,11.7.07-6.61v5.37l.06-11.84,0,5.23.07,7.57,0-13.21.06,4.4.1-4,0,11.43,0-7.3,0,12.39.08-9,.12,8.4v-9.5l0,7.57.09-11.28V54.71l0-7.84.09,12.25-.07-14.45.08,1.1,0-7,0,12.52,0-1.65L365.65,62l0-20.37V62.7l.05-13.63.05,5,0,16.65,0-21.33.06,9.08v-14l0,15.42.07-2.34.13-10.87V58.84l0-11.83.07,2.06V40.54l.07,14.86,0-13.62V41l.05,11.7,0-4.4,0,21.74,0-28.49,0,2.07.08,5.5,0-16.51.13,23.81-.1-27.52.11,24.9,0-16.1.06,16.24,0-5.23.07,4L367,44h.05l.11-9.77-.05,30.69.06-28.76.11,16.1V43.16l0-7.85,0,10,.06-5.64.08,4.81-.06-8.25.08,2.61.11-4.4,0,11.83,0-9.63,0,14.31,0-14.45.1,6.06,0-3.17v8.81l.07-6.88,0,4.26V36.41l0,13.35L368,37.1v15l.1-14.31V35.18l0,14.58.06-5.78,0,11.84.1-7.43.05-7.44,0,13.76.07-5.64,0,6.33V41l.07,5.92V47l0-3.85v-.42l0,8v12l.05-26.29.05,1.38.07-9.22,0,18.58.07-11.84,0,15.69,0-22.57.05,3.58V24l.06,21.6,0-.13.07-7.16,0,7.29.1-6.05.15,19.13V56.92l.12-19.54v16.1l.05-13.35.05,7.15v-2.2l.07,15.14,0-9.5V55.4l.05-8.94,0,5.23,0-7.43,0,14.58.06-11.28v-.83l0,14,0-3v6.61L370,43.71v.55L370,47l0-4.95h0V37.79l0,22.84.08-12.38.06,6.46,0-12.38.06,2.06v-.68l0,10.45.05-6.33v5.92l.08-9.63,0,4,.05-5.64,0,8.53,0-2.06,0,16.65,0-28.9L370.67,50l.05-10.32,0,12.11v8.53l.08-18.17,0,5.92,0,15.41L371,48.11,371,43l0,17.2,0-14.17.05-5.23,0,9.63.07-3.3.06,14.31,0-17.75,0,3.44.08-8.81,0,11.15.05-5.51.06,15.41.05-7.7.13-8.4-.11,16.24.12-14.86.12,13.48,0-18.43,0,15.13.11-18v3.85l.07,9.36,0-12.8.1,7.7V42.19l0,7.71v3.85l.08-15V37.38l.07,18.44v2.47l0-9.22.05,3.72.13-10.87-.1,16.79.11-15.83.1,15.69,0-16.24.07,4,.13-9.49-.07,16.78.07-15.13,0,12L372.8,37l0,1.24.09,7.16-.06-8.53.08,1.51V37.1L373,48l0-4.13v5.23l.09-12.79v6.19l.12,9.91v-7l.05-10.74,0,13.08.08-.69.08,9.77,0-21.05,0,7.56,0-2.61,0,11.56,0-3.58,0-9.08,0,12,.11-5.92V40.27l.05,9.49,0-3.44.07,9.91,0-17.06.05,3.3V40.68l0,8.67,0-1.93h0l0-3.3v6.6l0-1.37V62l0-17.2.08,12,.09,1.65,0-20.09V36.69l.06,22,0-21.33h0l.06,7.56V26.78l.07,17.61,0-7.84.1,12.25-.07-14,.09,10.6.07-10.87,0,4,.08,7.7,0-13.89.08,9.35,0-2.2v8.39l0-3.71,0,9.22V38.62l.07,3.16.11,7.71-.07-8.4.08,3.17.09-7.43,0,11.69.06-2.61v8.53l0-12.66.06,1.93,0,9.49,0-10.46.05,1,.11-18.3-.07,20.22.09-12.11,0-.41v2.62l.1,6.05-.06-12.52.07,8.94,0-4.26,0,19.26v3.85l0-30.13V25.54L376,40.27l.08-15,0,18.16,0-2.2,0,20.36V37.79l.08,12.52.06-17.06,0,18.3.09-2.34V62.15l0-27,.06,8.94.09-10.73,0,12.79.07-5.91V56.64l0-26.83.07,14.45.08-6.88,0,10.87.06-2.89.05,8.94.05-11.42v.55l0,4.68L377,58.29,376.92,44,377,56.5V45.91l0,18.85.05-9.77v11.7l.1-18.86v4.82l0-13.48,0,3.57.12-11.83,0,18.44,0-17.75V55.82l0-28.49.07,20.09v6.74l.09-15.82.1,12.93-.06-16.51.08,10.18,0-11.42,0,20,0-7.43,0,9.22L378,43l0,4.81.08-6.46,0,18.85.05-10.73.05,5.22,0-10.45.09,7.43,0,21.19,0-29.17.09,12.79,0-11V69l.08-11.15V52.65l.11-12.93V41l.06,8.67V39.44l0,5.5.1-7.43,0,12.53.05-7.57v7.15l0-13.48.07,9.63h0l0-5.37,0,8.81.07-5.64.11,7.43-.08-9.5.09,5.78.06,6.2,0-7.85.05,1,0-9L379.34,52l0-5.36.11,3.85L379.39,40l.08,9.08,0-12.24.09,9.9,0,2.34V38.62l.05,1.92,0-3.71.06,16.37.06,2.07-.05-8.81.07,3.44.07-14.45,0,9.08.06,3.86,0-10.74.07,6.47.05-9.08,0,23.25.07-9.49.06,14.31,0-27.66.08,16.79,0-14,0,32.06,0-8,.09,8.12,0-14.17,0,2.06.14-14.86-.12,21.74.15-17.06.09,2.34,0-10.05,0,3.17,0-5,0,12.38.08-9.08V40.4l0,7.57v2.48L381,40l0-2.48,0,11.84V52l0-12.11.05.69h0l.12,12-.1-16.23.11,12.11h0v-7.3l.09,11.29h0v.68l0-7,0,.27V41l.07,8.67,0-2.89.08,15.55,0-17.89.1,11.43,0-9.64,0,20.37,0-1.79.06,9.91,0-25.87,0,1.51V48.94l0,22.7,0-2.48v33.71L382,29l0,3.31.08-5,0,12.94,0-6.61V53.48l0-32.34.08,18,.1-14v8.53l.07,8.26,0-10.32,0,6.33.1,5.23L382.5,29l.07,11.7,0-11.56.08,9.36.08,11.14,0-12.38.06,7.29.11,16.79,0-19.68.05,5.09,0-6.33,0,14.87,0-3v1.24l0-11.7.07,3.16.09,7.44L383.15,41l.06,7,.11-8.8L383.27,50l.06-9.77.06-7.71,0,10.87v.28l0-6.2v-.13l0,3.71.07,3.85V33l0,4.68.11-8.67,0,11.7,0-8.94.08,11.83,0-3.72h0v6.06l0-10.73.08,5.5.08-5,0,7.7.08-5.64.07,3.85,0-8.94.07,2.48.06-12.25,0,25.32,0-5.51v3.44l0-14.44.09,10.73V39.3l0-5.23.07,8V38.2l.07,6.33V33.94l0,3,.09-2.75-.07,10.87.09-8.12,0,16.24,0-25.73,0,7,.07-5,0,14v1l0-18.16V23.2l0,9.22,0-1.92v16l0-20.64.07,8.39h0V25.27l.08,14.17.07,7.16V30.36l0,6.74,0-9.91V37.38l.1-6.33.1,9.63-.08-12.25.09,7.3.05-7.85,0,10.32,0-8.8.13,12.24,0-18,.05,15,0-17.07.11,4.68V24.17l.05,12.11,0-4.41.09,10.87,0-14.17,0,4.4.09-4.81-.07,9.49.08-2.89,0,9.08,0-17.33,0,1.1h0l.1,14.86-.06-18.3.08,10.32v-.28l0,8,.1,3.58L386.46,35l.08,6.33,0-8.26,0,11.15.06-3.86v19l.07-31.65,0,5.37,0-5.64,0,9.22,0-1.65v4.81l0-13.48.08,11.42,0-8.26,0,8.67.09-.27v5.78l.08-16.79V29l.08-.27.07,11,0-5.1,0,10.74,0-2.34,0-5.78,0,7.15.05-.82.12,7.43-.1-10.87.11,9.49.13-15v.28l0,7.84,0-11.42,0,5.51V33.25l.05,21.88.05-21.33L388.05,59l0-27.8,0,12,0-9.5,0,13.21.07-1.79v2.07l.06-12.25,0,1v5.51l.09,7.29V35.31l0,8.53.07-19.26,0,24.22.1-18.72,0-3.3,0,9.91,0-2.34v2.2l.07-6.47,0,5.23h0l.08-4.81-.05,11.56.07-4.55.08,8.81-.05-21,.07,5.36.06-4.95,0,11.56.05-2.48,0-4.13V52l0-19.54.07,8.53.11,20.92L389.18,37l.08,12,0-17.2.07,9.08,0,2.34,0-9.64V32.15l0,12.79.06-4.4v4.13l.07-10.05,0-4.54,0,12.66,0-5.36.11,15V44.81l.05-9,.05,10.74.09,6.74V33.8l0,9.63V58l.05-20.37,0,5.23v3.58l.07,9.49-.05-11.42.09,5.37V41.78l.06,21,.05-19.67,0,13.07,0-18,0,7.57.05-18.58,0,19.68.05-13.62L390.66,55l.06-24.36.18,30.28,0-8L391,33.8l0,12.93.08,12.66,0-21,.05,12.38v1.52l0-8.53.06-2.48,0,21.74.07-16.24.11,17.07-.07-22.43.08,16.1.07-8.53,0,12v-.69l.14,16.24L391.57,54l.12,15.13.12-10.73v.69l.06,7,0-9,0,7.43L392,43l0,6.74v5.78l0-8.53.06,4.82.06-7,0,10.73,0,5.78.05-17.61,0,7.29,0,13.62.09-11.14,0-7.16,0,16.24,0,9.77,0-18.85,0,6.46V57.47l.07-13.35,0,41.55.06-25.31,0-2.76v5.1l0-.55,0,8.11,0-13.48L393,62.7l.1-10.87L393,66.27l.06-2.47.1,16.37V54l0,16.51.06-27.66.08,5.51.07,7.43,0-16.65.06,2.47.06-8.12,0,26.42,0-4,.08,16.24,0-27.38.06,17.47.09,32.61V99l0-23.94.08,16.1.1,15.41-.08-29.72L394,99.3,394,95l0,8.4,0-4.41,0,7.16.06-14.31,0,4.12,0,16.93.07-26,.11-5.5-.08,21.88.08-21.06,0,25,0-36.6,0,7.15V68.61l0,21.06.07-6.47,0,7.7.06-9.49V73.84l.06,13.07,0-4.68.09,2.21-.05-5.23.07,2.89.08-11-.06,19.68L395,79.35l.08,9.49,0-13.9.06,13.76v9.36l0-24.36.06,2.21,0-5.65,0,11.84,0-9.77.06,9.77,0-26.15V70l.06,16.79,0-4.41v-8l.07,3.3v-5.5l0,17.89.08-10.32,0,4.68,0-14.31.12-7,0,11.14,0-10,0,12.66V62.56l.09,5.5.09-4.68,0,9.22.06-4.81,0,2.06V67l0-7,0,12.8,0-7.29.08-5.92,0,9.63.05-4.54,0,2.07,0-7.43.09,7,.14-7.7-.07,13.9.07-12.53,0-.68.1,10.18h0l.11-16.65-.08,16.79.09-7.43L397,72.47,397,53.34,397,68.75l0-13.76.06,15,0-12.25,0,13.62.08-4.4V65.17l.07,10.32,0-2.06,0,10.73.1,5.23-.07-23.67L397.51,85l.09-13.21,0,21,.06-18.3L397.74,92l-.07-18.71.08,6.47.12-11.7-.05,18,.05-16.51L398,81V75.77l0-12.66.08,9.63v1l.06-12.24V59.53l.07,11.28,0-.55.08,5.23v-14l.08-3.86,0,15.55,0-8.25.09,20.77v-22l0,1.37.13-12-.12,16.65.12-12.24.07,15.68.05-7.43,0-8.12,0,15,0-1.24,0-11.55,0,13.76,0-3,.1,20.09-.06-34.26.07,8,.07-7.16V76.46l0-9.64v7.71l0-10.6.09,4.68.07-4.13-.06,11.84.09-7.57,0,7.71.05-8.95,0,1.1v.28l.05-4.27v.83l.05-2.2,0,10.18,0-3,.06,8.39,0-14.86.05,1.79,0,13.63.08-17.07L400,86.91l.07-6.33.08-4.12,0,12,0-2.07.06-.55,0,11.56,0-3.58v8.95l.05-24.91,0,6.47,0-17.89.09,12,.08-8.25-.06,8.39.07-1.65.1,9.49,0-12.79,0,7.15h0V82.1l0-14.45V59.81l.09,16v.14l0-4.27v-10L401,74.67v-1.1l.09-12.8L401,74.39l.09-1.92v5.09l.08-14.73,0,.69v2.75l0,14.59.08-24.08.09-1.38-.07,13.07.08-9.76.07,9.21,0-13.62.09,8.4,0-5.51.07,13.62,0-9.63.1,16.24,0-17.75.05,3.85V60.36l.06,12.11v.68l0-12.66,0,4.68v3.3L402,84.85l0-28.07L402,80l0-24.63.08,13.76V74l.07-21.6,0,12.52,0-7.71,0,15.28,0-3.44.14-14.73L402.33,73l.16-12.11,0,9.63L402.59,54v1.1l.1,12.66,0-5.09,0,11.42,0-19.41,0,5.23.09-5.64,0,9.36L403,65l0-11.42,0,7,.07-10.18,0,21.74,0-20.23.05,12.8.06-13.62V49.35l.07,10.59v1l0-12.25,0,2.75V50.17l0,14.73,0-1.1,0-11.29.1,9,0,18.71.07-25.46,0,4.55V53.48l.09,14.72,0,11.15,0-24.36,0,10.32.12-21.6v4.81l0,13.9.07-17.48,0,2.07,0-5.51v7.3l0,10.46.06-16.65,0,2.33,0-12.1.11,3.71.09,13.21,0-10.87.07-5.64,0,13.35.08-10.87,0,12.93.07-16v-.41l0,7.84,0,5.09,0-11.15.08,2.62V34.62l0,23.53.06-2.47v.41l0-9.77V41.09l.06,26.28,0-18.85v-.69l0,13.21.1,12.53-.07-28.63.08,16.93.11-18.71,0-9.77,0,10.32.06-4.41,0,15,.05-15.55,0,1.1,0,4.13.07,9.08.05-5.09.05-2.06v7l0-1.79.08,3.16,0-10.73.05,1.51V41.5l.06,18,0-14.86v9.22l.06-10.46,0,.41V42.06l0,17.61.07-4.82.08,5.09-.05-14,.08,6.19V46.32l.1,16.65,0-15.41.08,16.37v-.68l.08-21.61.05,5,.1,8.8v-21l0,12.11,0-6.74.05,14.17V46.18L407,56.92l0-15.14L407,56l.09-19.54,0,22.3.05-4.13v4.68l0-20.23.08,14.72,0-9.08.08,12.25.09,6.6,0-11,.07,7.43.09-7.43,0,16.24,0-10,.08,11.55-.05-24.08.08,8.67.07,5.78-.05-14.31.06,5,0-7,0,14.58,0-8.94h0v3.3l.08,5.09,0-15.82,0,4.13L408,41v8.4l0-.41,0,6.19,0-11.56,0,4.26.05-2.33,0,8.66,0-6.19,0,10.74,0-15.28.1,5.92v-1.1l0,6.6,0-2.47.06,9.08,0-16.65,0,6.74,0-1.93,0,7.57,0-5.09v6l0-13.48.05,3.16.12,18.86,0-8.12.11-14v1.52L409,69.58l0-27,.08,6.74.09-7.85-.06,19.41.07-9.36v3.72l.06-18.58,0,4.26,0-2.47v5.78l.07,9.49,0-15.82.09,8.25V43.71l0,15.55V70.4l0-28.21L409.58,59l.11,12.25-.06-17.75.07,7.7.05-12.52,0,12.66.1-7.57.12,14.45-.06-15.69.06,15.14L410,51l.07,12.25.05,2.47,0-12.66,0,5.09,0-12,0,15.69.05-9.49V67.65l.05-20.09,0,5.09.08-10.87-.06,14.59.1-9.22.06,14.72,0-23,.11,12.66.09-4.82,0,9.77,0-3.57,0,2.34,0-13.63,0,6.33v.83l.1,5.78V45.63L411,34.35l0,20.23.09,10.73,0-18.71,0,1V45.91l0,16.79.05-8.26.08,30.82,0-40,.09,27V54.85l.06,29.45,0-16.1,0-6.05V80.72L411.5,93l0-31.51L411.56,80l0-.82v9.63l0,7.84,0-53.39V29.4l0,28.75.08-13.21.06-10.73,0,19.13V51.41l0-9.49,0,11.69,0-1,0,63.3,0-70.18.07,1.38,0,17.06.07-20.64,0,3,0-5,0,16.65.08,3.44,0-22.7.05,10.18,0-10.32,0,38.94.05-23,.07,4.54,0-9.63.05,4.13.08-16.1,0,5.64,0,5.09,0-11.14.07,7.56h0l.06-1.23,0,12.52.06-7,.07,8.26-.05-10,.09,1.52.11-7-.07,23,.07-21.33.05,11.28,0-13.76.11,12.39.06-12.11.05,9.08.11,9.91-.05-15.28.05,9.36.09-11.56,0,6.74.08-6.88,0,11.29v2.61l0-14.86.06,1.24.14,11.14-.11-11.55.12,7.7L414,34.62l0,19.13V48.39l0-11,.05,3.44,0-5.37,0,9.77,0-.69,0-8.94.05,10.46,0-3.72V47.7l.05-10.19.05,7.71.05-8.81,0,10.6,0-1.93v3.86l0-11.15.08,4.13V37l.06,14,0-6.47.05,8.26,0-11.15,0,4.41.06-7.43,0,19L414.91,43l0,8.53,0-10.18.07,5.91V40.13l0,11.7.06-9.22.13,8.53-.1-10.6.11,5.23,0-6.05,0,14.17.08-13.07.07,13.48V39.72l.05,3.16V39.44l0,11.83.06-5.77v8l0-17.34.07,10.59.1,11.84,0-18.85,0,15,.06-13.48,0,26V53.75l.12-7.43,0,18.58,0-18.44.06,5.64V41l0,4,0-6.74,0,23v6.33l0-38.66.07,11.83.13-12.11L416.39,41l.06-11,.12,11.55-.08-14.86.08,10,0-5.37,0,10.46.09-2.89.09-9.49,0,12.66.07-4.82.11,7,0-17.75,0,14.31V43l0-12,0,4.68V30l.05,14.17.05-5.23.09,15.69,0-18,.06,3.85.11-9.22-.07,24,.08-17.75v6l0-7.29.05.14.06-5.51,0,6.88.08-1.37,0,3.71V52.93l0-18.86.06,2.21.05-10.46,0,25,0-16.51.08,7.43-.06-16.37.08,2.75L418,43.57,418,39l.06-11.42,0,12.93V53.89l0-22.15.06,6.32V35.31l.06,14.45v-.69l0-16.37,0,30.55,0-9.5.05,58.89,0-68.11,0-16.1,0,22.57.1-10.87.09,1.93,0-14.45,0,7.29,0-1.93,0,14.31V52l.07-18.16,0,1.51.05,8.26L419,30,419,39V30.5l0,11.28.06-2.48,0,5.37,0-8,0,3.71,0-4.26,0,11,.07-6.75.11,26.7,0-31.37.06,13.21,0-10.32,0,22.15,0-12.66,0,17.48.05-18.72,0,12,.11-12.38,0,6.6.11,11.84,0-19.13,0,14.59.08-16.1.05,4.4,0,10.46,0-11.84.06,3.17,0-8.81.05,13.49,0-4.13.05,5.37,0-10.19.07-7.7,0,10,0,7.57,0-15.82v2.2l0-1.38v6.74l.07,7.3-.05-15.28.09,10,.07-10.32V56.64l0-5.37.08,20.37,0-8.67V48.39l.09,21v8l.09-31.65v-2.2l0,20.64.06-11h0l.13-15-.11,21.06.11-20.37,0,18.44.07-17.75,0-7.84.09,12.52.09,2.89-.07-7.71.08,4.13,0-4.68,0,10.46.08-7.29.05,16,.07-9.36,0-8.67L422,55h0v1.93l.08,19-.06-23.53.09,4.4,0,5.37,0-8.95.1-7.15-.08,14.31.1-10.6v-.69l.05,8.12,0-1.79.05,15.69,0-19.26.1-9.36,0,15.55,0-11.15.11-3.58-.06,10.6.07-7.57.07,5.23-.06-9.91.09,3v3.44l0-1.1.07,8.12,0-9.91.1-6.33L423,51.83l.1-8.54V40.54l0,12,0-2.47.06,14.72,0-20.37.08,10.46V49.62l.06,21.19V82l0-37.43.08,20.23.05-18.3.06,14.72V52.93l.07,12.38,0-7h0l0-6.88.06,9.08V62l.06-14.86,0,5.64V45.08L423.92,56l0-5,.06,4.27v-8l.05,1.66v2.89l.11,9.35,0-12.11,0,9,0-6.19.07,8.94,0,15.41,0-23.25.07,5.78v-8.4l0,22.57.07-10.6V56.37l.05-6.61,0,16.93,0-2.89.06-8.53,0,11.14.05-5.09V57.74l.06-5.09,0,11.28v-.41L425,75.77l-.08-20.23L425,73.43l.12-19.4.11,12.52V55l0,18.85.05-15,0-1.92v8.8l.09,7.16,0-19.82,0,4.54,0-8.66.08,15V59.26l.06,7.84V57.6l.05,1.79.08-2.89-.05,24.91.08-20.5,0,8.67V57.47l.08,2.2.1-7.57-.08,12.11L426,56.5l0,21.33.1-7.57L426.27,47V62.28l.1-12,.07,5.23,0-12,.08,22.7.06-13.62v5.78l0-9.77V44.53l0,28.35.06-9.22.1,13.21L426.8,52.1l.08,13.35.1-3.72L426.89,77l.1-14.73.11,17.48L427,53.2l.08,22.43.13-25.46L427.15,76l.1-17.47.09,13.07V55.54l0,5,.1-16.1,0,25.74,0-17.2,0,11.14.08-12.52.07-6.47,0,20.78.09-14,.1,4.54-.05-9.64.06,5.65.06-4.27,0,15.41.07-6.74v.14l0-4,0-4.13,0,10.87.06-5,.11,25.19V52.1l0,21.74,0-24.9.09,8.39.1,3-.08-6.88.08,5.23V52.79l0,12.93.07-3.44.09-8.8,0,16.1L428.6,59l0,7.43.06-11.14,0,8.94.12-13.35.07,12.25,0-11.42L429,47,429,58.84l0-6.05.09-8.67-.07,12.52.1-6.47.1,14,0-19.82.07,12,0,5.36.05-15.82v4.81l.09-4.54-.07,14.73.09-8.95,0,3.17,0-9.22V41.64l.06,14.45v-.82h0V57.6l0-9.77,0,2.89V48.66l.07,9.36,0-2.07v7l0-19.4.06,7.43L430,68.47l-.08-23L430,59.39,430,36l.09,9.08.09-7.43-.07,10.46.08-1.24,0,3.44,0-10,0-2.76V48.39l0-3.72.09,16.65,0-10.18.09-4.13v8.67l.09,5.5V48.8l0,19.67.06-10.59.1,11.42,0-16.1,0,11.42,0-6.6,0,14.17V74.8l0-21.6,0,6.88.09-14.31-.05,16.93.07-8.81,0,8.12,0-8.67,0,1.24.09-6.47,0,12.52.06-7.7V49.21l.08.55.06-3,0,8.12,0,1.52,0-6.06,0,3.17V51.41L431.71,69l0-13.08.07,13.9,0-16.24,0,5.65,0-1.24.06,18v1.38L432,60.63l0,10.18.12-17.33,0,26.69.05-24.08.07,16.38,0-22.57.07-10.18,0,21.87,0-7.29V58l.08-17.34,0,14.59.13-28.21v5.09l.09,27.24-.05-34.12.07,9.35.1,14.18,0-9.22v-4l.07,16.79,0-6.88.05,6V34.07l.07,8.4v3.71l.11,14.73,0-2.2.05,8.94.08-21.74.08,11.42-.05-11.83.08,1.51,0-1.51V77.14l0-34h.07V39.72l.05,14.17,0-4,0,3.85,0-10.73,0-5.23,0,15v1.92l.09-10.32.11-1.65-.09,10,.09-9.63.05,25.73.08-13.9,0-10.32,0,17.34.05-2.2V55.68l.07-8.4,0,25.74v5.22l0-27.79.06,6.19,0-12.52v18l.09-12,.07,25.32,0-33V41.23l0,19,0-8.81.08,2.62,0-12.94,0,1.93v-1l0,15.27.05-5.37,0,14.86L435,56l0-12,0,13.35.1-4.13.15,18.44L435.21,51l.09,15.27.07-1.92-.05,6.88.06-1.52,0,6.75,0-13.63.06,7.3,0-9.91.05,13.35,0-2.07.05,5.51,0-13.63.08,6.75,0-13.9,0,28.21,0-11,.05-2.89v51.05l.09-71h0l.09,19.12,0-23.11.05,4.67.11-3.57-.07,11.42.07-8.67.12,17.06V61.59h0V66l0,2.61.05-14V52l.06,21.33,0-7.15.2,20.77-.14-23.39.14,13.76.05-9.08,0,13.9,0-10.87V88.7l.11-3,0-16.37L437.06,82l.1-1.79,0,5.64,0-3.44v3.72l.05-14,0,7.85.1-13.21,0,8.94L437.43,88l0-29.58.08,20.5.08-15.27,0,25.45V93l0-25.18.07,6.88,0,8.67,0-9.77,0,3.71,0-8.81v13.9l.09-3.44L438,89.25l0-21.19L438,71.5l.05,12.94.05-9.5V63.66l.05,15.41,0-1V65.59L438.3,77l0-6.06.1,14.59,0-10.6V72.19L438.53,97V90.9l0,7,0-23V72.88l0,14,.07-3.57V70.26l0,3.72V71.23l.07,10.45,0-4.81L439,93.79l-.06-25.32L439,82.23V67.92l0,16.24.09-8.94V73.29l0,14.72.07-11.28.12,25.32-.1-27.52.12,8.67,0-3.3,0,11.83.07-10.6L439.5,91l.06-4.4.08-14.86-.07,16,.1-2.89v2.61l.07-11h0V74.12l0,16.37.05-5.64.06,7.43,0-9.91.1,8.81,0-7L440,97l0-3.85,0-12.25.07-5.37,0,13.62v19.13l.07-20.64,0,2.34,0-6.6,0,16.51,0-2.07v3.58l0-24.49.08,18.57,0-12.24,0,17.34,0-3,0-12.94.05,22.85v2.33l.05-22.15,0,14.31.12-19.81,0,22.43,0-17.75.12,10L441,82.23l.08,9.22.07-23.8,0,13.76V92.28L441.23,70l0,17.2V85.4l.06,9.22.06-22.84V68.2l.05,32.47,0-20.5V71.64l0,14.31.05-8.26v13.9l.07-18.3,0,4.27V68.75l.05,21,.05-8V74.25l.08,16.1.11,17.75L442,77.42l.09,29.31.07-35.5,0,45.4L442.18,92v3.58l0-12.52.06,5.09.05-10,0,20.91,0-14.45.1,22.16-.08-29,.09,11.84V79.62l.09,24.49v-1.65l.09-27.79v34.81l0-15.55,0,14.72,0-22.42.06,1.51,0-2.48V98.47l.06,10.6,0-23.95.07,7.71.11-11.7L443,101,443.07,88l.11,9.5-.09-11,.09,10.18.07,9.08.05-21.05,0,25.18.1-13.34.09-10.19,0,10.74.05-2.21v5l.08-11.42v2.75l0-11.15,0,12,.06-3.57V91l.08-14V74.8l.1,13.49,0,2.34,0-10.46,0,1.24V77l.05,13.07,0-6.33.05,10.46,0-18V71.91l0,25.32,0-12.11v9.22l0-10.73.08,1.93,0,3.71.06-5.78.11-2.47-.09,11.83.09-11.56.1,14.59,0-16.65,0,11.83.06-9.36,0,13.21.08-4v2.34l.07-16.65.11-7,0,12.24,0-11.69,0,17.47.09-8,0-1.24v3l.09,11.14L445.21,73l.07,9.63,0-14.73,0,22.43,0-6.19,0,1.24V79.21l0,1.37,0-5.23,0,14,.09-1,.06-12.66,0,15.13.08-8.94.06-11.15,0,26.7.06-13.21,0,7.43,0-17.48,0,3.86.09-7.16V86l0-4.82,0,16.52L446,76l0,2.62v2.47l0,13.21,0-18,.05,1.92,0-7.84.07,17.34V90.9l0-11.14.07,2.2V84.3l.11,20.91-.07-23.53.07,10.74.06-14,.05,25.46v2.89l.07-19v5.09l.1,15.69,0-15.83.05,2.48.05-15.69,0,19.68,0-13.35v-1.1l0,7.71.07-3,.08,8.26L447.05,80l.07,3.86.07,17.75.07-12.39.08-11.56,0,25.74.07-5.37V90.63l0-12.25,0,23.53.07-6.33v5.92L447.57,82l.07-3.17v34.82l0-31.79.06,5,.07-8.67L447.78,91l.09-5.23V92L448,81.55V86l0-5.09V77.42l.06,13.35,0-1.66,0,17.2,0-25.18,0,3.86.12-18.17-.09,22.57.1-12.11.09,13.35L448.38,69l.07,9.21.13,9.91V84.71l.11-4.54-.09,20.09.09-19v20.09l.05-28.89.06,16.09L448.9,80l-.07,11.29.09-2.21v2.21L449,68.47V66.82l0,32.61.07-21.74.1,16.79-.05-17.06.08,7.15.09-11.69,0,16.65,0-3.44v2.2l.09-14.45v-6l0,20.09.08-5.23.05,12.93,0-20.64V67l0,13.21.07-8.39.06-8.53.05,10.87.11-12.8L449.84,78l.09-14,.09,8.12-.08-8.94.1,4.13.11,13.48,0-17.61,0,7.84.06-7v8.81l0-1.79,0,21,.1-4.26V90.9l.08-18.3v-.69l0,14.18v5.23l.07-21.19,0,1.65,0,3.3,0-12.93v.41l0,11.69.06-6.88h0l.06-6.05.07,14.45h0v-7.3L451,72.6l0-6.74.05,14.59,0-8.4,0,9.08,0-19.54,0,9.64L451.31,61V72.88l0-3.72.09-6.19,0,26.28v-4l.13-28.62-.06,29.17.07-23.39,0,17.89.09-8.12.07-5.37-.05,12.94.08-6.47.06,12.11,0-21.05,0,5,0-7.43L452,74l.06-7.43v7.29L452.1,61l0,10.74.08,4.81,0-14.86.07,7.3V67.79l.05,11.42,0-7.57.05,24.22,0-38.81.07,9.5v15l.09-18.72v4.54l0,15.42v6.32l0-31.78.07,9.08v-.55l.05,8.39.1,7.43V76l0-12.66L453,74l.1,4.54L453,69.85l.07,6.88.09-11.14-.06,13.62.08-2.89.08-6.61v9.36l.06-13.62,0,9.08L453.47,56l-.05,33.16.08-17.06.06,23,0-27.24,0,11.56.08-9.22,0,10.59.07-6.6.08,7,0-13.34v-.55l0,10.45,0,4.54V71.91l.06,3,.09-7.29,0,8.67,0-6.06.09,6.61-.05-11.56.07,6.47,0-7.3.05,16.79,0-13.07.1,20.23,0-10.32.09,5.23-.06-15.14.07,7.43.12-18.16-.08,19.26.09-19.13.09,6.06,0-10.73.06,5.64,0-5.37,0,20.64,0-13.9L455,71.36l-.1-11.69L455,70.54l.13-17.75-.09,18.57.1-10.59,0,11.14.09-2.2,0-10,.08,11.42,0,9.91,0-23.26,0,3.72V59.67l.06,12.11,0-5.37v6.88l.05-12.38.05,1.37V60.63l.07,16.51.06,6.47,0-18.58.07,8.67.1-12,0,18.17L456,69l0,4,0-12.11.09-1.93,0,8.67.05-5.78.08,16.1,0-9.08V66.41l.06,18.3v5.92l.05-18.3.05,12.79.12-14.72,0,20.23,0-16.65.06,20,0-20.23,0,11.29.06-22.71.06,5.92h0l.11-13.9V65L457,83.34V80.58l0-17.61.1,8.26.06-8.12,0,13.35,0,4.26,0-12.8,0,11.43,0-8.95,0,16.38.06-3.86.07,3.86,0-15.28.09,13.21V89.8l0-14.58.08,8.53.06,8.94,0-12.38v1.24l.09-14-.05,22.71.09-16.65,0,8.66.05-9.35,0,6.47.06-9.09,0,13.9,0-8.39v3l.08-11.69.08-7.57-.06,11.56.1-5.78h0l0-.14V82.1l0-26.7.07,5.23,0,8.81,0-10.6.06,5.09,0-6.74.05,16,0-6.46,0,10.32.06-11.15,0,3.72.05-8,0,17.07,0-3.86L459,81l0-8.4,0,6.88V72.05l.08,14.18,0-11.7v14l0-18.43.07,8.11V73.15L459.35,89l0-12.11,0,11,.05-12.25,0,5.23.05-13.07,0,14.17.09-11.42,0-7.16,0,12.53,0,2.2,0-12.11,0,3.44V64.35l0,28.76.08-20.37h0v3.17l.08,1.78-.06-8.8.08,4.26V90.63l.06-10.18v5.64L460.14,73l0,.55,0,5.64V66.82l.06,19.41,0-4,0,11.15,0-12.66.05.28V78.93l.06,14.86,0-9.77,0,10.6V80.31l.07,5.09.11-11.7-.08,14,.09-10.32v9.63l0-17.75.07,2.48,0-6.61,0,17.2,0-1.65.18,52.7L461,79.62l.13,51.46v-3.71l0,32.2,0-12,.12,38.66-.07-42.1.1,25.18v-1.79l0,17.75,0-5.09,0,10.73.06-32.89,0,15.55.11-26.14-.06,44.17.07-33,0,9.22.06-25.45v6l.1,4.82-.06-8.53.07,4.81V132.6l0,23.8.08-14.72.09,6.74V133.28l0,5.51.1-8-.07,17.34.08-12,.11,16.1-.07-19.54.08,14.18,0-27.39,0,34.27.05-26.28.06,14.58,0-22.43.07,1.38.12,11.69-.07-12.24.07,5.78,0-8.81.06,18,0,2.2,0-5.23.09-12.8,0,14.45.06-7.57,0-12L463,138,463,120.9l.06,7.71,0-14.59.07-15.27,0,4,.13-15-.11,17.75.12-16.65.08,18.16,0-21.6.08-1.38-.07,11.42.07-8.39v7l.09-18.44v7.16l0-12.53,0,1.24.06,3.3.06-10.87L464,56.5,463.91,73l.11-12.8,0,12.11,0-23.67,0,3.72V66.82l0-15.82.07,2.34.07,11.28,0-4.26,0-11.15,0,16.1.05-6.05.05,7.84.06-6.06.1-5.09,0,15.41.05-10.45.08,6.46,0-7.43.07,1.24v-.27l0,7,.1,5.92-.07-11.28.08,6.6.08-6V74.67l0-11,0-9.36,0,12.66.05-1.93.1,10.32-.06-19,.07,10.87.05-11.15,0,22,.08-7.57.11-11,.05,3.72,0,2.61,0-6.88,0,1.65.09-16.1,0,19,0-9.63.09,18.44,0-18.58.05,7.16.08-16.65,0,17.89V55.82L466,79.48l0-27.24V49.35l.07,16L466.27,82l-.09-25.73.1,23.53L466.35,48l.06,22V79.9l.08-25.46,0,6.6v3.31l.07-14.73V55l0-8.12,0,14.72.05-10.87.09,13.76,0-18,0,3.58,0-2.48,0,12.93.05-5.36v3.71L467,46.18,467,54l0-7.71.08,8.67,0,9.49,0-19.4,0-2.34,0,15.28,0,7.29,0-18.44,0,.28V40.4l.05,28.35,0-11.28.12,15.68-.08-21.74.08,21.06.1-17.89,0,5.78.13,37.7-.09-42.79.1,34.4,0-35.78,0,62.88.11-53.25,0-17.06,0,19L468,50.59h0l0-5.51V66.55L468.16,43v.69l.08-13.63V51.83l0-23.26.08,16.37.12-9.35L468.42,50l.08-14.31,0,3.3V30.91l.07,3.16V30l.09,11,0,7.57.06-20.91,0,13.89.12-16v2.34L469,52l.08-17.34v-.27l0,6.74,0,7.57V35.59l.05,16.79v2.06l0-24.91,0,9.5.09-14.17L469.31,48l.1-16.79.14,14.32-.11-14.73.13,9.91,0-8,0,10.59.05,4.27,0-17.2.07,11.28.06-4.13V49.62l0-2.61.08,6.6V40h0l.15,17.2V49.07l.1-13.34,0,38.66,0-20.91.06,20.09,0-27.25.07.83.09,9.63L470.33,47l.1,2.34V41.23l0,21.05.08-12.93,0-7.16,0,11.42,0-10,.06,12V38.89l.07,8.53.07-12,0,17.75,0-16.1,0,30,.1-21.88v-11l0,20.37.06-10,0,8.81.06-14.59,0,4.82,0-10.46.06,22.71,0-16.52v4.41L471.44,54l0-24.5,0,15.55.06-5.5.05,9.36,0,68.52,0-90,0,1.93.11-11-.06,21.33.07-13.63.14,20.51V45.22l0-18.71L472,48V46.18l.06,12,0-18.3.08-2.61,0,12.38,0-8.8.12,11.83-.1-14.59.11,10.6,0-5.37,0,13.49V70.13l.08-29.86v2.34l0,18.71.05-23.26,0,11.29L472.72,29l-.05,23.67.06-10.59V51l0-22.43.08,3.72v-5l0,12.94.05-3.72V40l.05-8.67.05,2.07.07-8,0,6.6v4.82l.07,1.51,0-7.29,0,5.78.12-7.85-.09,10.19.12-6.06,0,7.71,0-15.69,0,7.16v-8.4l0,11.7.06-1.65V44l0-24.35.06,11.42,0-7.43,0,12.66.07,8.8,0-15.27,0,6.6V22.93l0,20.36L474,32.56v.28l0-6.2V24.17l0,11.42.07-4.13,0,7.71,0-16.1,0,1.23V23.07l0,17.33V51.14l0-32.61.06,1.65,0-6.2,0,10.32.08-3.44.06,10.74.06-3.17.07-9.08,0,12.11,0,9.63.07-12.52,0,11.15.07-8V52.1l0-23.94L475,41.37l0-2.2V56.64l0-23.25.06,5.78,0,10.45,0-12.66.09,1.79h0l0,8.4.06-15.55V26l0,20.22.07-8.94,0,1.65V26.23l0,1.79V24.44l.07,14.86,0-6.33v1.38l0-11.15V21.69l.08,12.93v0l0-7.29h0v9L475.86,21l0,20.23,0-15.14,0,21.74.09-7.7.07,1.37,0-9.9,0,4.4.07-7.29,0,19.26.08-2.06,0-3.72V34.62l0,27.66L476.3,43l.05,8,0-17.61.11,15.68.16-16.37-.12,20.09L476.6,37l0,6.06.05-12.66,0,8.26,0-10.46V46.6l.07-14.18.05,10.46,0-13.76.08,4.27V30.08L477,51.14v-2.2l0,8.53,0-10.74.09,4.54.08-6.46,0,18.85.08-7.84.06,9.08,0-18.72,0,16.38.06-14.73,0,18.17.07-2.34v16.1l.07-30.82,0,8.66,0,11.43,0-15.83.1-9.36,0,22,.06-20.5V65.72l.08-30,0,9.77v4l0-14,.05,5.92,0,6.19,0-11.83.09,4.12.08,9.09,0-12.8.08,8.53.08-3.17,0,21.75.07-16.38.09,13.9,0-11,.09-6.33,0,18.16,0-10.59.1,13.48-.08-15.13.09,6.74.13-12.52v.55L478.82,56l.07-5.91.07-7.3,0,18.3.08-8.8,0,7.43.06-13.07.11-8.67-.09,13.62.09-7.57.07,4.13-.05-12.93.08,3.85,0-2.2.05,9.63,0-5.64.06,12.93,0-17.89.06,5,.05-10.19.06,10.6V50l.08-19.54,0,10.45,0-5.64v-6.6l0,19.54.07-8.12.07,6.19,0-10.73.06,2.47,0-6.6L480,45.77l0-4.68V38.2l.09-13.48,0,36.05,0-18.58.05,19.27,0-29.31.06,21.05.13-25.32-.09,81.32.1-81,.08,17.61.06-.69.06-14.72,0,18.44,0-7.85,0,4.55.05-11,0,1.79,0,5.78V40.82l.08,11,0-4.55.07-4,0,16.93L481,48.8V56l.08-15.41,0,6.33.09,8.67,0-12.25.06,3.72v-1.1l0,12.66.06-6.19,0,11.14v4.27l.07-30.41,0,14.58,0,3.44,0-16,.06,8.12,0-4.54.05,4.68.05-3.31L481.79,56l-.06-14.45.09,7.71,0-6.6,0,13.48.06-10.46L482,60.08,482,41l.07.28V39.72l0,27.24V108.1l0-81,.07,14.31,0-3.17V50l0-8.81L482.3,44l.13-8-.05,8.67.05-8.26V55.68l.08-20.78,0,3,0-4.41,0,11.15,0-5.5,0,10.87.06-16.65,0,2.89.1-5.23-.08,10.87.1-9.63v-.55l0,9.63.05,5.09L483,28v6.33l0,8.53v-15l.08,6.19V31.74l.06,12.79,0-5.5.07,13.07,0-18,.05,3,.1-3v7.3l0-1.1.08,7.43-.07-13.76.1,8.8.06-15,0,26.29L483.64,37v5.78l.07-20.64,0,10.46.09,2.62.05-14.32.1,15.83,0-5.78,0,3.58V28.16l.09-9.36,0,6.74.09,12.25-.08-15.27.1,5.09,0-7.3.06,15.28,0-7,.07,14.86.07-7.15V30.36l.06,9.22,0-8.4.11,13.49-.05-14.31.06,9.08v2.34l.09-2.61.05,9.9V34.9l.05,4.27V33.66l.08,9.5,0-3.17.07,7.84,0-10.59.09-9.91-.06,20.23L485.3,39V65.59l0-33,.07,14.59,0-10.6,0,14.59V45.91l0,.82,0-5.23V54.85l.07-16,0,7.43,0-3.58.06,8.67,0-2.34.1,2.34-.07-10.18.08,6.74.11-8.53,0,12L486,41V37.1l0,15,.06-7.43,0,7.16.05-9.91,0,3,0-1.78,0,8,.05-2.75V52l0-8.8.05.27.09-8.53-.05,9.22.08-5.64v-.83l0,6.61,0-1.1,0,10.18,0-21.05,0,4.81.11,10.32,0-12,0,3.17,0-5,0,14.73.06-9,.06,14.31V37.1l.08,5.78.1-9.08,0,14.31,0-7.29,0,3.85.05-11v3.72l.09-5.92-.05,13.62.06-6.88v14l.06-24.36,0,3.72.12,15,0-19.68.05,11.42.06-16.24,0,22.84.08-14.72V40.27l0-17.48.07.14.08,15.27-.06-16.65.11,8.12,0,12.52L488,28.85l0,3.44v-7l.09,12.93V28.3l0,7.56.05,7.43,0-10.73,0,6.19,0-3,0,10.32,0-6.06.1,2.62,0-7,0,3.16.05-6.19v9.77l.06-1.1,0,25,.05-48.16,0,14.45,0,8.94,0-12.65V27.47l0,13.35.06-3.31.06,3.58,0-9.49.09,8.8,0-12.93L489.05,43v2.61l.07-20.77,0,16.23,0-9.35.08,9.9V41.5h0l.1-.68,0,22.7v2.34l0-29.45,0,3.58.13-7.43-.08,17.06.08-15.68.1,17.89,0-3.17V38.89l.06,10.73.05-5.09.09,6.47-.07-19.4L490,46.73l.05-19.4,0,22.43.16-15.82.1,6.05-.06-12.25.08,10.19.05-13.63,0,16,.06-8.26.1,17.48-.05-22.43.06,5.23V26l.05,13.21.05-3.31.14,22.85-.1-29.45.11,16.92,0-1.92.06,16.51,0,6.88.06-23v3.44L491,62l0-16.38,0,1.52v-12l.09,16.09V43.43l0-.27v3h0l0,5.78V33.52l.07,2.76V34.35l0,16.65,0-6.61V63.52l0-37,.07,15.68"/></g></g></svg>