<?xml version="1.0" encoding="utf-8"?>
<!-- Generator: Adobe Illustrator 24.2.1, SVG Export Plug-In . SVG Version: 6.00 Build 0)  -->
<svg version="1.1" id="レイヤー_1" xmlns="http://www.w3.org/2000/svg" xmlns:xlink="http://www.w3.org/1999/xlink" x="0px"
	 y="0px" viewBox="0 0 188.5 134.2" style="enable-background:new 0 0 188.5 134.2;" xml:space="preserve">
<style type="text/css">
	.st0{fill:none;stroke:#E6E6E6;stroke-width:2;stroke-linecap:round;stroke-linejoin:round;}
</style>
<path class="st0" d="M4.8,130.3h22.6c1.2,0.1,2.5-4,4.2-4.8c13.8-6.6,17.2-8.7,17.6-11.5s3.6-93.5,3.6-109.8
	c0,13,0.2,91.1,2.5,115.2c1.9,20.4,3.6,8.2,6.1,6.8c12-6.6,13.1-8.1,15.2-11.9C82,95,80.3,20.5,80.3,4.2c0,13,0.2,91.1,2.6,115.2
	c1.9,20.4,3.7,8.2,6.3,6.8c12.3-6.6,13-8.1,15.2-11.9c5.4-19.3,3.3-93.8,3.3-110.1c0,13,0.2,91.1,2.6,115.2
	c1.9,20.4,3.7,8.2,6.3,6.8c12.3-6.6,13-8.1,15.2-11.9c5.4-19.3,3.3-93.8,3.3-110.1c0,13,0.2,91.1,2.6,115.2
	c0.8,7.6,1.5,10.7,2.2,11.5h44.8"/>
</svg>
